# MagicaVoxel @ ephtracy

# material
mtllib Cannon.mtl
usemtl palette

# normals
vn -1 0 0
vn 1 0 0
vn 0 0 1
vn 0 0 -1
vn 0 -1 0
vn 0 1 0

# texcoords
vt 0.439453 0.5
vt 0.447266 0.5
vt 0.537109 0.5

# verts
v -3.5 1 1
v -3.5 1 -0
v -3.5 1 -10
v -3.5 5 -7
v -3.5 5 -10
v -3.5 6 1
v -3.5 6 -0
v -3.5 6 -7
v -3.5 6 -10
v -2.5 0 1
v -2.5 0 -0
v -2.5 0 -10
v -2.5 1 1
v -2.5 1 -0
v -2.5 1 -10
v -2.5 2 10
v -2.5 2 9
v -2.5 2 2
v -2.5 2 1
v -2.5 5 10
v -2.5 5 9
v -2.5 5 2
v -2.5 5 1
v -2.5 6 1
v -2.5 6 -0
v -2.5 6 -7
v -2.5 6 -10
v -2.5 7 1
v -2.5 7 -0
v -2.5 7 -7
v -2.5 7 -10
v -1.5 1 10
v -1.5 1 9
v -1.5 1 2
v -1.5 1 1
v -1.5 2 10
v -1.5 2 9
v -1.5 2 2
v -1.5 2 1
v -1.5 5 10
v -1.5 5 9
v -1.5 5 2
v -1.5 5 1
v -1.5 6 10
v -1.5 6 9
v -1.5 6 2
v -1.5 6 1
v 1.5 2 10
v 1.5 2 9
v 1.5 2 7
v 1.5 5 10
v 1.5 5 9
v 1.5 5 7
v -1.5 2 10
v -1.5 2 9
v -1.5 2 7
v -1.5 5 10
v -1.5 5 9
v -1.5 5 7
v 1.5 1 10
v 1.5 1 9
v 1.5 1 2
v 1.5 1 1
v 1.5 2 10
v 1.5 2 9
v 1.5 2 2
v 1.5 2 1
v 1.5 5 10
v 1.5 5 9
v 1.5 5 2
v 1.5 5 1
v 1.5 6 10
v 1.5 6 9
v 1.5 6 2
v 1.5 6 1
v 2.5 0 1
v 2.5 0 -0
v 2.5 0 -10
v 2.5 1 1
v 2.5 1 -0
v 2.5 1 -10
v 2.5 2 10
v 2.5 2 9
v 2.5 2 2
v 2.5 2 1
v 2.5 5 10
v 2.5 5 9
v 2.5 5 2
v 2.5 5 1
v 2.5 6 1
v 2.5 6 -0
v 2.5 6 -7
v 2.5 6 -10
v 2.5 7 1
v 2.5 7 -0
v 2.5 7 -7
v 2.5 7 -10
v 3.5 1 1
v 3.5 1 -0
v 3.5 1 -10
v 3.5 5 -7
v 3.5 5 -10
v 3.5 6 1
v 3.5 6 -0
v 3.5 6 -7
v 3.5 6 -10
v -2.5 2 10
v -2.5 5 10
v -1.5 1 10
v -1.5 2 10
v -1.5 5 10
v -1.5 6 10
v 1.5 1 10
v 1.5 2 10
v 1.5 5 10
v 1.5 6 10
v 2.5 2 10
v 2.5 5 10
v -1.5 2 7
v -1.5 5 7
v 1.5 2 7
v 1.5 5 7
v -3.5 1 1
v -3.5 6 1
v -2.5 0 1
v -2.5 1 1
v -2.5 2 1
v -2.5 5 1
v -2.5 6 1
v -2.5 7 1
v -1.5 1 1
v -1.5 2 1
v -1.5 5 1
v -1.5 6 1
v 1.5 1 1
v 1.5 2 1
v 1.5 5 1
v 1.5 6 1
v 2.5 0 1
v 2.5 1 1
v 2.5 2 1
v 2.5 5 1
v 2.5 6 1
v 2.5 7 1
v 3.5 1 1
v 3.5 6 1
v -3.5 1 -10
v -3.5 5 -10
v -3.5 6 -10
v -2.5 0 -10
v -2.5 1 -10
v -2.5 6 -10
v -2.5 7 -10
v 2.5 0 -10
v 2.5 1 -10
v 2.5 6 -10
v 2.5 7 -10
v 3.5 1 -10
v 3.5 5 -10
v 3.5 6 -10
v -2.5 0 1
v 2.5 0 1
v -2.5 0 -0
v 2.5 0 -0
v -2.5 0 -10
v 2.5 0 -10
v -1.5 1 10
v 1.5 1 10
v -1.5 1 9
v 1.5 1 9
v -1.5 1 2
v 1.5 1 2
v -3.5 1 1
v -2.5 1 1
v -1.5 1 1
v 1.5 1 1
v 2.5 1 1
v 3.5 1 1
v -3.5 1 -0
v -2.5 1 -0
v 2.5 1 -0
v 3.5 1 -0
v -3.5 1 -10
v -2.5 1 -10
v 2.5 1 -10
v 3.5 1 -10
v -2.5 2 10
v -1.5 2 10
v 1.5 2 10
v 2.5 2 10
v -2.5 2 9
v -1.5 2 9
v 1.5 2 9
v 2.5 2 9
v -2.5 2 2
v -1.5 2 2
v 1.5 2 2
v 2.5 2 2
v -2.5 2 1
v -1.5 2 1
v 1.5 2 1
v 2.5 2 1
v -1.5 5 10
v 1.5 5 10
v -1.5 5 9
v 1.5 5 9
v -1.5 5 7
v 1.5 5 7
v -1.5 2 10
v 1.5 2 10
v -1.5 2 9
v 1.5 2 9
v -1.5 2 7
v 1.5 2 7
v -2.5 5 10
v -1.5 5 10
v 1.5 5 10
v 2.5 5 10
v -2.5 5 9
v -1.5 5 9
v 1.5 5 9
v 2.5 5 9
v -2.5 5 2
v -1.5 5 2
v 1.5 5 2
v 2.5 5 2
v -2.5 5 1
v -1.5 5 1
v 1.5 5 1
v 2.5 5 1
v -1.5 6 10
v 1.5 6 10
v -1.5 6 9
v 1.5 6 9
v -1.5 6 2
v 1.5 6 2
v -3.5 6 1
v -2.5 6 1
v -1.5 6 1
v 1.5 6 1
v 2.5 6 1
v 3.5 6 1
v -3.5 6 -0
v -2.5 6 -0
v 2.5 6 -0
v 3.5 6 -0
v -3.5 6 -7
v -2.5 6 -7
v 2.5 6 -7
v 3.5 6 -7
v -3.5 6 -10
v -2.5 6 -10
v 2.5 6 -10
v 3.5 6 -10
v -2.5 7 1
v 2.5 7 1
v -2.5 7 -0
v 2.5 7 -0
v -2.5 7 -7
v 2.5 7 -7
v -2.5 7 -10
v 2.5 7 -10

# faces
f 4/2/1 3/2/1 2/2/1
f 5/2/1 3/2/1 4/2/1
f 6/1/1 2/1/1 1/1/1
f 7/2/1 4/2/1 2/2/1
f 7/1/1 2/1/1 6/1/1
f 8/1/1 5/1/1 4/1/1
f 8/2/1 4/2/1 7/2/1
f 9/1/1 5/1/1 8/1/1
f 13/1/1 11/1/1 10/1/1
f 14/2/1 12/2/1 11/2/1
f 14/1/1 11/1/1 13/1/1
f 15/2/1 12/2/1 14/2/1
f 20/1/1 17/1/1 16/1/1
f 21/2/1 18/2/1 17/2/1
f 21/1/1 17/1/1 20/1/1
f 22/1/1 19/1/1 18/1/1
f 22/2/1 18/2/1 21/2/1
f 23/1/1 19/1/1 22/1/1
f 28/1/1 25/1/1 24/1/1
f 29/2/1 26/2/1 25/2/1
f 29/1/1 25/1/1 28/1/1
f 30/1/1 27/1/1 26/1/1
f 30/2/1 26/2/1 29/2/1
f 31/1/1 27/1/1 30/1/1
f 36/1/1 33/1/1 32/1/1
f 37/2/1 34/2/1 33/2/1
f 37/1/1 33/1/1 36/1/1
f 38/1/1 35/1/1 34/1/1
f 38/2/1 34/2/1 37/2/1
f 39/1/1 35/1/1 38/1/1
f 44/1/1 41/1/1 40/1/1
f 45/2/1 42/2/1 41/2/1
f 45/1/1 41/1/1 44/1/1
f 46/1/1 43/1/1 42/1/1
f 46/2/1 42/2/1 45/2/1
f 47/1/1 43/1/1 46/1/1
f 51/1/1 49/1/1 48/1/1
f 52/2/1 50/2/1 49/2/1
f 52/1/1 49/1/1 51/1/1
f 53/2/1 50/2/1 52/2/1
f 54/1/2 55/1/2 57/1/2
f 55/2/2 56/2/2 58/2/2
f 57/1/2 55/1/2 58/1/2
f 58/2/2 56/2/2 59/2/2
f 60/1/2 61/1/2 64/1/2
f 61/2/2 62/2/2 65/2/2
f 64/1/2 61/1/2 65/1/2
f 62/1/2 63/1/2 66/1/2
f 65/2/2 62/2/2 66/2/2
f 66/1/2 63/1/2 67/1/2
f 68/1/2 69/1/2 72/1/2
f 69/2/2 70/2/2 73/2/2
f 72/1/2 69/1/2 73/1/2
f 70/1/2 71/1/2 74/1/2
f 73/2/2 70/2/2 74/2/2
f 74/1/2 71/1/2 75/1/2
f 76/1/2 77/1/2 79/1/2
f 77/2/2 78/2/2 80/2/2
f 79/1/2 77/1/2 80/1/2
f 80/2/2 78/2/2 81/2/2
f 82/1/2 83/1/2 86/1/2
f 83/2/2 84/2/2 87/2/2
f 86/1/2 83/1/2 87/1/2
f 84/1/2 85/1/2 88/1/2
f 87/2/2 84/2/2 88/2/2
f 88/1/2 85/1/2 89/1/2
f 90/1/2 91/1/2 94/1/2
f 91/2/2 92/2/2 95/2/2
f 94/1/2 91/1/2 95/1/2
f 92/1/2 93/1/2 96/1/2
f 95/2/2 92/2/2 96/2/2
f 96/1/2 93/1/2 97/1/2
f 99/2/2 100/2/2 101/2/2
f 101/2/2 100/2/2 102/2/2
f 98/1/2 99/1/2 103/1/2
f 99/2/2 101/2/2 104/2/2
f 103/1/2 99/1/2 104/1/2
f 101/1/2 102/1/2 105/1/2
f 104/2/2 101/2/2 105/2/2
f 105/1/2 102/1/2 106/1/2
f 110/1/3 108/1/3 107/1/3
f 111/1/3 108/1/3 110/1/3
f 113/1/3 110/1/3 109/1/3
f 114/1/3 110/1/3 113/1/3
f 115/1/3 112/1/3 111/1/3
f 116/1/3 112/1/3 115/1/3
f 117/1/3 115/1/3 114/1/3
f 118/1/3 115/1/3 117/1/3
f 121/3/3 120/3/3 119/3/3
f 122/3/3 120/3/3 121/3/3
f 126/1/3 124/1/3 123/1/3
f 127/1/3 124/1/3 126/1/3
f 128/1/3 124/1/3 127/1/3
f 129/1/3 124/1/3 128/1/3
f 131/1/3 126/1/3 125/1/3
f 131/1/3 127/1/3 126/1/3
f 132/1/3 127/1/3 131/1/3
f 133/1/3 130/1/3 129/1/3
f 133/1/3 129/1/3 128/1/3
f 134/1/3 130/1/3 133/1/3
f 135/1/3 131/1/3 125/1/3
f 138/1/3 130/1/3 134/1/3
f 139/1/3 136/1/3 135/1/3
f 139/1/3 135/1/3 125/1/3
f 140/1/3 136/1/3 139/1/3
f 141/1/3 136/1/3 140/1/3
f 142/1/3 138/1/3 137/1/3
f 143/1/3 130/1/3 138/1/3
f 143/1/3 138/1/3 142/1/3
f 144/1/3 130/1/3 143/1/3
f 145/1/3 141/1/3 140/1/3
f 145/1/3 142/1/3 141/1/3
f 145/1/3 143/1/3 142/1/3
f 146/1/3 143/1/3 145/1/3
f 147/2/4 148/2/4 151/2/4
f 148/1/4 149/1/4 152/1/4
f 150/2/4 151/2/4 154/2/4
f 151/2/4 148/2/4 155/2/4
f 154/2/4 151/2/4 155/2/4
f 152/1/4 153/1/4 156/1/4
f 148/1/4 152/1/4 156/1/4
f 156/1/4 153/1/4 157/1/4
f 155/2/4 148/2/4 158/2/4
f 148/1/4 156/1/4 159/1/4
f 158/2/4 148/2/4 159/2/4
f 159/1/4 156/1/4 160/1/4
f 163/1/5 162/1/5 161/1/5
f 164/1/5 162/1/5 163/1/5
f 165/2/5 164/2/5 163/2/5
f 166/2/5 164/2/5 165/2/5
f 169/1/5 168/1/5 167/1/5
f 170/1/5 168/1/5 169/1/5
f 171/2/5 170/2/5 169/2/5
f 172/2/5 170/2/5 171/2/5
f 175/1/5 172/1/5 171/1/5
f 176/1/5 172/1/5 175/1/5
f 179/1/5 174/1/5 173/1/5
f 180/1/5 174/1/5 179/1/5
f 181/1/5 178/1/5 177/1/5
f 182/1/5 178/1/5 181/1/5
f 183/2/5 180/2/5 179/2/5
f 184/2/5 180/2/5 183/2/5
f 185/2/5 182/2/5 181/2/5
f 186/2/5 182/2/5 185/2/5
f 191/1/5 188/1/5 187/1/5
f 192/1/5 188/1/5 191/1/5
f 193/1/5 190/1/5 189/1/5
f 194/1/5 190/1/5 193/1/5
f 195/2/5 192/2/5 191/2/5
f 196/2/5 192/2/5 195/2/5
f 197/2/5 194/2/5 193/2/5
f 198/2/5 194/2/5 197/2/5
f 199/1/5 196/1/5 195/1/5
f 200/1/5 196/1/5 199/1/5
f 201/1/5 198/1/5 197/1/5
f 202/1/5 198/1/5 201/1/5
f 205/1/5 204/1/5 203/1/5
f 206/1/5 204/1/5 205/1/5
f 207/2/5 206/2/5 205/2/5
f 208/2/5 206/2/5 207/2/5
f 209/1/6 210/1/6 211/1/6
f 211/1/6 210/1/6 212/1/6
f 211/2/6 212/2/6 213/2/6
f 213/2/6 212/2/6 214/2/6
f 215/1/6 216/1/6 219/1/6
f 219/1/6 216/1/6 220/1/6
f 217/1/6 218/1/6 221/1/6
f 221/1/6 218/1/6 222/1/6
f 219/2/6 220/2/6 223/2/6
f 223/2/6 220/2/6 224/2/6
f 221/2/6 222/2/6 225/2/6
f 225/2/6 222/2/6 226/2/6
f 223/1/6 224/1/6 227/1/6
f 227/1/6 224/1/6 228/1/6
f 225/1/6 226/1/6 229/1/6
f 229/1/6 226/1/6 230/1/6
f 231/1/6 232/1/6 233/1/6
f 233/1/6 232/1/6 234/1/6
f 233/2/6 234/2/6 235/2/6
f 235/2/6 234/2/6 236/2/6
f 235/1/6 236/1/6 239/1/6
f 239/1/6 236/1/6 240/1/6
f 237/1/6 238/1/6 243/1/6
f 243/1/6 238/1/6 244/1/6
f 241/1/6 242/1/6 245/1/6
f 245/1/6 242/1/6 246/1/6
f 243/2/6 244/2/6 247/2/6
f 247/2/6 244/2/6 248/2/6
f 245/2/6 246/2/6 249/2/6
f 249/2/6 246/2/6 250/2/6
f 247/1/6 248/1/6 251/1/6
f 251/1/6 248/1/6 252/1/6
f 249/1/6 250/1/6 253/1/6
f 253/1/6 250/1/6 254/1/6
f 255/1/6 256/1/6 257/1/6
f 257/1/6 256/1/6 258/1/6
f 257/2/6 258/2/6 259/2/6
f 259/2/6 258/2/6 260/2/6
f 259/1/6 260/1/6 261/1/6
f 261/1/6 260/1/6 262/1/6
