# MagicaVoxel @ ephtracy

# material
mtllib Turret.mtl
usemtl palette

# normals
vn -1 0 0
vn 1 0 0
vn 0 0 1
vn 0 0 -1
vn 0 -1 0
vn 0 1 0

# texcoords
vt 0.482422 0.5
vt 0.490234 0.5
vt 0.544922 0.5

# verts
v -5.5 1 5
v -5.5 1 -5
v -5.5 2 5
v -5.5 2 4
v -5.5 2 3
v -5.5 2 -5
v -5.5 3 3
v -5.5 3 -5
v -5.5 4 4
v -5.5 4 -5
v -5.5 5 3
v -5.5 5 -5
v -5.5 6 3
v -5.5 6 -5
v -5.5 7 4
v -5.5 7 -5
v -4.5 1 -5
v -4.5 1 -6
v -4.5 2 -5
v -4.5 2 -6
v -4.5 3 -5
v -4.5 3 -6
v -4.5 4 -5
v -4.5 4 -6
v -4.5 5 -5
v -4.5 5 -6
v -4.5 6 -5
v -4.5 6 -6
v -4.5 7 -5
v -4.5 7 -6
v -3.5 1 6
v -3.5 1 5
v -3.5 2 6
v -3.5 2 5
v -1.5 0 2
v -1.5 0 -1
v -1.5 1 2
v -1.5 1 -1
v -1.5 7 -5
v -1.5 7 -6
v -1.5 9 1
v -1.5 9 -5
v -1.5 10 1
v -1.5 10 -6
v 1.5 4 -4
v 1.5 4 -5
v 1.5 5 -5
v 1.5 6 -5
v 1.5 9 -4
v 1.5 9 -5
v 1.5 10 -4
v 1.5 10 -5
v 1.5 15 -4
v 1.5 15 -5
v 2.5 2 3
v 2.5 2 -4
v 2.5 2 -5
v 2.5 3 3
v 2.5 3 -5
v 3.5 4 4
v 3.5 4 -2
v 3.5 4 -5
v 3.5 5 -5
v 3.5 6 -2
v 3.5 6 -4
v 3.5 6 -5
v 3.5 7 4
v 3.5 7 -4
v 3.5 7 -5
v -3.5 4 4
v -3.5 4 -2
v -3.5 4 -5
v -3.5 5 -5
v -3.5 6 -2
v -3.5 6 -4
v -3.5 6 -5
v -3.5 7 4
v -3.5 7 -4
v -3.5 7 -5
v -2.5 2 3
v -2.5 2 -4
v -2.5 2 -5
v -2.5 3 3
v -2.5 3 -5
v 1.5 0 2
v 1.5 0 -1
v 1.5 1 2
v 1.5 1 -1
v 1.5 7 -5
v 1.5 7 -6
v 1.5 9 1
v 1.5 9 -4
v 1.5 10 1
v 1.5 10 -4
v 1.5 10 -5
v 1.5 10 -6
v 2.5 4 -4
v 2.5 4 -5
v 2.5 5 -5
v 2.5 6 -5
v 2.5 7 -5
v 2.5 15 -4
v 2.5 15 -5
v 3.5 1 6
v 3.5 1 5
v 3.5 2 6
v 3.5 2 5
v 4.5 1 -5
v 4.5 1 -6
v 4.5 2 -5
v 4.5 2 -6
v 4.5 3 -5
v 4.5 3 -6
v 4.5 4 -5
v 4.5 4 -6
v 4.5 5 -5
v 4.5 5 -6
v 4.5 6 -5
v 4.5 6 -6
v 4.5 7 -5
v 4.5 7 -6
v 5.5 1 5
v 5.5 1 -5
v 5.5 2 5
v 5.5 2 4
v 5.5 2 3
v 5.5 2 -5
v 5.5 3 3
v 5.5 3 -5
v 5.5 4 4
v 5.5 4 -5
v 5.5 5 3
v 5.5 5 -5
v 5.5 6 3
v 5.5 6 -5
v 5.5 7 4
v 5.5 7 -5
v -3.5 1 6
v -3.5 2 6
v 3.5 1 6
v 3.5 2 6
v -5.5 1 5
v -5.5 2 5
v -3.5 1 5
v -3.5 2 5
v 3.5 1 5
v 3.5 2 5
v 5.5 1 5
v 5.5 2 5
v -5.5 2 4
v -5.5 4 4
v -5.5 7 4
v -4.5 4 4
v -4.5 7 4
v -3.5 2 4
v -3.5 4 4
v -3.5 7 4
v 3.5 2 4
v 3.5 4 4
v 3.5 7 4
v 4.5 4 4
v 4.5 7 4
v 5.5 2 4
v 5.5 4 4
v 5.5 7 4
v -1.5 0 2
v -1.5 1 2
v 1.5 0 2
v 1.5 1 2
v -1.5 9 1
v -1.5 10 1
v 1.5 9 1
v 1.5 10 1
v 1.5 4 -4
v 1.5 9 -4
v 1.5 10 -4
v 1.5 15 -4
v 2.5 4 -4
v 2.5 15 -4
v -3.5 4 -5
v -3.5 5 -5
v -3.5 6 -5
v -3.5 7 -5
v -2.5 2 -5
v -2.5 3 -5
v -1.5 7 -5
v -1.5 9 -5
v -0.5 4 -5
v -0.5 5 -5
v -0.5 6 -5
v -0.5 9 -5
v 0.5 4 -5
v 0.5 5 -5
v 0.5 6 -5
v 0.5 9 -5
v 1.5 4 -5
v 1.5 5 -5
v 1.5 6 -5
v 1.5 9 -5
v 2.5 2 -5
v 2.5 3 -5
v 2.5 4 -5
v 2.5 5 -5
v 2.5 6 -5
v 2.5 7 -5
v 3.5 4 -5
v 3.5 5 -5
v 3.5 6 -5
v 3.5 7 -5
v -2.5 2 3
v -2.5 3 3
v 2.5 2 3
v 2.5 3 3
v -1.5 0 -1
v -1.5 1 -1
v 1.5 0 -1
v 1.5 1 -1
v -5.5 1 -5
v -5.5 2 -5
v -5.5 3 -5
v -5.5 4 -5
v -5.5 5 -5
v -5.5 6 -5
v -5.5 7 -5
v -4.5 1 -5
v -4.5 2 -5
v -4.5 3 -5
v -4.5 4 -5
v -4.5 5 -5
v -4.5 6 -5
v -4.5 7 -5
v 1.5 7 -5
v 1.5 10 -5
v 1.5 15 -5
v 2.5 7 -5
v 2.5 15 -5
v 4.5 1 -5
v 4.5 2 -5
v 4.5 3 -5
v 4.5 4 -5
v 4.5 5 -5
v 4.5 6 -5
v 4.5 7 -5
v 5.5 1 -5
v 5.5 2 -5
v 5.5 3 -5
v 5.5 4 -5
v 5.5 5 -5
v 5.5 6 -5
v 5.5 7 -5
v -4.5 1 -6
v -4.5 2 -6
v -4.5 3 -6
v -4.5 4 -6
v -4.5 5 -6
v -4.5 6 -6
v -4.5 7 -6
v -1.5 7 -6
v -1.5 10 -6
v -0.5 4 -6
v -0.5 5 -6
v -0.5 6 -6
v -0.5 10 -6
v 0.5 4 -6
v 0.5 5 -6
v 0.5 6 -6
v 0.5 10 -6
v 1.5 7 -6
v 1.5 10 -6
v 4.5 1 -6
v 4.5 2 -6
v 4.5 3 -6
v 4.5 4 -6
v 4.5 5 -6
v 4.5 6 -6
v 4.5 7 -6
v -1.5 0 2
v 1.5 0 2
v -1.5 0 -1
v 1.5 0 -1
v -3.5 1 6
v 3.5 1 6
v -5.5 1 5
v -3.5 1 5
v 3.5 1 5
v 5.5 1 5
v -1.5 1 2
v 1.5 1 2
v -1.5 1 -1
v 1.5 1 -1
v -3.5 1 -4
v 3.5 1 -4
v -5.5 1 -5
v -4.5 1 -5
v 4.5 1 -5
v 5.5 1 -5
v -4.5 1 -6
v 4.5 1 -6
v -2.5 3 3
v 2.5 3 3
v -2.5 3 -5
v 2.5 3 -5
v -1.5 9 1
v 1.5 9 1
v -0.5 9 -0
v 0.5 9 -0
v 1.5 9 -4
v -1.5 9 -5
v -0.5 9 -5
v 0.5 9 -5
v 1.5 9 -5
v -3.5 2 6
v 3.5 2 6
v -5.5 2 5
v -3.5 2 5
v 3.5 2 5
v 5.5 2 5
v -5.5 2 4
v -3.5 2 4
v 3.5 2 4
v 5.5 2 4
v -2.5 2 3
v 2.5 2 3
v -1.5 2 2
v 1.5 2 2
v -1.5 2 -1
v 1.5 2 -1
v -2.5 2 -4
v 2.5 2 -4
v -2.5 2 -5
v 2.5 2 -5
v -3.5 4 4
v 3.5 4 4
v -3.5 4 -2
v 3.5 4 -2
v 1.5 4 -4
v 2.5 4 -4
v -3.5 4 -5
v -0.5 4 -5
v 0.5 4 -5
v 1.5 4 -5
v 2.5 4 -5
v 3.5 4 -5
v -5.5 7 4
v -4.5 7 4
v -3.5 7 4
v 3.5 7 4
v 4.5 7 4
v 5.5 7 4
v -4.5 7 -4
v -3.5 7 -4
v 3.5 7 -4
v 4.5 7 -4
v -5.5 7 -5
v -4.5 7 -5
v -3.5 7 -5
v -1.5 7 -5
v 1.5 7 -5
v 2.5 7 -5
v 3.5 7 -5
v 4.5 7 -5
v 5.5 7 -5
v -4.5 7 -6
v -1.5 7 -6
v 1.5 7 -6
v 4.5 7 -6
v -1.5 10 1
v 1.5 10 1
v -0.5 10 -0
v 0.5 10 -0
v 1.5 10 -4
v 1.5 10 -5
v -1.5 10 -6
v -0.5 10 -6
v 0.5 10 -6
v 1.5 10 -6
v 1.5 15 -4
v 2.5 15 -4
v 1.5 15 -5
v 2.5 15 -5

# faces
f 3/2/1 2/2/1 1/2/1
f 4/2/1 2/2/1 3/2/1
f 5/2/1 2/2/1 4/2/1
f 6/2/1 2/2/1 5/2/1
f 7/2/1 5/2/1 4/2/1
f 7/3/1 6/3/1 5/3/1
f 8/3/1 6/3/1 7/3/1
f 9/2/1 7/2/1 4/2/1
f 9/2/1 8/2/1 7/2/1
f 10/2/1 8/2/1 9/2/1
f 11/1/1 10/1/1 9/1/1
f 12/1/1 10/1/1 11/1/1
f 13/1/1 11/1/1 9/1/1
f 13/2/1 12/2/1 11/2/1
f 14/2/1 12/2/1 13/2/1
f 15/1/1 13/1/1 9/1/1
f 15/1/1 14/1/1 13/1/1
f 16/1/1 14/1/1 15/1/1
f 19/2/1 18/2/1 17/2/1
f 20/2/1 18/2/1 19/2/1
f 21/3/1 20/3/1 19/3/1
f 22/3/1 20/3/1 21/3/1
f 23/2/1 22/2/1 21/2/1
f 24/2/1 22/2/1 23/2/1
f 25/1/1 24/1/1 23/1/1
f 26/1/1 24/1/1 25/1/1
f 27/2/1 26/2/1 25/2/1
f 28/2/1 26/2/1 27/2/1
f 29/1/1 28/1/1 27/1/1
f 30/1/1 28/1/1 29/1/1
f 33/1/1 32/1/1 31/1/1
f 34/1/1 32/1/1 33/1/1
f 37/3/1 36/3/1 35/3/1
f 38/3/1 36/3/1 37/3/1
f 42/1/1 40/1/1 39/1/1
f 43/1/1 42/1/1 41/1/1
f 44/1/1 40/1/1 42/1/1
f 44/1/1 42/1/1 43/1/1
f 47/3/1 46/3/1 45/3/1
f 48/3/1 47/3/1 45/3/1
f 49/3/1 48/3/1 45/3/1
f 50/3/1 48/3/1 49/3/1
f 53/3/1 52/3/1 51/3/1
f 54/3/1 52/3/1 53/3/1
f 58/1/1 56/1/1 55/1/1
f 58/1/1 57/1/1 56/1/1
f 59/1/1 57/1/1 58/1/1
f 63/1/1 62/1/1 61/1/1
f 64/2/1 61/2/1 60/2/1
f 64/1/1 63/1/1 61/1/1
f 65/1/1 63/1/1 64/1/1
f 66/1/1 63/1/1 65/1/1
f 67/2/1 64/2/1 60/2/1
f 67/2/1 65/2/1 64/2/1
f 68/1/1 66/1/1 65/1/1
f 68/2/1 65/2/1 67/2/1
f 69/1/1 66/1/1 68/1/1
f 71/1/2 72/1/2 73/1/2
f 70/2/2 71/2/2 74/2/2
f 71/1/2 73/1/2 74/1/2
f 74/1/2 73/1/2 75/1/2
f 75/1/2 73/1/2 76/1/2
f 70/2/2 74/2/2 77/2/2
f 74/2/2 75/2/2 77/2/2
f 75/1/2 76/1/2 78/1/2
f 77/2/2 75/2/2 78/2/2
f 78/1/2 76/1/2 79/1/2
f 80/1/2 81/1/2 83/1/2
f 81/1/2 82/1/2 83/1/2
f 83/1/2 82/1/2 84/1/2
f 85/3/2 86/3/2 87/3/2
f 87/3/2 86/3/2 88/3/2
f 91/1/2 92/1/2 93/1/2
f 93/1/2 92/1/2 94/1/2
f 89/1/2 90/1/2 95/1/2
f 95/1/2 90/1/2 96/1/2
f 97/3/2 98/3/2 99/3/2
f 97/3/2 99/3/2 100/3/2
f 97/3/2 100/3/2 101/3/2
f 97/3/2 101/3/2 102/3/2
f 102/3/2 101/3/2 103/3/2
f 104/1/2 105/1/2 106/1/2
f 106/1/2 105/1/2 107/1/2
f 108/2/2 109/2/2 110/2/2
f 110/2/2 109/2/2 111/2/2
f 110/3/2 111/3/2 112/3/2
f 112/3/2 111/3/2 113/3/2
f 112/2/2 113/2/2 114/2/2
f 114/2/2 113/2/2 115/2/2
f 114/1/2 115/1/2 116/1/2
f 116/1/2 115/1/2 117/1/2
f 116/2/2 117/2/2 118/2/2
f 118/2/2 117/2/2 119/2/2
f 118/1/2 119/1/2 120/1/2
f 120/1/2 119/1/2 121/1/2
f 122/2/2 123/2/2 124/2/2
f 124/2/2 123/2/2 125/2/2
f 125/2/2 123/2/2 126/2/2
f 126/2/2 123/2/2 127/2/2
f 125/2/2 126/2/2 128/2/2
f 126/3/2 127/3/2 128/3/2
f 128/3/2 127/3/2 129/3/2
f 125/2/2 128/2/2 130/2/2
f 128/2/2 129/2/2 130/2/2
f 130/2/2 129/2/2 131/2/2
f 130/1/2 131/1/2 132/1/2
f 132/1/2 131/1/2 133/1/2
f 130/1/2 132/1/2 134/1/2
f 132/2/2 133/2/2 134/2/2
f 134/2/2 133/2/2 135/2/2
f 130/1/2 134/1/2 136/1/2
f 134/1/2 135/1/2 136/1/2
f 136/1/2 135/1/2 137/1/2
f 140/1/3 139/1/3 138/1/3
f 141/1/3 139/1/3 140/1/3
f 144/2/3 143/2/3 142/2/3
f 145/2/3 143/2/3 144/2/3
f 148/2/3 147/2/3 146/2/3
f 149/2/3 147/2/3 148/2/3
f 153/2/3 151/2/3 150/2/3
f 153/1/3 152/1/3 151/1/3
f 154/1/3 152/1/3 153/1/3
f 155/2/3 153/2/3 150/2/3
f 155/2/3 154/2/3 153/2/3
f 156/2/3 154/2/3 155/2/3
f 157/2/3 154/2/3 156/2/3
f 158/2/3 156/2/3 155/2/3
f 159/2/3 156/2/3 158/2/3
f 161/2/3 159/2/3 158/2/3
f 161/2/3 160/2/3 159/2/3
f 162/2/3 160/2/3 161/2/3
f 163/2/3 161/2/3 158/2/3
f 164/1/3 162/1/3 161/1/3
f 164/2/3 161/2/3 163/2/3
f 165/1/3 162/1/3 164/1/3
f 168/3/3 167/3/3 166/3/3
f 169/3/3 167/3/3 168/3/3
f 172/1/3 171/1/3 170/1/3
f 173/1/3 171/1/3 172/1/3
f 178/3/3 175/3/3 174/3/3
f 178/3/3 177/3/3 176/3/3
f 178/3/3 176/3/3 175/3/3
f 179/3/3 177/3/3 178/3/3
f 186/1/3 183/1/3 182/1/3
f 188/1/3 181/1/3 180/1/3
f 189/2/3 182/2/3 181/2/3
f 189/1/3 181/1/3 188/1/3
f 190/1/3 187/1/3 186/1/3
f 190/2/3 182/2/3 189/2/3
f 190/1/3 186/1/3 182/1/3
f 191/1/3 187/1/3 190/1/3
f 192/2/3 189/2/3 188/2/3
f 192/2/3 190/2/3 189/2/3
f 192/2/3 191/2/3 190/2/3
f 193/2/3 191/2/3 192/2/3
f 194/2/3 191/2/3 193/2/3
f 195/2/3 191/2/3 194/2/3
f 196/1/3 193/1/3 192/1/3
f 197/2/3 194/2/3 193/2/3
f 197/1/3 193/1/3 196/1/3
f 198/1/3 195/1/3 194/1/3
f 198/2/3 194/2/3 197/2/3
f 199/1/3 195/1/3 198/1/3
f 200/3/3 185/3/3 184/3/3
f 201/3/3 185/3/3 200/3/3
f 206/1/3 203/1/3 202/1/3
f 207/2/3 204/2/3 203/2/3
f 207/1/3 203/1/3 206/1/3
f 208/1/3 205/1/3 204/1/3
f 208/2/3 204/2/3 207/2/3
f 209/1/3 205/1/3 208/1/3
f 210/2/4 211/2/4 212/2/4
f 212/2/4 211/2/4 213/2/4
f 214/3/4 215/3/4 216/3/4
f 216/3/4 215/3/4 217/3/4
f 218/2/4 219/2/4 225/2/4
f 219/3/4 220/3/4 226/3/4
f 225/2/4 219/2/4 226/2/4
f 220/2/4 221/2/4 227/2/4
f 226/3/4 220/3/4 227/3/4
f 221/1/4 222/1/4 228/1/4
f 227/2/4 221/2/4 228/2/4
f 222/2/4 223/2/4 229/2/4
f 228/1/4 222/1/4 229/1/4
f 223/1/4 224/1/4 230/1/4
f 229/2/4 223/2/4 230/2/4
f 230/1/4 224/1/4 231/1/4
f 232/3/4 233/3/4 235/3/4
f 233/3/4 234/3/4 235/3/4
f 235/3/4 234/3/4 236/3/4
f 237/2/4 238/2/4 244/2/4
f 238/3/4 239/3/4 245/3/4
f 244/2/4 238/2/4 245/2/4
f 239/2/4 240/2/4 246/2/4
f 245/3/4 239/3/4 246/3/4
f 240/1/4 241/1/4 247/1/4
f 246/2/4 240/2/4 247/2/4
f 241/2/4 242/2/4 248/2/4
f 247/1/4 241/1/4 248/1/4
f 242/1/4 243/1/4 249/1/4
f 248/2/4 242/2/4 249/2/4
f 249/1/4 243/1/4 250/1/4
f 256/1/4 257/1/4 258/1/4
f 253/2/4 254/2/4 260/2/4
f 254/1/4 255/1/4 260/1/4
f 255/2/4 256/2/4 261/2/4
f 260/1/4 255/1/4 261/1/4
f 258/1/4 259/1/4 262/1/4
f 261/2/4 256/2/4 262/2/4
f 256/1/4 258/1/4 262/1/4
f 262/1/4 259/1/4 263/1/4
f 260/2/4 261/2/4 264/2/4
f 253/2/4 260/2/4 264/2/4
f 262/2/4 263/2/4 264/2/4
f 261/2/4 262/2/4 264/2/4
f 264/2/4 263/2/4 265/2/4
f 265/2/4 263/2/4 266/2/4
f 266/2/4 263/2/4 267/2/4
f 266/1/4 267/1/4 268/1/4
f 268/1/4 267/1/4 269/1/4
f 251/2/4 252/2/4 270/2/4
f 252/3/4 253/3/4 271/3/4
f 270/2/4 252/2/4 271/2/4
f 253/2/4 264/2/4 272/2/4
f 271/3/4 253/3/4 272/3/4
f 264/1/4 265/1/4 273/1/4
f 272/2/4 264/2/4 273/2/4
f 265/2/4 266/2/4 274/2/4
f 273/1/4 265/1/4 274/1/4
f 266/1/4 268/1/4 275/1/4
f 274/2/4 266/2/4 275/2/4
f 275/1/4 268/1/4 276/1/4
f 279/3/5 278/3/5 277/3/5
f 280/3/5 278/3/5 279/3/5
f 284/1/5 282/1/5 281/1/5
f 285/1/5 282/1/5 284/1/5
f 287/1/5 285/1/5 284/1/5
f 288/1/5 285/1/5 287/1/5
f 289/1/5 287/1/5 284/1/5
f 290/1/5 285/1/5 288/1/5
f 291/2/5 284/2/5 283/2/5
f 291/1/5 290/1/5 289/1/5
f 291/1/5 289/1/5 284/1/5
f 292/1/5 285/1/5 290/1/5
f 292/1/5 290/1/5 291/1/5
f 292/2/5 286/2/5 285/2/5
f 293/2/5 291/2/5 283/2/5
f 293/2/5 292/2/5 291/2/5
f 294/2/5 292/2/5 293/2/5
f 295/2/5 286/2/5 292/2/5
f 295/2/5 292/2/5 294/2/5
f 296/2/5 286/2/5 295/2/5
f 297/2/5 295/2/5 294/2/5
f 298/2/5 295/2/5 297/2/5
f 301/2/5 300/2/5 299/2/5
f 302/2/5 300/2/5 301/2/5
f 305/1/5 304/1/5 303/1/5
f 306/1/5 304/1/5 305/1/5
f 307/1/5 304/1/5 306/1/5
f 308/1/5 305/1/5 303/1/5
f 309/2/5 306/2/5 305/2/5
f 309/1/5 305/1/5 308/1/5
f 310/1/5 307/1/5 306/1/5
f 310/2/5 306/2/5 309/2/5
f 311/1/5 307/1/5 310/1/5
f 312/1/6 313/1/6 315/1/6
f 315/1/6 313/1/6 316/1/6
f 314/2/6 315/2/6 318/2/6
f 315/1/6 316/1/6 319/1/6
f 318/2/6 315/2/6 319/2/6
f 316/2/6 317/2/6 320/2/6
f 319/1/6 316/1/6 320/1/6
f 320/2/6 317/2/6 321/2/6
f 322/1/6 323/1/6 324/1/6
f 324/1/6 323/1/6 325/1/6
f 322/1/6 324/1/6 326/1/6
f 324/2/6 325/2/6 326/2/6
f 325/1/6 323/1/6 327/1/6
f 326/2/6 325/2/6 327/2/6
f 322/1/6 326/1/6 328/1/6
f 326/1/6 327/1/6 328/1/6
f 327/1/6 323/1/6 329/1/6
f 328/1/6 327/1/6 329/1/6
f 328/2/6 329/2/6 330/2/6
f 330/2/6 329/2/6 331/2/6
f 332/2/6 333/2/6 334/2/6
f 334/2/6 333/2/6 335/2/6
f 334/2/6 335/2/6 336/2/6
f 336/2/6 335/2/6 337/2/6
f 334/2/6 336/2/6 338/2/6
f 338/2/6 336/2/6 339/2/6
f 339/2/6 336/2/6 340/2/6
f 340/2/6 336/2/6 341/2/6
f 337/2/6 335/2/6 342/2/6
f 342/2/6 335/2/6 343/2/6
f 344/1/6 345/1/6 350/1/6
f 345/2/6 346/2/6 350/2/6
f 350/2/6 346/2/6 351/2/6
f 347/2/6 348/2/6 352/2/6
f 348/1/6 349/1/6 353/1/6
f 352/2/6 348/2/6 353/2/6
f 350/1/6 351/1/6 354/1/6
f 344/1/6 350/1/6 354/1/6
f 354/1/6 351/1/6 355/1/6
f 355/1/6 351/1/6 356/1/6
f 352/1/6 353/1/6 360/1/6
f 353/1/6 349/1/6 361/1/6
f 360/1/6 353/1/6 361/1/6
f 361/1/6 349/1/6 362/1/6
f 355/1/6 356/1/6 363/1/6
f 356/1/6 357/1/6 363/1/6
f 363/1/6 357/1/6 364/1/6
f 359/1/6 360/1/6 365/1/6
f 358/1/6 359/1/6 365/1/6
f 360/1/6 361/1/6 365/1/6
f 365/1/6 361/1/6 366/1/6
f 367/1/6 368/1/6 369/1/6
f 369/1/6 368/1/6 370/1/6
f 370/1/6 368/1/6 371/1/6
f 370/1/6 371/1/6 372/1/6
f 367/1/6 369/1/6 373/1/6
f 369/2/6 370/2/6 374/2/6
f 373/1/6 369/1/6 374/1/6
f 370/1/6 372/1/6 375/1/6
f 374/2/6 370/2/6 375/2/6
f 375/1/6 372/1/6 376/1/6
f 377/3/6 378/3/6 379/3/6
f 379/3/6 378/3/6 380/3/6
