# MagicaVoxel @ ephtracy

# material
mtllib Cannon.mtl
usemtl palette

# normals
vn -1 0 0
vn 1 0 0
vn 0 0 1
vn 0 0 -1
vn 0 -1 0
vn 0 1 0

# texcoords
vt 0.380859 0.5
vt 0.384766 0.5
vt 0.388672 0.5
vt 0.443359 0.5
vt 0.447266 0.5

# verts
v -1.5 0 11.5
v -1.5 0 10.5
v -1.5 0 8.5
v -1.5 0 7.5
v -1.5 0 6.5
v -1.5 0 5.5
v -1.5 0 4.5
v -1.5 0 3.5
v -1.5 0 2.5
v -1.5 1 10.5
v -1.5 1 9.5
v -1.5 1 8.5
v -1.5 1 7.5
v -1.5 1 6.5
v -1.5 1 5.5
v -1.5 1 4.5
v -1.5 1 3.5
v -1.5 1 2.5
v -1.5 1 0.5
v -1.5 1 -10.5
v -1.5 1 -11.5
v -1.5 2 10.5
v -1.5 2 9.5
v -1.5 2 8.5
v -1.5 2 7.5
v -1.5 2 6.5
v -1.5 2 5.5
v -1.5 2 4.5
v -1.5 2 3.5
v -1.5 2 2.5
v -1.5 2 0.5
v -1.5 2 -10.5
v -1.5 2 -11.5
v -1.5 3 11.5
v -1.5 3 10.5
v -1.5 3 8.5
v -1.5 3 7.5
v -1.5 3 6.5
v -1.5 3 5.5
v -1.5 3 4.5
v -1.5 3 3.5
v -1.5 3 2.5
v -0.5 0 8.5
v -0.5 0 7.5
v -0.5 0 6.5
v -0.5 0 5.5
v -0.5 0 4.5
v -0.5 0 3.5
v -0.5 0 2.5
v -0.5 0 0.5
v -0.5 0 -10.5
v -0.5 0 -11.5
v -0.5 1 8.5
v -0.5 1 7.5
v -0.5 1 6.5
v -0.5 1 5.5
v -0.5 1 4.5
v -0.5 1 3.5
v -0.5 1 2.5
v -0.5 1 0.5
v -0.5 1 -10.5
v -0.5 1 -11.5
v -0.5 2 8.5
v -0.5 2 7.5
v -0.5 2 6.5
v -0.5 2 5.5
v -0.5 2 4.5
v -0.5 2 3.5
v -0.5 2 2.5
v -0.5 2 0.5
v -0.5 2 -10.5
v -0.5 2 -11.5
v -0.5 3 8.5
v -0.5 3 7.5
v -0.5 3 6.5
v -0.5 3 5.5
v -0.5 3 4.5
v -0.5 3 3.5
v -0.5 3 2.5
v -0.5 3 0.5
v -0.5 3 -10.5
v -0.5 3 -11.5
v 0.5 0 8.5
v 0.5 0 7.5
v 0.5 0 6.5
v 0.5 0 5.5
v 0.5 0 4.5
v 0.5 0 3.5
v 0.5 0 2.5
v 0.5 0 0.5
v 0.5 0 -10.5
v 0.5 0 -11.5
v 0.5 1 8.5
v 0.5 1 7.5
v 0.5 1 6.5
v 0.5 1 5.5
v 0.5 1 4.5
v 0.5 1 3.5
v 0.5 1 2.5
v 0.5 1 0.5
v 0.5 1 -10.5
v 0.5 1 -11.5
v 0.5 2 8.5
v 0.5 2 7.5
v 0.5 2 6.5
v 0.5 2 5.5
v 0.5 2 4.5
v 0.5 2 3.5
v 0.5 2 2.5
v 0.5 2 0.5
v 0.5 2 -10.5
v 0.5 2 -11.5
v 0.5 3 8.5
v 0.5 3 7.5
v 0.5 3 6.5
v 0.5 3 5.5
v 0.5 3 4.5
v 0.5 3 3.5
v 0.5 3 2.5
v 0.5 3 0.5
v 0.5 3 -10.5
v 0.5 3 -11.5
v 1.5 0 11.5
v 1.5 0 10.5
v 1.5 0 8.5
v 1.5 0 7.5
v 1.5 0 6.5
v 1.5 0 5.5
v 1.5 0 4.5
v 1.5 0 3.5
v 1.5 0 2.5
v 1.5 1 10.5
v 1.5 1 9.5
v 1.5 1 8.5
v 1.5 1 7.5
v 1.5 1 6.5
v 1.5 1 5.5
v 1.5 1 4.5
v 1.5 1 3.5
v 1.5 1 2.5
v 1.5 1 0.5
v 1.5 1 -10.5
v 1.5 1 -11.5
v 1.5 2 10.5
v 1.5 2 9.5
v 1.5 2 8.5
v 1.5 2 7.5
v 1.5 2 6.5
v 1.5 2 5.5
v 1.5 2 4.5
v 1.5 2 3.5
v 1.5 2 2.5
v 1.5 2 0.5
v 1.5 2 -10.5
v 1.5 2 -11.5
v 1.5 3 11.5
v 1.5 3 10.5
v 1.5 3 8.5
v 1.5 3 7.5
v 1.5 3 6.5
v 1.5 3 5.5
v 1.5 3 4.5
v 1.5 3 3.5
v 1.5 3 2.5
v -1.5 0 11.5
v -1.5 3 11.5
v -0.5 1 11.5
v -0.5 2 11.5
v 0.5 1 11.5
v 0.5 2 11.5
v 1.5 0 11.5
v 1.5 3 11.5
v -1.5 0 7.5
v -1.5 1 7.5
v -1.5 2 7.5
v -1.5 3 7.5
v -0.5 0 7.5
v -0.5 1 7.5
v -0.5 2 7.5
v -0.5 3 7.5
v 0.5 0 7.5
v 0.5 1 7.5
v 0.5 2 7.5
v 0.5 3 7.5
v 1.5 0 7.5
v 1.5 1 7.5
v 1.5 2 7.5
v 1.5 3 7.5
v -1.5 0 5.5
v -1.5 1 5.5
v -1.5 2 5.5
v -1.5 3 5.5
v -0.5 0 5.5
v -0.5 1 5.5
v -0.5 2 5.5
v -0.5 3 5.5
v 0.5 0 5.5
v 0.5 1 5.5
v 0.5 2 5.5
v 0.5 3 5.5
v 1.5 0 5.5
v 1.5 1 5.5
v 1.5 2 5.5
v 1.5 3 5.5
v -1.5 0 3.5
v -1.5 1 3.5
v -1.5 2 3.5
v -1.5 3 3.5
v -0.5 0 3.5
v -0.5 1 3.5
v -0.5 2 3.5
v -0.5 3 3.5
v 0.5 0 3.5
v 0.5 1 3.5
v 0.5 2 3.5
v 0.5 3 3.5
v 1.5 0 3.5
v 1.5 1 3.5
v 1.5 2 3.5
v 1.5 3 3.5
v -1.5 0 8.5
v -1.5 1 8.5
v -1.5 2 8.5
v -1.5 3 8.5
v -0.5 0 8.5
v -0.5 1 8.5
v -0.5 2 8.5
v -0.5 3 8.5
v 0.5 0 8.5
v 0.5 1 8.5
v 0.5 2 8.5
v 0.5 3 8.5
v 1.5 0 8.5
v 1.5 1 8.5
v 1.5 2 8.5
v 1.5 3 8.5
v -1.5 0 6.5
v -1.5 1 6.5
v -1.5 2 6.5
v -1.5 3 6.5
v -0.5 0 6.5
v -0.5 1 6.5
v -0.5 2 6.5
v -0.5 3 6.5
v 0.5 0 6.5
v 0.5 1 6.5
v 0.5 2 6.5
v 0.5 3 6.5
v 1.5 0 6.5
v 1.5 1 6.5
v 1.5 2 6.5
v 1.5 3 6.5
v -1.5 0 4.5
v -1.5 1 4.5
v -1.5 2 4.5
v -1.5 3 4.5
v -0.5 0 4.5
v -0.5 1 4.5
v -0.5 2 4.5
v -0.5 3 4.5
v 0.5 0 4.5
v 0.5 1 4.5
v 0.5 2 4.5
v 0.5 3 4.5
v 1.5 0 4.5
v 1.5 1 4.5
v 1.5 2 4.5
v 1.5 3 4.5
v -1.5 0 2.5
v -1.5 1 2.5
v -1.5 2 2.5
v -1.5 3 2.5
v -0.5 0 2.5
v -0.5 1 2.5
v -0.5 2 2.5
v -0.5 3 2.5
v 0.5 0 2.5
v 0.5 1 2.5
v 0.5 2 2.5
v 0.5 3 2.5
v 1.5 0 2.5
v 1.5 1 2.5
v 1.5 2 2.5
v 1.5 3 2.5
v -1.5 1 -11.5
v -1.5 2 -11.5
v -0.5 0 -11.5
v -0.5 1 -11.5
v -0.5 2 -11.5
v -0.5 3 -11.5
v 0.5 0 -11.5
v 0.5 1 -11.5
v 0.5 2 -11.5
v 0.5 3 -11.5
v 1.5 1 -11.5
v 1.5 2 -11.5
v -1.5 0 11.5
v 1.5 0 11.5
v -1.5 0 10.5
v -0.5 0 10.5
v 0.5 0 10.5
v 1.5 0 10.5
v -0.5 0 9.5
v 0.5 0 9.5
v -1.5 0 8.5
v -0.5 0 8.5
v 0.5 0 8.5
v 1.5 0 8.5
v -1.5 0 7.5
v -0.5 0 7.5
v 0.5 0 7.5
v 1.5 0 7.5
v -1.5 0 6.5
v -0.5 0 6.5
v 0.5 0 6.5
v 1.5 0 6.5
v -1.5 0 5.5
v -0.5 0 5.5
v 0.5 0 5.5
v 1.5 0 5.5
v -1.5 0 4.5
v -0.5 0 4.5
v 0.5 0 4.5
v 1.5 0 4.5
v -1.5 0 3.5
v -0.5 0 3.5
v 0.5 0 3.5
v 1.5 0 3.5
v -1.5 0 2.5
v -0.5 0 2.5
v 0.5 0 2.5
v 1.5 0 2.5
v -0.5 0 0.5
v 0.5 0 0.5
v -0.5 0 -10.5
v 0.5 0 -10.5
v -0.5 0 -11.5
v 0.5 0 -11.5
v -1.5 1 8.5
v -0.5 1 8.5
v 0.5 1 8.5
v 1.5 1 8.5
v -1.5 1 7.5
v -0.5 1 7.5
v 0.5 1 7.5
v 1.5 1 7.5
v -1.5 1 6.5
v -0.5 1 6.5
v 0.5 1 6.5
v 1.5 1 6.5
v -1.5 1 5.5
v -0.5 1 5.5
v 0.5 1 5.5
v 1.5 1 5.5
v -1.5 1 4.5
v -0.5 1 4.5
v 0.5 1 4.5
v 1.5 1 4.5
v -1.5 1 3.5
v -0.5 1 3.5
v 0.5 1 3.5
v 1.5 1 3.5
v -1.5 1 2.5
v -0.5 1 2.5
v 0.5 1 2.5
v 1.5 1 2.5
v -1.5 1 0.5
v -0.5 1 0.5
v 0.5 1 0.5
v 1.5 1 0.5
v -1.5 1 -10.5
v -0.5 1 -10.5
v 0.5 1 -10.5
v 1.5 1 -10.5
v -1.5 1 -11.5
v -0.5 1 -11.5
v 0.5 1 -11.5
v 1.5 1 -11.5
v -1.5 2 8.5
v -0.5 2 8.5
v 0.5 2 8.5
v 1.5 2 8.5
v -1.5 2 7.5
v -0.5 2 7.5
v 0.5 2 7.5
v 1.5 2 7.5
v -1.5 2 6.5
v -0.5 2 6.5
v 0.5 2 6.5
v 1.5 2 6.5
v -1.5 2 5.5
v -0.5 2 5.5
v 0.5 2 5.5
v 1.5 2 5.5
v -1.5 2 4.5
v -0.5 2 4.5
v 0.5 2 4.5
v 1.5 2 4.5
v -1.5 2 3.5
v -0.5 2 3.5
v 0.5 2 3.5
v 1.5 2 3.5
v -1.5 2 2.5
v -0.5 2 2.5
v 0.5 2 2.5
v 1.5 2 2.5
v -1.5 2 0.5
v -0.5 2 0.5
v 0.5 2 0.5
v 1.5 2 0.5
v -1.5 2 -10.5
v -0.5 2 -10.5
v 0.5 2 -10.5
v 1.5 2 -10.5
v -1.5 2 -11.5
v -0.5 2 -11.5
v 0.5 2 -11.5
v 1.5 2 -11.5
v -1.5 3 11.5
v 1.5 3 11.5
v -1.5 3 10.5
v -0.5 3 10.5
v 0.5 3 10.5
v 1.5 3 10.5
v -0.5 3 9.5
v 0.5 3 9.5
v -1.5 3 8.5
v -0.5 3 8.5
v 0.5 3 8.5
v 1.5 3 8.5
v -1.5 3 7.5
v -0.5 3 7.5
v 0.5 3 7.5
v 1.5 3 7.5
v -1.5 3 6.5
v -0.5 3 6.5
v 0.5 3 6.5
v 1.5 3 6.5
v -1.5 3 5.5
v -0.5 3 5.5
v 0.5 3 5.5
v 1.5 3 5.5
v -1.5 3 4.5
v -0.5 3 4.5
v 0.5 3 4.5
v 1.5 3 4.5
v -1.5 3 3.5
v -0.5 3 3.5
v 0.5 3 3.5
v 1.5 3 3.5
v -1.5 3 2.5
v -0.5 3 2.5
v 0.5 3 2.5
v 1.5 3 2.5
v -0.5 3 0.5
v 0.5 3 0.5
v -0.5 3 -10.5
v 0.5 3 -10.5
v -0.5 3 -11.5
v 0.5 3 -11.5

# faces
f 10/3/1 2/3/1 1/3/1
f 10/2/1 3/2/1 2/2/1
f 11/2/1 3/2/1 10/2/1
f 12/2/1 3/2/1 11/2/1
f 13/3/1 5/3/1 4/3/1
f 14/3/1 5/3/1 13/3/1
f 15/2/1 7/2/1 6/2/1
f 16/2/1 7/2/1 15/2/1
f 17/1/1 9/1/1 8/1/1
f 18/1/1 9/1/1 17/1/1
f 22/3/1 10/3/1 1/3/1
f 22/3/1 11/3/1 10/3/1
f 23/2/1 12/2/1 11/2/1
f 23/3/1 11/3/1 22/3/1
f 24/5/1 13/5/1 12/5/1
f 24/2/1 12/2/1 23/2/1
f 25/3/1 14/3/1 13/3/1
f 25/5/1 13/5/1 24/5/1
f 26/5/1 15/5/1 14/5/1
f 26/3/1 14/3/1 25/3/1
f 27/2/1 16/2/1 15/2/1
f 27/5/1 15/5/1 26/5/1
f 28/5/1 17/5/1 16/5/1
f 28/2/1 16/2/1 27/2/1
f 29/1/1 18/1/1 17/1/1
f 29/5/1 17/5/1 28/5/1
f 30/5/1 19/5/1 18/5/1
f 30/1/1 18/1/1 29/1/1
f 31/4/1 20/4/1 19/4/1
f 31/5/1 19/5/1 30/5/1
f 32/5/1 21/5/1 20/5/1
f 32/4/1 20/4/1 31/4/1
f 33/5/1 21/5/1 32/5/1
f 34/3/1 22/3/1 1/3/1
f 35/2/1 24/2/1 23/2/1
f 35/3/1 22/3/1 34/3/1
f 35/2/1 23/2/1 22/2/1
f 36/2/1 24/2/1 35/2/1
f 37/3/1 26/3/1 25/3/1
f 38/3/1 26/3/1 37/3/1
f 39/2/1 28/2/1 27/2/1
f 40/2/1 28/2/1 39/2/1
f 41/1/1 30/1/1 29/1/1
f 42/1/1 30/1/1 41/1/1
f 53/5/1 44/5/1 43/5/1
f 54/5/1 44/5/1 53/5/1
f 55/5/1 46/5/1 45/5/1
f 56/5/1 46/5/1 55/5/1
f 57/5/1 48/5/1 47/5/1
f 58/5/1 48/5/1 57/5/1
f 59/5/1 50/5/1 49/5/1
f 60/4/1 51/4/1 50/4/1
f 60/5/1 50/5/1 59/5/1
f 61/5/1 52/5/1 51/5/1
f 61/4/1 51/4/1 60/4/1
f 62/5/1 52/5/1 61/5/1
f 73/5/1 64/5/1 63/5/1
f 74/5/1 64/5/1 73/5/1
f 75/5/1 66/5/1 65/5/1
f 76/5/1 66/5/1 75/5/1
f 77/5/1 68/5/1 67/5/1
f 78/5/1 68/5/1 77/5/1
f 79/5/1 70/5/1 69/5/1
f 80/4/1 71/4/1 70/4/1
f 80/5/1 70/5/1 79/5/1
f 81/5/1 72/5/1 71/5/1
f 81/4/1 71/4/1 80/4/1
f 82/5/1 72/5/1 81/5/1
f 83/5/2 84/5/2 93/5/2
f 93/5/2 84/5/2 94/5/2
f 85/5/2 86/5/2 95/5/2
f 95/5/2 86/5/2 96/5/2
f 87/5/2 88/5/2 97/5/2
f 97/5/2 88/5/2 98/5/2
f 89/5/2 90/5/2 99/5/2
f 90/4/2 91/4/2 100/4/2
f 99/5/2 90/5/2 100/5/2
f 91/5/2 92/5/2 101/5/2
f 100/4/2 91/4/2 101/4/2
f 101/5/2 92/5/2 102/5/2
f 103/5/2 104/5/2 113/5/2
f 113/5/2 104/5/2 114/5/2
f 105/5/2 106/5/2 115/5/2
f 115/5/2 106/5/2 116/5/2
f 107/5/2 108/5/2 117/5/2
f 117/5/2 108/5/2 118/5/2
f 109/5/2 110/5/2 119/5/2
f 110/4/2 111/4/2 120/4/2
f 119/5/2 110/5/2 120/5/2
f 111/5/2 112/5/2 121/5/2
f 120/4/2 111/4/2 121/4/2
f 121/5/2 112/5/2 122/5/2
f 123/3/2 124/3/2 132/3/2
f 124/2/2 125/2/2 132/2/2
f 132/2/2 125/2/2 133/2/2
f 133/2/2 125/2/2 134/2/2
f 126/3/2 127/3/2 135/3/2
f 135/3/2 127/3/2 136/3/2
f 128/2/2 129/2/2 137/2/2
f 137/2/2 129/2/2 138/2/2
f 130/1/2 131/1/2 139/1/2
f 139/1/2 131/1/2 140/1/2
f 123/3/2 132/3/2 144/3/2
f 132/3/2 133/3/2 144/3/2
f 133/2/2 134/2/2 145/2/2
f 144/3/2 133/3/2 145/3/2
f 134/5/2 135/5/2 146/5/2
f 145/2/2 134/2/2 146/2/2
f 135/3/2 136/3/2 147/3/2
f 146/5/2 135/5/2 147/5/2
f 136/5/2 137/5/2 148/5/2
f 147/3/2 136/3/2 148/3/2
f 137/2/2 138/2/2 149/2/2
f 148/5/2 137/5/2 149/5/2
f 138/5/2 139/5/2 150/5/2
f 149/2/2 138/2/2 150/2/2
f 139/1/2 140/1/2 151/1/2
f 150/5/2 139/5/2 151/5/2
f 140/5/2 141/5/2 152/5/2
f 151/1/2 140/1/2 152/1/2
f 141/4/2 142/4/2 153/4/2
f 152/5/2 141/5/2 153/5/2
f 142/5/2 143/5/2 154/5/2
f 153/4/2 142/4/2 154/4/2
f 154/5/2 143/5/2 155/5/2
f 123/3/2 144/3/2 156/3/2
f 145/2/2 146/2/2 157/2/2
f 156/3/2 144/3/2 157/3/2
f 144/2/2 145/2/2 157/2/2
f 157/2/2 146/2/2 158/2/2
f 147/3/2 148/3/2 159/3/2
f 159/3/2 148/3/2 160/3/2
f 149/2/2 150/2/2 161/2/2
f 161/2/2 150/2/2 162/2/2
f 151/1/2 152/1/2 163/1/2
f 163/1/2 152/1/2 164/1/2
f 167/3/3 166/3/3 165/3/3
f 168/3/3 166/3/3 167/3/3
f 169/3/3 167/3/3 165/3/3
f 169/2/3 168/2/3 167/2/3
f 170/3/3 166/3/3 168/3/3
f 170/2/3 168/2/3 169/2/3
f 171/3/3 169/3/3 165/3/3
f 171/3/3 170/3/3 169/3/3
f 172/3/3 166/3/3 170/3/3
f 172/3/3 170/3/3 171/3/3
f 177/3/3 174/3/3 173/3/3
f 178/3/3 174/3/3 177/3/3
f 179/3/3 176/3/3 175/3/3
f 180/3/3 176/3/3 179/3/3
f 185/3/3 182/3/3 181/3/3
f 186/3/3 182/3/3 185/3/3
f 187/3/3 184/3/3 183/3/3
f 188/3/3 184/3/3 187/3/3
f 193/2/3 190/2/3 189/2/3
f 194/2/3 190/2/3 193/2/3
f 195/2/3 192/2/3 191/2/3
f 196/2/3 192/2/3 195/2/3
f 201/2/3 198/2/3 197/2/3
f 202/2/3 198/2/3 201/2/3
f 203/2/3 200/2/3 199/2/3
f 204/2/3 200/2/3 203/2/3
f 209/1/3 206/1/3 205/1/3
f 210/1/3 206/1/3 209/1/3
f 211/1/3 208/1/3 207/1/3
f 212/1/3 208/1/3 211/1/3
f 217/1/3 214/1/3 213/1/3
f 218/1/3 214/1/3 217/1/3
f 219/1/3 216/1/3 215/1/3
f 220/1/3 216/1/3 219/1/3
f 221/2/4 222/2/4 225/2/4
f 225/2/4 222/2/4 226/2/4
f 223/2/4 224/2/4 227/2/4
f 227/2/4 224/2/4 228/2/4
f 229/2/4 230/2/4 233/2/4
f 233/2/4 230/2/4 234/2/4
f 231/2/4 232/2/4 235/2/4
f 235/2/4 232/2/4 236/2/4
f 237/3/4 238/3/4 241/3/4
f 241/3/4 238/3/4 242/3/4
f 239/3/4 240/3/4 243/3/4
f 243/3/4 240/3/4 244/3/4
f 245/3/4 246/3/4 249/3/4
f 249/3/4 246/3/4 250/3/4
f 247/3/4 248/3/4 251/3/4
f 251/3/4 248/3/4 252/3/4
f 253/2/4 254/2/4 257/2/4
f 257/2/4 254/2/4 258/2/4
f 255/2/4 256/2/4 259/2/4
f 259/2/4 256/2/4 260/2/4
f 261/2/4 262/2/4 265/2/4
f 265/2/4 262/2/4 266/2/4
f 263/2/4 264/2/4 267/2/4
f 267/2/4 264/2/4 268/2/4
f 269/1/4 270/1/4 273/1/4
f 273/1/4 270/1/4 274/1/4
f 271/1/4 272/1/4 275/1/4
f 275/1/4 272/1/4 276/1/4
f 277/1/4 278/1/4 281/1/4
f 281/1/4 278/1/4 282/1/4
f 279/1/4 280/1/4 283/1/4
f 283/1/4 280/1/4 284/1/4
f 285/5/4 286/5/4 288/5/4
f 288/5/4 286/5/4 289/5/4
f 287/5/4 288/5/4 291/5/4
f 289/5/4 290/5/4 291/5/4
f 288/5/4 289/5/4 291/5/4
f 291/5/4 290/5/4 292/5/4
f 292/5/4 290/5/4 293/5/4
f 293/5/4 290/5/4 294/5/4
f 292/5/4 293/5/4 295/5/4
f 295/5/4 293/5/4 296/5/4
f 299/3/5 298/3/5 297/3/5
f 300/3/5 298/3/5 299/3/5
f 301/3/5 298/3/5 300/3/5
f 302/3/5 298/3/5 301/3/5
f 303/2/5 300/2/5 299/2/5
f 303/3/5 301/3/5 300/3/5
f 304/2/5 302/2/5 301/2/5
f 304/3/5 301/3/5 303/3/5
f 305/2/5 303/2/5 299/2/5
f 305/2/5 304/2/5 303/2/5
f 306/2/5 304/2/5 305/2/5
f 307/2/5 302/2/5 304/2/5
f 307/2/5 304/2/5 306/2/5
f 308/2/5 302/2/5 307/2/5
f 310/5/5 307/5/5 306/5/5
f 311/5/5 307/5/5 310/5/5
f 313/3/5 310/3/5 309/3/5
f 313/3/5 312/3/5 311/3/5
f 313/3/5 311/3/5 310/3/5
f 314/3/5 312/3/5 313/3/5
f 315/3/5 312/3/5 314/3/5
f 316/3/5 312/3/5 315/3/5
f 318/5/5 315/5/5 314/5/5
f 319/5/5 315/5/5 318/5/5
f 321/2/5 318/2/5 317/2/5
f 321/2/5 320/2/5 319/2/5
f 321/2/5 319/2/5 318/2/5
f 322/2/5 320/2/5 321/2/5
f 323/2/5 320/2/5 322/2/5
f 324/2/5 320/2/5 323/2/5
f 326/5/5 323/5/5 322/5/5
f 327/5/5 323/5/5 326/5/5
f 329/1/5 326/1/5 325/1/5
f 329/1/5 328/1/5 327/1/5
f 329/1/5 327/1/5 326/1/5
f 330/1/5 328/1/5 329/1/5
f 331/1/5 328/1/5 330/1/5
f 332/1/5 328/1/5 331/1/5
f 333/5/5 331/5/5 330/5/5
f 334/5/5 331/5/5 333/5/5
f 335/4/5 334/4/5 333/4/5
f 336/4/5 334/4/5 335/4/5
f 337/5/5 336/5/5 335/5/5
f 338/5/5 336/5/5 337/5/5
f 343/5/5 340/5/5 339/5/5
f 344/5/5 340/5/5 343/5/5
f 345/5/5 342/5/5 341/5/5
f 346/5/5 342/5/5 345/5/5
f 351/5/5 348/5/5 347/5/5
f 352/5/5 348/5/5 351/5/5
f 353/5/5 350/5/5 349/5/5
f 354/5/5 350/5/5 353/5/5
f 359/5/5 356/5/5 355/5/5
f 360/5/5 356/5/5 359/5/5
f 361/5/5 358/5/5 357/5/5
f 362/5/5 358/5/5 361/5/5
f 367/5/5 364/5/5 363/5/5
f 368/5/5 364/5/5 367/5/5
f 369/5/5 366/5/5 365/5/5
f 370/5/5 366/5/5 369/5/5
f 371/4/5 368/4/5 367/4/5
f 372/4/5 368/4/5 371/4/5
f 373/4/5 370/4/5 369/4/5
f 374/4/5 370/4/5 373/4/5
f 375/5/5 372/5/5 371/5/5
f 376/5/5 372/5/5 375/5/5
f 377/5/5 374/5/5 373/5/5
f 378/5/5 374/5/5 377/5/5
f 379/5/6 380/5/6 383/5/6
f 383/5/6 380/5/6 384/5/6
f 381/5/6 382/5/6 385/5/6
f 385/5/6 382/5/6 386/5/6
f 387/5/6 388/5/6 391/5/6
f 391/5/6 388/5/6 392/5/6
f 389/5/6 390/5/6 393/5/6
f 393/5/6 390/5/6 394/5/6
f 395/5/6 396/5/6 399/5/6
f 399/5/6 396/5/6 400/5/6
f 397/5/6 398/5/6 401/5/6
f 401/5/6 398/5/6 402/5/6
f 403/5/6 404/5/6 407/5/6
f 407/5/6 404/5/6 408/5/6
f 405/5/6 406/5/6 409/5/6
f 409/5/6 406/5/6 410/5/6
f 407/4/6 408/4/6 411/4/6
f 411/4/6 408/4/6 412/4/6
f 409/4/6 410/4/6 413/4/6
f 413/4/6 410/4/6 414/4/6
f 411/5/6 412/5/6 415/5/6
f 415/5/6 412/5/6 416/5/6
f 413/5/6 414/5/6 417/5/6
f 417/5/6 414/5/6 418/5/6
f 419/3/6 420/3/6 421/3/6
f 421/3/6 420/3/6 422/3/6
f 422/3/6 420/3/6 423/3/6
f 423/3/6 420/3/6 424/3/6
f 421/2/6 422/2/6 425/2/6
f 422/3/6 423/3/6 425/3/6
f 423/2/6 424/2/6 426/2/6
f 425/3/6 423/3/6 426/3/6
f 421/2/6 425/2/6 427/2/6
f 425/2/6 426/2/6 427/2/6
f 427/2/6 426/2/6 428/2/6
f 426/2/6 424/2/6 429/2/6
f 428/2/6 426/2/6 429/2/6
f 429/2/6 424/2/6 430/2/6
f 428/5/6 429/5/6 432/5/6
f 432/5/6 429/5/6 433/5/6
f 431/3/6 432/3/6 435/3/6
f 433/3/6 434/3/6 435/3/6
f 432/3/6 433/3/6 435/3/6
f 435/3/6 434/3/6 436/3/6
f 436/3/6 434/3/6 437/3/6
f 437/3/6 434/3/6 438/3/6
f 436/5/6 437/5/6 440/5/6
f 440/5/6 437/5/6 441/5/6
f 439/2/6 440/2/6 443/2/6
f 441/2/6 442/2/6 443/2/6
f 440/2/6 441/2/6 443/2/6
f 443/2/6 442/2/6 444/2/6
f 444/2/6 442/2/6 445/2/6
f 445/2/6 442/2/6 446/2/6
f 444/5/6 445/5/6 448/5/6
f 448/5/6 445/5/6 449/5/6
f 447/1/6 448/1/6 451/1/6
f 449/1/6 450/1/6 451/1/6
f 448/1/6 449/1/6 451/1/6
f 451/1/6 450/1/6 452/1/6
f 452/1/6 450/1/6 453/1/6
f 453/1/6 450/1/6 454/1/6
f 452/5/6 453/5/6 455/5/6
f 455/5/6 453/5/6 456/5/6
f 455/4/6 456/4/6 457/4/6
f 457/4/6 456/4/6 458/4/6
f 457/5/6 458/5/6 459/5/6
f 459/5/6 458/5/6 460/5/6
