# MagicaVoxel @ ephtracy

# material
mtllib Cover.mtl
usemtl palette

# normals
vn -1 0 0
vn 1 0 0
vn 0 0 1
vn 0 0 -1
vn 0 -1 0
vn 0 1 0

# texcoords
vt 0.298828 0.5
vt 0.482422 0.5
vt 0.490234 0.5
vt 0.544922 0.5

# verts
v -7.5 0 13
v -7.5 0 11
v -7.5 0 5
v -7.5 0 4
v -7.5 0 1
v -7.5 0 -0
v -7.5 0 -12
v -7.5 0 -13
v -7.5 1 -0
v -7.5 1 -12
v -7.5 2 11
v -7.5 2 5
v -7.5 2 1
v -7.5 2 -13
v -7.5 3 13
v -7.5 3 4
v -6.5 2 -4
v -6.5 2 -10
v -6.5 5 -4
v -6.5 5 -10
v -5.5 2 -1
v -5.5 2 -4
v -5.5 4 -1
v -5.5 4 -4
v -3.5 1 11
v -3.5 1 5
v -3.5 2 11
v -3.5 2 5
v -3.5 2 -10
v -3.5 2 -12
v -3.5 4 -1
v -3.5 4 -4
v -3.5 5 -1
v -3.5 5 -4
v -3.5 5 -10
v -3.5 5 -12
v -2.5 1 4
v -2.5 1 -1
v -2.5 2 10
v -2.5 2 9
v -2.5 2 4
v -2.5 4 10
v -2.5 4 9
v -2.5 4 -1
v 3.5 0 13
v 3.5 0 11
v 3.5 1 11
v 3.5 1 1
v 3.5 1 -1
v 3.5 1 -12
v 3.5 1 -13
v 3.5 2 11
v 3.5 2 4
v 3.5 2 1
v 3.5 2 -1
v 3.5 2 -12
v 3.5 2 -13
v 3.5 3 13
v 3.5 3 4
v 4.5 0 5
v 4.5 0 4
v 4.5 0 1
v 4.5 0 -0
v 4.5 0 -12
v 4.5 0 -13
v 4.5 1 5
v 4.5 1 4
v 4.5 1 1
v 4.5 1 -0
v 4.5 1 -12
v 4.5 1 -13
v -4.5 0 5
v -4.5 0 4
v -4.5 0 1
v -4.5 0 -0
v -4.5 0 -12
v -4.5 0 -13
v -4.5 1 5
v -4.5 1 4
v -4.5 1 1
v -4.5 1 -0
v -4.5 1 -12
v -4.5 1 -13
v -3.5 0 13
v -3.5 0 11
v -3.5 1 11
v -3.5 1 1
v -3.5 1 -1
v -3.5 1 -12
v -3.5 1 -13
v -3.5 2 11
v -3.5 2 4
v -3.5 2 1
v -3.5 2 -1
v -3.5 2 -12
v -3.5 2 -13
v -3.5 3 13
v -3.5 3 4
v 2.5 1 4
v 2.5 1 -1
v 2.5 2 10
v 2.5 2 9
v 2.5 2 4
v 2.5 4 10
v 2.5 4 9
v 2.5 4 -1
v 3.5 1 11
v 3.5 1 5
v 3.5 2 11
v 3.5 2 5
v 3.5 2 -10
v 3.5 2 -12
v 3.5 4 -1
v 3.5 4 -4
v 3.5 5 -1
v 3.5 5 -4
v 3.5 5 -10
v 3.5 5 -12
v 5.5 2 -1
v 5.5 2 -4
v 5.5 4 -1
v 5.5 4 -4
v 6.5 2 -4
v 6.5 2 -10
v 6.5 5 -4
v 6.5 5 -10
v 7.5 0 13
v 7.5 0 11
v 7.5 0 5
v 7.5 0 4
v 7.5 0 1
v 7.5 0 -0
v 7.5 0 -12
v 7.5 0 -13
v 7.5 1 -0
v 7.5 1 -12
v 7.5 2 11
v 7.5 2 5
v 7.5 2 1
v 7.5 2 -13
v 7.5 3 13
v 7.5 3 4
v -7.5 0 13
v -7.5 3 13
v -6.5 0 13
v -6.5 1 13
v -6.5 2 13
v -6.5 3 13
v -5.5 0 13
v -5.5 1 13
v -5.5 2 13
v -5.5 3 13
v -4.5 1 13
v -4.5 2 13
v -3.5 0 13
v -3.5 3 13
v 3.5 0 13
v 3.5 3 13
v 4.5 1 13
v 4.5 2 13
v 5.5 0 13
v 5.5 1 13
v 5.5 2 13
v 5.5 3 13
v 6.5 0 13
v 6.5 1 13
v 6.5 2 13
v 6.5 3 13
v 7.5 0 13
v 7.5 3 13
v -3.5 1 11
v -3.5 2 11
v 3.5 1 11
v 3.5 2 11
v -2.5 2 10
v -2.5 4 10
v 2.5 2 10
v 2.5 4 10
v -7.5 0 5
v -7.5 2 5
v -6.5 0 5
v -6.5 2 5
v -5.5 0 5
v -5.5 2 5
v -4.5 0 5
v -4.5 1 5
v -3.5 1 5
v -3.5 2 5
v 3.5 1 5
v 3.5 2 5
v 4.5 0 5
v 4.5 1 5
v 5.5 0 5
v 5.5 2 5
v 6.5 0 5
v 6.5 2 5
v 7.5 0 5
v 7.5 2 5
v -7.5 0 1
v -7.5 2 1
v -6.5 0 1
v -6.5 2 1
v -5.5 0 1
v -5.5 2 1
v -4.5 0 1
v -4.5 1 1
v -3.5 1 1
v -3.5 2 1
v 3.5 1 1
v 3.5 2 1
v 4.5 0 1
v 4.5 1 1
v 5.5 0 1
v 5.5 2 1
v 6.5 0 1
v 6.5 2 1
v 7.5 0 1
v 7.5 2 1
v -5.5 2 -1
v -5.5 4 -1
v -3.5 1 -1
v -3.5 2 -1
v -3.5 4 -1
v -3.5 5 -1
v -2.5 1 -1
v -2.5 4 -1
v -1.5 4 -1
v 1.5 4 -1
v 2.5 1 -1
v 2.5 4 -1
v 3.5 1 -1
v 3.5 2 -1
v 3.5 4 -1
v 3.5 5 -1
v 5.5 2 -1
v 5.5 4 -1
v -6.5 2 -4
v -6.5 5 -4
v -5.5 2 -4
v -5.5 4 -4
v -3.5 4 -4
v -3.5 5 -4
v 3.5 4 -4
v 3.5 5 -4
v 5.5 2 -4
v 5.5 4 -4
v 6.5 2 -4
v 6.5 5 -4
v -7.5 0 -12
v -7.5 1 -12
v -6.5 0 -12
v -6.5 1 -12
v -5.5 1 -12
v -4.5 0 -12
v -4.5 1 -12
v 4.5 0 -12
v 4.5 1 -12
v 5.5 1 -12
v 6.5 0 -12
v 6.5 1 -12
v 7.5 0 -12
v 7.5 1 -12
v -7.5 0 11
v -7.5 2 11
v -6.5 2 11
v -5.5 2 11
v -3.5 0 11
v -3.5 1 11
v -3.5 2 11
v 3.5 0 11
v 3.5 1 11
v 3.5 2 11
v 5.5 2 11
v 6.5 2 11
v 7.5 0 11
v 7.5 2 11
v -7.5 0 4
v -7.5 3 4
v -6.5 0 4
v -6.5 3 4
v -5.5 0 4
v -5.5 3 4
v -4.5 0 4
v -4.5 1 4
v -3.5 1 4
v -3.5 2 4
v -3.5 3 4
v -2.5 1 4
v -2.5 2 4
v 2.5 1 4
v 2.5 2 4
v 3.5 1 4
v 3.5 2 4
v 3.5 3 4
v 4.5 0 4
v 4.5 1 4
v 5.5 0 4
v 5.5 3 4
v 6.5 0 4
v 6.5 3 4
v 7.5 0 4
v 7.5 3 4
v -7.5 0 -0
v -7.5 1 -0
v -6.5 0 -0
v -6.5 1 -0
v -5.5 0 -0
v -5.5 1 -0
v -4.5 0 -0
v -4.5 1 -0
v 4.5 0 -0
v 4.5 1 -0
v 5.5 0 -0
v 5.5 1 -0
v 6.5 0 -0
v 6.5 1 -0
v 7.5 0 -0
v 7.5 1 -0
v -6.5 2 -10
v -6.5 5 -10
v -5.5 2 -10
v -3.5 2 -10
v -3.5 5 -10
v 3.5 2 -10
v 3.5 5 -10
v 5.5 2 -10
v 6.5 2 -10
v 6.5 5 -10
v -3.5 1 -12
v -3.5 2 -12
v -3.5 5 -12
v 3.5 1 -12
v 3.5 2 -12
v 3.5 5 -12
v -7.5 0 -13
v -7.5 2 -13
v -6.5 0 -13
v -6.5 1 -13
v -6.5 2 -13
v -5.5 1 -13
v -5.5 2 -13
v -4.5 0 -13
v -4.5 1 -13
v -3.5 1 -13
v -3.5 2 -13
v 3.5 1 -13
v 3.5 2 -13
v 4.5 0 -13
v 4.5 1 -13
v 5.5 1 -13
v 5.5 2 -13
v 6.5 0 -13
v 6.5 1 -13
v 6.5 2 -13
v 7.5 0 -13
v 7.5 2 -13
v -7.5 0 13
v -6.5 0 13
v -5.5 0 13
v -3.5 0 13
v 3.5 0 13
v 5.5 0 13
v 6.5 0 13
v 7.5 0 13
v -6.5 0 12
v -5.5 0 12
v 5.5 0 12
v 6.5 0 12
v -7.5 0 11
v -3.5 0 11
v 3.5 0 11
v 7.5 0 11
v -7.5 0 5
v -6.5 0 5
v -5.5 0 5
v -4.5 0 5
v 4.5 0 5
v 5.5 0 5
v 6.5 0 5
v 7.5 0 5
v -7.5 0 4
v -6.5 0 4
v -5.5 0 4
v -4.5 0 4
v 4.5 0 4
v 5.5 0 4
v 6.5 0 4
v 7.5 0 4
v -7.5 0 1
v -6.5 0 1
v -5.5 0 1
v -4.5 0 1
v 4.5 0 1
v 5.5 0 1
v 6.5 0 1
v 7.5 0 1
v -7.5 0 -0
v -6.5 0 -0
v -5.5 0 -0
v -4.5 0 -0
v 4.5 0 -0
v 5.5 0 -0
v 6.5 0 -0
v 7.5 0 -0
v -7.5 0 -12
v -6.5 0 -12
v -4.5 0 -12
v 4.5 0 -12
v 6.5 0 -12
v 7.5 0 -12
v -7.5 0 -13
v -6.5 0 -13
v -4.5 0 -13
v 4.5 0 -13
v 6.5 0 -13
v 7.5 0 -13
v -3.5 1 11
v 3.5 1 11
v -4.5 1 5
v -3.5 1 5
v 3.5 1 5
v 4.5 1 5
v -4.5 1 4
v -3.5 1 4
v -2.5 1 4
v 2.5 1 4
v 3.5 1 4
v 4.5 1 4
v -4.5 1 1
v -3.5 1 1
v 3.5 1 1
v 4.5 1 1
v -7.5 1 -0
v -6.5 1 -0
v -5.5 1 -0
v -4.5 1 -0
v 4.5 1 -0
v 5.5 1 -0
v 6.5 1 -0
v 7.5 1 -0
v -3.5 1 -1
v -2.5 1 -1
v 2.5 1 -1
v 3.5 1 -1
v -7.5 1 -12
v -6.5 1 -12
v -5.5 1 -12
v -4.5 1 -12
v -3.5 1 -12
v 3.5 1 -12
v 4.5 1 -12
v 5.5 1 -12
v 6.5 1 -12
v 7.5 1 -12
v -4.5 1 -13
v -3.5 1 -13
v 3.5 1 -13
v 4.5 1 -13
v -7.5 2 11
v -6.5 2 11
v -5.5 2 11
v -3.5 2 11
v 3.5 2 11
v 5.5 2 11
v 6.5 2 11
v 7.5 2 11
v -7.5 2 5
v -6.5 2 5
v -5.5 2 5
v -3.5 2 5
v 3.5 2 5
v 5.5 2 5
v 6.5 2 5
v 7.5 2 5
v -3.5 2 11
v 3.5 2 11
v -2.5 2 10
v 2.5 2 10
v -2.5 2 9
v 2.5 2 9
v -3.5 2 4
v -2.5 2 4
v 2.5 2 4
v 3.5 2 4
v -7.5 2 1
v -6.5 2 1
v -5.5 2 1
v -3.5 2 1
v 3.5 2 1
v 5.5 2 1
v 6.5 2 1
v 7.5 2 1
v -5.5 2 -1
v -3.5 2 -1
v 3.5 2 -1
v 5.5 2 -1
v -6.5 2 -4
v -5.5 2 -4
v 5.5 2 -4
v 6.5 2 -4
v -6.5 2 -10
v -5.5 2 -10
v -3.5 2 -10
v 3.5 2 -10
v 5.5 2 -10
v 6.5 2 -10
v -3.5 2 -12
v 3.5 2 -12
v -7.5 2 -13
v -6.5 2 -13
v -5.5 2 -13
v -3.5 2 -13
v 3.5 2 -13
v 5.5 2 -13
v 6.5 2 -13
v 7.5 2 -13
v -7.5 3 13
v -6.5 3 13
v -5.5 3 13
v -3.5 3 13
v 3.5 3 13
v 5.5 3 13
v 6.5 3 13
v 7.5 3 13
v -7.5 3 4
v -6.5 3 4
v -5.5 3 4
v -3.5 3 4
v 3.5 3 4
v 5.5 3 4
v 6.5 3 4
v 7.5 3 4
v -2.5 4 10
v 2.5 4 10
v -2.5 4 9
v -1.5 4 9
v 1.5 4 9
v 2.5 4 9
v -5.5 4 -1
v -3.5 4 -1
v -2.5 4 -1
v -1.5 4 -1
v 1.5 4 -1
v 2.5 4 -1
v 3.5 4 -1
v 5.5 4 -1
v -5.5 4 -4
v -3.5 4 -4
v 3.5 4 -4
v 5.5 4 -4
v -3.5 5 -1
v 3.5 5 -1
v -6.5 5 -4
v -3.5 5 -4
v 3.5 5 -4
v 6.5 5 -4
v -6.5 5 -10
v -3.5 5 -10
v 3.5 5 -10
v 6.5 5 -10
v -3.5 5 -12
v 3.5 5 -12

# faces
f 9/2/1 6/2/1 5/2/1
f 10/2/1 8/2/1 7/2/1
f 11/2/1 2/2/1 1/2/1
f 12/2/1 4/2/1 3/2/1
f 13/2/1 10/2/1 9/2/1
f 13/2/1 9/2/1 5/2/1
f 14/2/1 8/2/1 10/2/1
f 14/2/1 10/2/1 13/2/1
f 15/2/1 12/2/1 11/2/1
f 15/2/1 11/2/1 1/2/1
f 16/2/1 4/2/1 12/2/1
f 16/2/1 12/2/1 15/2/1
f 19/2/1 18/2/1 17/2/1
f 20/2/1 18/2/1 19/2/1
f 23/2/1 22/2/1 21/2/1
f 24/2/1 22/2/1 23/2/1
f 27/3/1 26/3/1 25/3/1
f 28/3/1 26/3/1 27/3/1
f 33/3/1 32/3/1 31/3/1
f 34/3/1 32/3/1 33/3/1
f 35/3/1 30/3/1 29/3/1
f 36/3/1 30/3/1 35/3/1
f 41/2/1 38/2/1 37/2/1
f 42/4/1 40/4/1 39/4/1
f 43/2/1 41/2/1 40/2/1
f 43/4/1 40/4/1 42/4/1
f 44/2/1 38/2/1 41/2/1
f 44/2/1 41/2/1 43/2/1
f 47/2/1 46/2/1 45/2/1
f 52/2/1 47/2/1 45/2/1
f 54/2/1 49/2/1 48/2/1
f 55/2/1 49/2/1 54/2/1
f 56/2/1 51/2/1 50/2/1
f 57/2/1 51/2/1 56/2/1
f 58/2/1 53/2/1 52/2/1
f 58/2/1 52/2/1 45/2/1
f 59/2/1 53/2/1 58/2/1
f 66/2/1 61/2/1 60/2/1
f 67/2/1 61/2/1 66/2/1
f 68/2/1 63/2/1 62/2/1
f 69/2/1 63/2/1 68/2/1
f 70/1/1 65/1/1 64/1/1
f 71/1/1 65/1/1 70/1/1
f 72/2/2 73/2/2 78/2/2
f 78/2/2 73/2/2 79/2/2
f 74/2/2 75/2/2 80/2/2
f 80/2/2 75/2/2 81/2/2
f 76/1/2 77/1/2 82/1/2
f 82/1/2 77/1/2 83/1/2
f 84/2/2 85/2/2 86/2/2
f 84/2/2 86/2/2 91/2/2
f 87/2/2 88/2/2 93/2/2
f 93/2/2 88/2/2 94/2/2
f 89/2/2 90/2/2 95/2/2
f 95/2/2 90/2/2 96/2/2
f 91/2/2 92/2/2 97/2/2
f 84/2/2 91/2/2 97/2/2
f 97/2/2 92/2/2 98/2/2
f 99/2/2 100/2/2 103/2/2
f 101/4/2 102/4/2 104/4/2
f 102/2/2 103/2/2 105/2/2
f 104/4/2 102/4/2 105/4/2
f 103/2/2 100/2/2 106/2/2
f 105/2/2 103/2/2 106/2/2
f 107/3/2 108/3/2 109/3/2
f 109/3/2 108/3/2 110/3/2
f 113/3/2 114/3/2 115/3/2
f 115/3/2 114/3/2 116/3/2
f 111/3/2 112/3/2 117/3/2
f 117/3/2 112/3/2 118/3/2
f 119/2/2 120/2/2 121/2/2
f 121/2/2 120/2/2 122/2/2
f 123/2/2 124/2/2 125/2/2
f 125/2/2 124/2/2 126/2/2
f 131/2/2 132/2/2 135/2/2
f 133/2/2 134/2/2 136/2/2
f 127/2/2 128/2/2 137/2/2
f 129/2/2 130/2/2 138/2/2
f 135/2/2 136/2/2 139/2/2
f 131/2/2 135/2/2 139/2/2
f 136/2/2 134/2/2 140/2/2
f 139/2/2 136/2/2 140/2/2
f 137/2/2 138/2/2 141/2/2
f 127/2/2 137/2/2 141/2/2
f 138/2/2 130/2/2 142/2/2
f 141/2/2 138/2/2 142/2/2
f 145/2/3 144/2/3 143/2/3
f 146/2/3 144/2/3 145/2/3
f 147/2/3 144/2/3 146/2/3
f 148/2/3 144/2/3 147/2/3
f 149/3/3 146/3/3 145/3/3
f 150/1/3 147/1/3 146/1/3
f 150/3/3 146/3/3 149/3/3
f 151/3/3 148/3/3 147/3/3
f 151/1/3 147/1/3 150/1/3
f 152/3/3 148/3/3 151/3/3
f 153/2/3 150/2/3 149/2/3
f 153/1/3 151/1/3 150/1/3
f 154/2/3 152/2/3 151/2/3
f 154/1/3 151/1/3 153/1/3
f 155/2/3 153/2/3 149/2/3
f 155/2/3 154/2/3 153/2/3
f 156/2/3 152/2/3 154/2/3
f 156/2/3 154/2/3 155/2/3
f 159/2/3 158/2/3 157/2/3
f 160/2/3 158/2/3 159/2/3
f 161/2/3 159/2/3 157/2/3
f 162/1/3 160/1/3 159/1/3
f 162/2/3 159/2/3 161/2/3
f 163/2/3 158/2/3 160/2/3
f 163/1/3 160/1/3 162/1/3
f 164/2/3 158/2/3 163/2/3
f 165/3/3 162/3/3 161/3/3
f 166/1/3 163/1/3 162/1/3
f 166/3/3 162/3/3 165/3/3
f 167/3/3 164/3/3 163/3/3
f 167/1/3 163/1/3 166/1/3
f 168/3/3 164/3/3 167/3/3
f 169/2/3 166/2/3 165/2/3
f 169/2/3 167/2/3 166/2/3
f 169/2/3 168/2/3 167/2/3
f 170/2/3 168/2/3 169/2/3
f 173/3/3 172/3/3 171/3/3
f 174/3/3 172/3/3 173/3/3
f 177/4/3 176/4/3 175/4/3
f 178/4/3 176/4/3 177/4/3
f 181/2/3 180/2/3 179/2/3
f 182/2/3 180/2/3 181/2/3
f 183/3/3 182/3/3 181/3/3
f 184/3/3 182/3/3 183/3/3
f 185/2/3 184/2/3 183/2/3
f 186/2/3 184/2/3 185/2/3
f 187/2/3 184/2/3 186/2/3
f 188/2/3 184/2/3 187/2/3
f 192/2/3 190/2/3 189/2/3
f 193/2/3 192/2/3 191/2/3
f 194/2/3 190/2/3 192/2/3
f 194/2/3 192/2/3 193/2/3
f 195/3/3 194/3/3 193/3/3
f 196/3/3 194/3/3 195/3/3
f 197/2/3 196/2/3 195/2/3
f 198/2/3 196/2/3 197/2/3
f 201/2/3 200/2/3 199/2/3
f 202/2/3 200/2/3 201/2/3
f 203/3/3 202/3/3 201/3/3
f 204/3/3 202/3/3 203/3/3
f 205/2/3 204/2/3 203/2/3
f 206/2/3 204/2/3 205/2/3
f 207/2/3 204/2/3 206/2/3
f 208/2/3 204/2/3 207/2/3
f 212/2/3 210/2/3 209/2/3
f 213/2/3 212/2/3 211/2/3
f 214/2/3 210/2/3 212/2/3
f 214/2/3 212/2/3 213/2/3
f 215/3/3 214/3/3 213/3/3
f 216/3/3 214/3/3 215/3/3
f 217/2/3 216/2/3 215/2/3
f 218/2/3 216/2/3 217/2/3
f 222/2/3 220/2/3 219/2/3
f 223/2/3 220/2/3 222/2/3
f 225/3/3 222/3/3 221/3/3
f 225/3/3 224/3/3 223/3/3
f 225/3/3 223/3/3 222/3/3
f 226/3/3 224/3/3 225/3/3
f 227/3/3 224/3/3 226/3/3
f 228/3/3 224/3/3 227/3/3
f 230/3/3 224/3/3 228/3/3
f 231/3/3 230/3/3 229/3/3
f 232/3/3 230/3/3 231/3/3
f 233/3/3 224/3/3 230/3/3
f 233/3/3 230/3/3 232/3/3
f 234/3/3 224/3/3 233/3/3
f 235/2/3 233/2/3 232/2/3
f 236/2/3 233/2/3 235/2/3
f 239/2/3 238/2/3 237/2/3
f 240/2/3 238/2/3 239/2/3
f 241/2/3 238/2/3 240/2/3
f 242/2/3 238/2/3 241/2/3
f 246/2/3 244/2/3 243/2/3
f 247/2/3 246/2/3 245/2/3
f 248/2/3 244/2/3 246/2/3
f 248/2/3 246/2/3 247/2/3
f 251/2/3 250/2/3 249/2/3
f 252/2/3 250/2/3 251/2/3
f 253/1/3 252/1/3 251/1/3
f 254/1/3 253/1/3 251/1/3
f 255/1/3 253/1/3 254/1/3
f 258/1/3 257/1/3 256/1/3
f 259/1/3 258/1/3 256/1/3
f 260/1/3 258/1/3 259/1/3
f 261/2/3 260/2/3 259/2/3
f 262/2/3 260/2/3 261/2/3
f 263/2/4 264/2/4 265/2/4
f 263/2/4 265/2/4 266/2/4
f 263/2/4 266/2/4 267/2/4
f 267/2/4 266/2/4 268/2/4
f 268/2/4 266/2/4 269/2/4
f 270/2/4 271/2/4 273/2/4
f 271/2/4 272/2/4 273/2/4
f 270/2/4 273/2/4 274/2/4
f 270/2/4 274/2/4 275/2/4
f 275/2/4 274/2/4 276/2/4
f 277/2/4 278/2/4 279/2/4
f 279/2/4 278/2/4 280/2/4
f 279/3/4 280/3/4 281/3/4
f 281/3/4 280/3/4 282/3/4
f 281/2/4 282/2/4 283/2/4
f 283/2/4 282/2/4 284/2/4
f 284/2/4 282/2/4 285/2/4
f 285/2/4 282/2/4 286/2/4
f 286/2/4 282/2/4 287/2/4
f 285/3/4 286/3/4 288/3/4
f 288/3/4 286/3/4 289/3/4
f 290/3/4 291/3/4 292/3/4
f 292/3/4 291/3/4 293/3/4
f 292/2/4 293/2/4 296/2/4
f 293/2/4 294/2/4 296/2/4
f 295/2/4 296/2/4 297/2/4
f 296/2/4 294/2/4 298/2/4
f 297/2/4 296/2/4 298/2/4
f 297/3/4 298/3/4 299/3/4
f 299/3/4 298/3/4 300/3/4
f 299/2/4 300/2/4 301/2/4
f 301/2/4 300/2/4 302/2/4
f 303/2/4 304/2/4 305/2/4
f 305/2/4 304/2/4 306/2/4
f 305/3/4 306/3/4 307/3/4
f 307/3/4 306/3/4 308/3/4
f 307/2/4 308/2/4 309/2/4
f 309/2/4 308/2/4 310/2/4
f 311/2/4 312/2/4 313/2/4
f 313/2/4 312/2/4 314/2/4
f 313/3/4 314/3/4 315/3/4
f 315/3/4 314/3/4 316/3/4
f 315/2/4 316/2/4 317/2/4
f 317/2/4 316/2/4 318/2/4
f 319/2/4 320/2/4 321/2/4
f 321/2/4 320/2/4 322/2/4
f 322/2/4 320/2/4 323/2/4
f 324/2/4 325/2/4 326/2/4
f 326/2/4 325/2/4 327/2/4
f 327/2/4 325/2/4 328/2/4
f 329/3/4 330/3/4 332/3/4
f 330/3/4 331/3/4 332/3/4
f 332/3/4 331/3/4 333/3/4
f 333/3/4 331/3/4 334/3/4
f 335/2/4 336/2/4 337/2/4
f 337/2/4 336/2/4 338/2/4
f 338/2/4 336/2/4 339/2/4
f 337/1/4 338/1/4 340/1/4
f 338/3/4 339/3/4 340/3/4
f 340/3/4 339/3/4 341/3/4
f 337/1/4 340/1/4 342/1/4
f 340/2/4 341/2/4 343/2/4
f 342/1/4 340/1/4 343/1/4
f 343/2/4 341/2/4 344/2/4
f 344/2/4 341/2/4 345/2/4
f 346/2/4 347/2/4 349/2/4
f 349/2/4 347/2/4 350/2/4
f 348/1/4 349/1/4 350/1/4
f 350/2/4 347/2/4 351/2/4
f 348/1/4 350/1/4 352/1/4
f 350/3/4 351/3/4 353/3/4
f 352/1/4 350/1/4 353/1/4
f 353/3/4 351/3/4 354/3/4
f 352/2/4 353/2/4 355/2/4
f 353/2/4 354/2/4 355/2/4
f 355/2/4 354/2/4 356/2/4
f 365/2/5 358/2/5 357/2/5
f 365/3/5 359/3/5 358/3/5
f 366/2/5 360/2/5 359/2/5
f 366/3/5 359/3/5 365/3/5
f 367/3/5 363/3/5 362/3/5
f 367/2/5 362/2/5 361/2/5
f 368/2/5 364/2/5 363/2/5
f 368/3/5 363/3/5 367/3/5
f 369/2/5 365/2/5 357/2/5
f 369/2/5 366/2/5 365/2/5
f 370/2/5 360/2/5 366/2/5
f 370/2/5 366/2/5 369/2/5
f 371/2/5 367/2/5 361/2/5
f 371/2/5 368/2/5 367/2/5
f 372/2/5 364/2/5 368/2/5
f 372/2/5 368/2/5 371/2/5
f 381/2/5 374/2/5 373/2/5
f 382/3/5 375/3/5 374/3/5
f 382/2/5 374/2/5 381/2/5
f 383/2/5 376/2/5 375/2/5
f 383/3/5 375/3/5 382/3/5
f 384/2/5 376/2/5 383/2/5
f 385/2/5 378/2/5 377/2/5
f 386/3/5 379/3/5 378/3/5
f 386/2/5 378/2/5 385/2/5
f 387/2/5 380/2/5 379/2/5
f 387/3/5 379/3/5 386/3/5
f 388/2/5 380/2/5 387/2/5
f 397/2/5 390/2/5 389/2/5
f 398/3/5 391/3/5 390/3/5
f 398/2/5 390/2/5 397/2/5
f 399/2/5 392/2/5 391/2/5
f 399/3/5 391/3/5 398/3/5
f 400/2/5 392/2/5 399/2/5
f 401/2/5 394/2/5 393/2/5
f 402/3/5 395/3/5 394/3/5
f 402/2/5 394/2/5 401/2/5
f 403/2/5 396/2/5 395/2/5
f 403/3/5 395/3/5 402/3/5
f 404/2/5 396/2/5 403/2/5
f 411/2/5 406/2/5 405/2/5
f 412/1/5 407/1/5 406/1/5
f 412/2/5 406/2/5 411/2/5
f 413/1/5 407/1/5 412/1/5
f 414/1/5 409/1/5 408/1/5
f 415/2/5 410/2/5 409/2/5
f 415/1/5 409/1/5 414/1/5
f 416/2/5 410/2/5 415/2/5
f 420/3/5 418/3/5 417/3/5
f 421/3/5 418/3/5 420/3/5
f 423/2/5 420/2/5 419/2/5
f 424/3/5 421/3/5 420/3/5
f 424/2/5 420/2/5 423/2/5
f 425/3/5 421/3/5 424/3/5
f 426/3/5 421/3/5 425/3/5
f 427/2/5 422/2/5 421/2/5
f 427/3/5 421/3/5 426/3/5
f 428/2/5 422/2/5 427/2/5
f 436/2/5 430/2/5 429/2/5
f 437/2/5 432/2/5 431/2/5
f 441/2/5 436/2/5 435/2/5
f 441/2/5 430/2/5 436/2/5
f 442/2/5 426/2/5 425/2/5
f 443/2/5 426/2/5 442/2/5
f 444/2/5 437/2/5 431/2/5
f 444/2/5 438/2/5 437/2/5
f 445/2/5 434/2/5 433/2/5
f 446/3/5 435/3/5 434/3/5
f 446/2/5 434/2/5 445/2/5
f 447/2/5 441/2/5 435/2/5
f 447/3/5 435/3/5 446/3/5
f 448/2/5 441/2/5 447/2/5
f 449/3/5 443/3/5 442/3/5
f 449/2/5 441/2/5 448/2/5
f 449/3/5 444/3/5 443/3/5
f 449/3/5 442/3/5 441/3/5
f 450/2/5 438/2/5 444/2/5
f 450/3/5 444/3/5 449/3/5
f 451/2/5 438/2/5 450/2/5
f 452/3/5 439/3/5 438/3/5
f 452/2/5 438/2/5 451/2/5
f 453/2/5 440/2/5 439/2/5
f 453/3/5 439/3/5 452/3/5
f 454/2/5 440/2/5 453/2/5
f 455/2/5 449/2/5 448/2/5
f 456/2/5 449/2/5 455/2/5
f 457/2/5 451/2/5 450/2/5
f 458/2/5 451/2/5 457/2/5
f 467/2/5 460/2/5 459/2/5
f 468/3/5 461/3/5 460/3/5
f 468/2/5 460/2/5 467/2/5
f 469/2/5 462/2/5 461/2/5
f 469/3/5 461/3/5 468/3/5
f 470/2/5 462/2/5 469/2/5
f 471/2/5 464/2/5 463/2/5
f 472/3/5 465/3/5 464/3/5
f 472/2/5 464/2/5 471/2/5
f 473/2/5 466/2/5 465/2/5
f 473/3/5 465/3/5 472/3/5
f 474/2/5 466/2/5 473/2/5
f 475/3/6 476/3/6 477/3/6
f 477/3/6 476/3/6 478/3/6
f 475/3/6 477/3/6 479/3/6
f 478/3/6 476/3/6 480/3/6
f 475/3/6 479/3/6 481/3/6
f 481/3/6 479/3/6 482/3/6
f 480/3/6 476/3/6 483/3/6
f 483/3/6 476/3/6 484/3/6
f 487/2/6 488/2/6 493/2/6
f 486/3/6 487/3/6 493/3/6
f 493/2/6 488/2/6 494/2/6
f 489/2/6 490/2/6 495/2/6
f 490/3/6 491/3/6 496/3/6
f 495/2/6 490/2/6 496/2/6
f 485/2/6 486/2/6 497/2/6
f 486/3/6 493/3/6 497/3/6
f 497/3/6 493/3/6 498/3/6
f 496/3/6 491/3/6 499/3/6
f 491/2/6 492/2/6 500/2/6
f 499/3/6 491/3/6 500/3/6
f 485/2/6 497/2/6 501/2/6
f 500/2/6 492/2/6 506/2/6
f 502/2/6 503/2/6 507/2/6
f 504/2/6 505/2/6 508/2/6
f 485/2/6 501/2/6 509/2/6
f 501/3/6 502/3/6 510/3/6
f 509/2/6 501/2/6 510/2/6
f 502/2/6 507/2/6 511/2/6
f 510/3/6 502/3/6 511/3/6
f 511/2/6 507/2/6 512/2/6
f 508/2/6 505/2/6 513/2/6
f 505/3/6 506/3/6 514/3/6
f 513/2/6 505/2/6 514/2/6
f 506/2/6 492/2/6 515/2/6
f 514/3/6 506/3/6 515/3/6
f 515/2/6 492/2/6 516/2/6
f 517/2/6 518/2/6 525/2/6
f 518/3/6 519/3/6 526/3/6
f 525/2/6 518/2/6 526/2/6
f 519/2/6 520/2/6 527/2/6
f 526/3/6 519/3/6 527/3/6
f 527/2/6 520/2/6 528/2/6
f 521/2/6 522/2/6 529/2/6
f 522/3/6 523/3/6 530/3/6
f 529/2/6 522/2/6 530/2/6
f 523/2/6 524/2/6 531/2/6
f 530/3/6 523/3/6 531/3/6
f 531/2/6 524/2/6 532/2/6
f 533/4/6 534/4/6 535/4/6
f 535/4/6 534/4/6 536/4/6
f 536/4/6 534/4/6 537/4/6
f 537/4/6 534/4/6 538/4/6
f 535/2/6 536/2/6 541/2/6
f 536/3/6 537/3/6 542/3/6
f 541/2/6 536/2/6 542/2/6
f 537/2/6 538/2/6 543/2/6
f 542/3/6 537/3/6 543/3/6
f 543/2/6 538/2/6 544/2/6
f 539/2/6 540/2/6 547/2/6
f 547/2/6 540/2/6 548/2/6
f 545/2/6 546/2/6 549/2/6
f 549/2/6 546/2/6 550/2/6
f 551/3/6 552/3/6 554/3/6
f 554/3/6 552/3/6 555/3/6
f 553/2/6 554/2/6 557/2/6
f 554/3/6 555/3/6 558/3/6
f 557/2/6 554/2/6 558/2/6
f 555/2/6 556/2/6 559/2/6
f 558/3/6 555/3/6 559/3/6
f 559/2/6 556/2/6 560/2/6
f 558/3/6 559/3/6 561/3/6
f 561/3/6 559/3/6 562/3/6
