# MagicaVoxel @ ephtracy

# material
mtllib Crawler.mtl
usemtl palette

# normals
vn -1 0 0
vn 1 0 0
vn 0 0 1
vn 0 0 -1
vn 0 -1 0
vn 0 1 0

# texcoords
vt 0.490234 0.5
vt 0.544922 0.5
vt 0.552734 0.5

# verts
v -2 0 6
v -2 0 5
v -2 0 4
v -2 0 3
v -2 0 2
v -2 0 1
v -2 0 -0
v -2 0 -1
v -2 0 -2
v -2 0 -3
v -2 0 -4
v -2 0 -5
v -2 1 6
v -2 1 5
v -2 1 4
v -2 1 3
v -2 1 2
v -2 1 1
v -2 1 -0
v -2 1 -1
v -2 1 -2
v -2 1 -3
v -2 1 -4
v -2 1 -5
v -2 1 -6
v -2 2 6
v -2 2 5
v -2 2 -5
v -2 2 -6
v -2 3 6
v -2 3 5
v -2 3 -5
v -2 3 -6
v -2 4 6
v -2 4 5
v -2 4 4
v -2 4 3
v -2 4 2
v -2 4 1
v -2 4 -0
v -2 4 -1
v -2 4 -2
v -2 4 -3
v -2 4 -4
v -2 4 -5
v -2 4 -6
v -2 5 6
v -2 5 5
v -2 5 4
v -2 5 3
v -2 5 2
v -2 5 1
v -2 5 -0
v -2 5 -1
v -2 5 -2
v -2 5 -3
v -2 5 -4
v -2 5 -5
v -1 1 5
v -1 1 4
v -1 1 3
v -1 1 2
v -1 1 -2
v -1 1 -3
v -1 1 -4
v -1 1 -5
v -1 2 5
v -1 2 4
v -1 2 3
v -1 2 -3
v -1 2 -4
v -1 2 -5
v -1 3 5
v -1 3 4
v -1 3 3
v -1 3 -3
v -1 3 -4
v -1 3 -5
v -1 4 5
v -1 4 4
v -1 4 3
v -1 4 2
v -1 4 -2
v -1 4 -3
v -1 4 -4
v -1 4 -5
v 0 2 4
v 0 2 3
v 0 2 -3
v 0 2 -4
v 0 3 4
v 0 3 3
v 0 3 -3
v 0 3 -4
v 1 0 5
v 1 0 4
v 1 0 3
v 1 0 2
v 1 0 1
v 1 0 -0
v 1 0 -1
v 1 0 -2
v 1 0 -3
v 1 0 -4
v 1 0 -5
v 1 0 -6
v 1 1 6
v 1 1 5
v 1 1 4
v 1 1 3
v 1 1 2
v 1 1 1
v 1 1 -0
v 1 1 -1
v 1 1 -2
v 1 1 -3
v 1 1 -4
v 1 1 -5
v 1 1 -6
v 1 2 6
v 1 2 5
v 1 2 2
v 1 2 -2
v 1 2 -5
v 1 2 -6
v 1 3 6
v 1 3 5
v 1 3 2
v 1 3 -2
v 1 3 -5
v 1 3 -6
v 1 4 6
v 1 4 5
v 1 4 4
v 1 4 3
v 1 4 2
v 1 4 1
v 1 4 -0
v 1 4 -1
v 1 4 -2
v 1 4 -3
v 1 4 -4
v 1 4 -5
v 1 4 -6
v 1 5 5
v 1 5 4
v 1 5 3
v 1 5 2
v 1 5 1
v 1 5 -0
v 1 5 -1
v 1 5 -2
v 1 5 -3
v 1 5 -4
v 1 5 -5
v 1 5 -6
v 2 0 6
v 2 0 -6
v 2 1 5
v 2 1 2
v 2 1 -2
v 2 1 -5
v 2 2 2
v 2 2 -2
v 2 3 2
v 2 3 -2
v 2 4 5
v 2 4 2
v 2 4 -2
v 2 4 -5
v 2 5 6
v 2 5 -6
v -2 0 6
v -2 1 6
v -2 2 6
v -2 3 6
v -2 4 6
v -2 5 6
v 1 1 6
v 1 2 6
v 1 3 6
v 1 4 6
v 2 0 6
v 2 5 6
v -1 1 5
v -1 2 5
v -1 3 5
v -1 4 5
v 1 1 5
v 1 2 5
v 1 3 5
v 1 4 5
v -2 0 4
v -2 1 4
v -2 4 4
v -2 5 4
v -1 1 4
v -1 4 4
v 1 0 4
v 1 1 4
v 1 4 4
v 1 5 4
v -1 2 3
v -1 3 3
v 0 2 3
v 0 3 3
v -2 0 2
v -2 1 2
v -2 4 2
v -2 5 2
v -1 1 2
v -1 4 2
v 1 0 2
v 1 1 2
v 1 4 2
v 1 5 2
v -2 0 -0
v -2 1 -0
v -2 4 -0
v -2 5 -0
v 1 0 -0
v 1 1 -0
v 1 4 -0
v 1 5 -0
v -2 0 -2
v -2 1 -2
v -2 4 -2
v -2 5 -2
v -1 1 -2
v -1 4 -2
v 1 0 -2
v 1 1 -2
v 1 2 -2
v 1 3 -2
v 1 4 -2
v 1 5 -2
v 2 1 -2
v 2 2 -2
v 2 3 -2
v 2 4 -2
v -2 0 -4
v -2 1 -4
v -2 4 -4
v -2 5 -4
v -1 1 -4
v -1 2 -4
v -1 3 -4
v -1 4 -4
v 0 2 -4
v 0 3 -4
v 1 0 -4
v 1 1 -4
v 1 4 -4
v 1 5 -4
v -2 1 -5
v -2 2 -5
v -2 3 -5
v -2 4 -5
v -1 1 -5
v -1 2 -5
v -1 3 -5
v -1 4 -5
v -2 0 5
v -2 1 5
v -2 2 5
v -2 3 5
v -2 4 5
v -2 5 5
v -1 1 5
v -1 2 5
v -1 3 5
v -1 4 5
v 1 0 5
v 1 1 5
v 1 4 5
v 1 5 5
v -1 2 4
v -1 3 4
v 0 2 4
v 0 3 4
v -2 0 3
v -2 1 3
v -2 4 3
v -2 5 3
v -1 1 3
v -1 4 3
v 1 0 3
v 1 1 3
v 1 4 3
v 1 5 3
v -1 1 2
v -1 4 2
v 1 2 2
v 1 3 2
v 2 1 2
v 2 2 2
v 2 3 2
v 2 4 2
v -2 0 1
v -2 1 1
v -2 4 1
v -2 5 1
v 1 0 1
v 1 1 1
v 1 4 1
v 1 5 1
v -2 0 -1
v -2 1 -1
v -2 4 -1
v -2 5 -1
v 1 0 -1
v 1 1 -1
v 1 4 -1
v 1 5 -1
v -2 0 -3
v -2 1 -3
v -2 4 -3
v -2 5 -3
v -1 1 -3
v -1 2 -3
v -1 3 -3
v -1 4 -3
v 0 2 -3
v 0 3 -3
v 1 0 -3
v 1 1 -3
v 1 4 -3
v 1 5 -3
v -2 0 -5
v -2 1 -5
v -2 4 -5
v -2 5 -5
v -1 2 -5
v -1 3 -5
v 1 0 -5
v 1 1 -5
v 1 2 -5
v 1 3 -5
v 1 4 -5
v 1 5 -5
v -2 1 -6
v -2 2 -6
v -2 3 -6
v -2 4 -6
v 1 0 -6
v 1 1 -6
v 1 2 -6
v 1 3 -6
v 1 4 -6
v 1 5 -6
v 2 0 -6
v 2 5 -6
v -2 0 6
v 2 0 6
v -2 0 5
v 1 0 5
v -2 0 4
v 1 0 4
v -2 0 3
v 1 0 3
v -2 0 2
v 1 0 2
v -2 0 1
v 1 0 1
v -2 0 -0
v 1 0 -0
v -2 0 -1
v 1 0 -1
v -2 0 -2
v 1 0 -2
v -2 0 -3
v 1 0 -3
v -2 0 -4
v 1 0 -4
v -2 0 -5
v 1 0 -5
v 1 0 -6
v 2 0 -6
v -1 1 5
v 1 1 5
v -1 1 4
v 1 1 4
v -1 1 3
v 1 1 3
v -1 1 2
v 1 1 2
v -1 1 -3
v 1 1 -3
v -1 1 -4
v 1 1 -4
v -2 1 -5
v 1 1 -5
v -2 1 -6
v 1 1 -6
v -2 2 6
v 1 2 6
v -2 2 5
v -1 2 5
v 1 2 5
v 1 2 2
v 2 2 2
v 1 2 -2
v 2 2 -2
v -1 3 4
v 0 3 4
v -1 3 3
v 0 3 3
v -1 3 -3
v 0 3 -3
v -1 3 -4
v 0 3 -4
v -2 3 -5
v -1 3 -5
v 1 3 -5
v -2 3 -6
v 1 3 -6
v -2 4 6
v 1 4 6
v -2 4 5
v -1 4 5
v 1 4 5
v -2 4 4
v -1 4 4
v -2 4 3
v -1 4 3
v -2 4 2
v -1 4 2
v 2 4 2
v -2 4 1
v 1 4 1
v -2 4 -0
v 1 4 -0
v -2 4 -1
v 1 4 -1
v -2 4 -2
v -1 4 -2
v 1 4 -2
v 2 4 -2
v -2 4 -3
v -1 4 -3
v -2 4 -4
v -1 4 -4
v -2 4 -5
v -1 4 -5
v -2 1 6
v 1 1 6
v -2 1 5
v -1 1 5
v 1 1 5
v -2 1 4
v -1 1 4
v -2 1 3
v -1 1 3
v -2 1 2
v -1 1 2
v 2 1 2
v -2 1 1
v 1 1 1
v -2 1 -0
v 1 1 -0
v -2 1 -1
v 1 1 -1
v -2 1 -2
v -1 1 -2
v 1 1 -2
v 2 1 -2
v -2 1 -3
v -1 1 -3
v -2 1 -4
v -1 1 -4
v -2 1 -5
v -1 1 -5
v -1 2 4
v 0 2 4
v -1 2 3
v 0 2 3
v -1 2 -3
v 0 2 -3
v -1 2 -4
v 0 2 -4
v -2 2 -5
v -1 2 -5
v 1 2 -5
v -2 2 -6
v 1 2 -6
v -2 3 6
v 1 3 6
v -2 3 5
v -1 3 5
v 1 3 5
v 1 3 2
v 2 3 2
v 1 3 -2
v 2 3 -2
v -1 4 5
v 1 4 5
v -1 4 4
v 1 4 4
v -1 4 3
v 1 4 3
v -1 4 2
v 1 4 2
v -1 4 -3
v 1 4 -3
v -1 4 -4
v 1 4 -4
v -2 4 -5
v 1 4 -5
v -2 4 -6
v 1 4 -6
v -2 5 6
v 2 5 6
v -2 5 5
v 1 5 5
v -2 5 4
v 1 5 4
v -2 5 3
v 1 5 3
v -2 5 2
v 1 5 2
v -2 5 1
v 1 5 1
v -2 5 -0
v 1 5 -0
v -2 5 -1
v 1 5 -1
v -2 5 -2
v 1 5 -2
v -2 5 -3
v 1 5 -3
v -2 5 -4
v 1 5 -4
v -2 5 -5
v 1 5 -5
v 1 5 -6
v 2 5 -6

# faces
f 13/2/1 2/2/1 1/2/1
f 14/2/1 2/2/1 13/2/1
f 15/2/1 4/2/1 3/2/1
f 16/2/1 4/2/1 15/2/1
f 17/2/1 6/2/1 5/2/1
f 18/2/1 6/2/1 17/2/1
f 19/2/1 8/2/1 7/2/1
f 20/2/1 8/2/1 19/2/1
f 21/2/1 10/2/1 9/2/1
f 22/2/1 10/2/1 21/2/1
f 23/2/1 12/2/1 11/2/1
f 24/2/1 12/2/1 23/2/1
f 28/2/1 25/2/1 24/2/1
f 29/2/1 25/2/1 28/2/1
f 30/2/1 27/2/1 26/2/1
f 31/2/1 27/2/1 30/2/1
f 45/2/1 33/2/1 32/2/1
f 46/2/1 33/2/1 45/2/1
f 47/2/1 35/2/1 34/2/1
f 48/2/1 35/2/1 47/2/1
f 49/2/1 37/2/1 36/2/1
f 50/2/1 37/2/1 49/2/1
f 51/2/1 39/2/1 38/2/1
f 52/2/1 39/2/1 51/2/1
f 53/2/1 41/2/1 40/2/1
f 54/2/1 41/2/1 53/2/1
f 55/2/1 43/2/1 42/2/1
f 56/2/1 43/2/1 55/2/1
f 57/2/1 45/2/1 44/2/1
f 58/2/1 45/2/1 57/2/1
f 67/1/1 60/1/1 59/1/1
f 67/1/1 61/1/1 60/1/1
f 67/1/1 62/1/1 61/1/1
f 68/1/1 62/1/1 67/1/1
f 69/1/1 62/1/1 68/1/1
f 70/1/1 66/1/1 65/1/1
f 70/1/1 65/1/1 64/1/1
f 70/1/1 64/1/1 63/1/1
f 71/1/1 66/1/1 70/1/1
f 72/1/1 66/1/1 71/1/1
f 73/1/1 68/1/1 67/1/1
f 74/1/1 68/1/1 73/1/1
f 75/1/1 62/1/1 69/1/1
f 76/1/1 70/1/1 63/1/1
f 77/1/1 72/1/1 71/1/1
f 78/1/1 72/1/1 77/1/1
f 79/1/1 74/1/1 73/1/1
f 79/1/1 75/1/1 74/1/1
f 80/1/1 75/1/1 79/1/1
f 81/1/1 62/1/1 75/1/1
f 81/1/1 75/1/1 80/1/1
f 82/1/1 62/1/1 81/1/1
f 83/1/1 76/1/1 63/1/1
f 83/1/1 78/1/1 77/1/1
f 83/1/1 77/1/1 76/1/1
f 84/1/1 78/1/1 83/1/1
f 85/1/1 78/1/1 84/1/1
f 86/1/1 78/1/1 85/1/1
f 91/3/1 88/3/1 87/3/1
f 92/3/1 88/3/1 91/3/1
f 93/3/1 90/3/1 89/3/1
f 94/3/1 90/3/1 93/3/1
f 108/2/1 96/2/1 95/2/1
f 109/2/1 96/2/1 108/2/1
f 110/2/1 98/2/1 97/2/1
f 111/2/1 98/2/1 110/2/1
f 112/2/1 100/2/1 99/2/1
f 113/2/1 100/2/1 112/2/1
f 114/2/1 102/2/1 101/2/1
f 115/2/1 102/2/1 114/2/1
f 116/2/1 104/2/1 103/2/1
f 117/2/1 104/2/1 116/2/1
f 118/2/1 106/2/1 105/2/1
f 119/2/1 106/2/1 118/2/1
f 120/2/1 108/2/1 107/2/1
f 121/2/1 108/2/1 120/2/1
f 128/3/1 123/3/1 122/3/1
f 129/3/1 123/3/1 128/3/1
f 130/2/1 125/2/1 124/2/1
f 131/2/1 125/2/1 130/2/1
f 132/2/1 127/2/1 126/2/1
f 133/2/1 127/2/1 132/2/1
f 145/2/1 134/2/1 133/2/1
f 146/2/1 134/2/1 145/2/1
f 147/2/1 136/2/1 135/2/1
f 148/2/1 136/2/1 147/2/1
f 149/2/1 138/2/1 137/2/1
f 150/2/1 138/2/1 149/2/1
f 151/2/1 140/2/1 139/2/1
f 152/2/1 140/2/1 151/2/1
f 153/2/1 142/2/1 141/2/1
f 154/2/1 142/2/1 153/2/1
f 155/2/1 144/2/1 143/2/1
f 156/2/1 144/2/1 155/2/1
f 157/2/2 158/2/2 159/2/2
f 159/2/2 158/2/2 160/2/2
f 160/2/2 158/2/2 161/2/2
f 161/2/2 158/2/2 162/2/2
f 159/1/2 160/1/2 163/1/2
f 161/1/2 162/1/2 164/1/2
f 159/1/2 163/1/2 165/1/2
f 163/3/2 164/3/2 165/3/2
f 164/1/2 162/1/2 166/1/2
f 165/3/2 164/3/2 166/3/2
f 157/2/2 159/2/2 167/2/2
f 159/1/2 165/1/2 167/1/2
f 167/1/2 165/1/2 168/1/2
f 166/1/2 162/1/2 169/1/2
f 162/2/2 158/2/2 170/2/2
f 169/1/2 162/1/2 170/1/2
f 167/2/2 168/2/2 171/2/2
f 168/2/2 169/2/2 171/2/2
f 169/2/2 170/2/2 171/2/2
f 157/2/2 167/2/2 171/2/2
f 170/2/2 158/2/2 172/2/2
f 171/2/2 170/2/2 172/2/2
f 179/2/3 174/2/3 173/2/3
f 180/2/3 176/2/3 175/2/3
f 181/2/3 176/2/3 180/2/3
f 182/2/3 178/2/3 177/2/3
f 183/2/3 181/2/3 180/2/3
f 183/2/3 182/2/3 181/2/3
f 183/2/3 179/2/3 173/2/3
f 183/2/3 180/2/3 179/2/3
f 184/2/3 178/2/3 182/2/3
f 184/2/3 182/2/3 183/2/3
f 189/1/3 186/1/3 185/1/3
f 190/1/3 186/1/3 189/1/3
f 191/1/3 188/1/3 187/1/3
f 192/1/3 188/1/3 191/1/3
f 197/2/3 194/2/3 193/2/3
f 198/2/3 196/2/3 195/2/3
f 199/2/3 197/2/3 193/2/3
f 200/2/3 197/2/3 199/2/3
f 201/2/3 196/2/3 198/2/3
f 202/2/3 196/2/3 201/2/3
f 205/1/3 204/1/3 203/1/3
f 206/1/3 204/1/3 205/1/3
f 211/2/3 208/2/3 207/2/3
f 212/2/3 210/2/3 209/2/3
f 213/2/3 211/2/3 207/2/3
f 214/2/3 211/2/3 213/2/3
f 215/2/3 210/2/3 212/2/3
f 216/2/3 210/2/3 215/2/3
f 221/2/3 218/2/3 217/2/3
f 222/2/3 218/2/3 221/2/3
f 223/2/3 220/2/3 219/2/3
f 224/2/3 220/2/3 223/2/3
f 229/2/3 226/2/3 225/2/3
f 230/2/3 228/2/3 227/2/3
f 231/2/3 229/2/3 225/2/3
f 232/1/3 230/1/3 229/1/3
f 232/2/3 229/2/3 231/2/3
f 233/1/3 230/1/3 232/1/3
f 234/1/3 230/1/3 233/1/3
f 235/2/3 228/2/3 230/2/3
f 235/1/3 230/1/3 234/1/3
f 236/2/3 228/2/3 235/2/3
f 237/1/3 233/1/3 232/1/3
f 238/1/3 233/1/3 237/1/3
f 239/1/3 235/1/3 234/1/3
f 240/1/3 235/1/3 239/1/3
f 245/2/3 242/2/3 241/2/3
f 248/2/3 244/2/3 243/2/3
f 249/1/3 247/1/3 246/1/3
f 250/1/3 247/1/3 249/1/3
f 251/2/3 245/2/3 241/2/3
f 252/2/3 245/2/3 251/2/3
f 253/2/3 244/2/3 248/2/3
f 254/2/3 244/2/3 253/2/3
f 259/2/3 256/2/3 255/2/3
f 260/2/3 256/2/3 259/2/3
f 261/2/3 258/2/3 257/2/3
f 262/2/3 258/2/3 261/2/3
f 263/2/4 264/2/4 269/2/4
f 265/2/4 266/2/4 270/2/4
f 270/2/4 266/2/4 271/2/4
f 267/2/4 268/2/4 272/2/4
f 263/2/4 269/2/4 273/2/4
f 273/2/4 269/2/4 274/2/4
f 272/2/4 268/2/4 275/2/4
f 275/2/4 268/2/4 276/2/4
f 277/1/4 278/1/4 279/1/4
f 279/1/4 278/1/4 280/1/4
f 281/2/4 282/2/4 285/2/4
f 283/2/4 284/2/4 286/2/4
f 281/2/4 285/2/4 287/2/4
f 287/2/4 285/2/4 288/2/4
f 286/2/4 284/2/4 289/2/4
f 289/2/4 284/2/4 290/2/4
f 291/1/4 292/1/4 293/1/4
f 293/1/4 292/1/4 294/1/4
f 291/1/4 293/1/4 295/1/4
f 295/1/4 293/1/4 296/1/4
f 294/1/4 292/1/4 297/1/4
f 297/1/4 292/1/4 298/1/4
f 299/2/4 300/2/4 303/2/4
f 303/2/4 300/2/4 304/2/4
f 301/2/4 302/2/4 305/2/4
f 305/2/4 302/2/4 306/2/4
f 307/2/4 308/2/4 311/2/4
f 311/2/4 308/2/4 312/2/4
f 309/2/4 310/2/4 313/2/4
f 313/2/4 310/2/4 314/2/4
f 315/2/4 316/2/4 319/2/4
f 317/2/4 318/2/4 322/2/4
f 320/1/4 321/1/4 323/1/4
f 323/1/4 321/1/4 324/1/4
f 315/2/4 319/2/4 325/2/4
f 325/2/4 319/2/4 326/2/4
f 322/2/4 318/2/4 327/2/4
f 327/2/4 318/2/4 328/2/4
f 329/2/4 330/2/4 335/2/4
f 335/2/4 330/2/4 336/2/4
f 333/1/4 334/1/4 337/1/4
f 337/1/4 334/1/4 338/1/4
f 331/2/4 332/2/4 339/2/4
f 339/2/4 332/2/4 340/2/4
f 341/2/4 342/2/4 346/2/4
f 346/2/4 342/2/4 347/2/4
f 343/2/4 344/2/4 348/2/4
f 348/2/4 344/2/4 349/2/4
f 346/2/4 347/2/4 351/2/4
f 349/2/4 350/2/4 351/2/4
f 348/2/4 349/2/4 351/2/4
f 347/2/4 348/2/4 351/2/4
f 345/2/4 346/2/4 351/2/4
f 351/2/4 350/2/4 352/2/4
f 355/2/5 354/2/5 353/2/5
f 356/2/5 354/2/5 355/2/5
f 358/2/5 354/2/5 356/2/5
f 359/2/5 358/2/5 357/2/5
f 360/2/5 354/2/5 358/2/5
f 360/2/5 358/2/5 359/2/5
f 362/2/5 354/2/5 360/2/5
f 363/2/5 362/2/5 361/2/5
f 364/2/5 354/2/5 362/2/5
f 364/2/5 362/2/5 363/2/5
f 366/2/5 354/2/5 364/2/5
f 367/2/5 366/2/5 365/2/5
f 368/2/5 354/2/5 366/2/5
f 368/2/5 366/2/5 367/2/5
f 370/2/5 354/2/5 368/2/5
f 371/2/5 370/2/5 369/2/5
f 372/2/5 354/2/5 370/2/5
f 372/2/5 370/2/5 371/2/5
f 374/2/5 354/2/5 372/2/5
f 375/2/5 374/2/5 373/2/5
f 376/2/5 354/2/5 374/2/5
f 376/2/5 374/2/5 375/2/5
f 377/2/5 354/2/5 376/2/5
f 378/2/5 354/2/5 377/2/5
f 381/1/5 380/1/5 379/1/5
f 382/1/5 380/1/5 381/1/5
f 385/1/5 384/1/5 383/1/5
f 386/1/5 384/1/5 385/1/5
f 389/1/5 388/1/5 387/1/5
f 390/1/5 388/1/5 389/1/5
f 393/2/5 392/2/5 391/2/5
f 394/2/5 392/2/5 393/2/5
f 397/2/5 396/2/5 395/2/5
f 398/2/5 396/2/5 397/2/5
f 399/2/5 396/2/5 398/2/5
f 402/3/5 401/3/5 400/3/5
f 403/3/5 401/3/5 402/3/5
f 406/1/5 405/1/5 404/1/5
f 407/1/5 405/1/5 406/1/5
f 410/1/5 409/1/5 408/1/5
f 411/1/5 409/1/5 410/1/5
f 415/2/5 413/2/5 412/2/5
f 415/2/5 414/2/5 413/2/5
f 416/2/5 414/2/5 415/2/5
f 419/2/5 418/2/5 417/2/5
f 420/2/5 418/2/5 419/2/5
f 421/2/5 418/2/5 420/2/5
f 424/2/5 423/2/5 422/2/5
f 425/2/5 423/2/5 424/2/5
f 429/2/5 427/2/5 426/2/5
f 429/2/5 428/2/5 427/2/5
f 430/2/5 428/2/5 429/2/5
f 432/2/5 428/2/5 430/2/5
f 433/2/5 432/2/5 431/2/5
f 434/2/5 428/2/5 432/2/5
f 434/2/5 432/2/5 433/2/5
f 437/2/5 428/2/5 434/2/5
f 438/2/5 428/2/5 437/2/5
f 439/2/5 436/2/5 435/2/5
f 440/2/5 436/2/5 439/2/5
f 443/2/5 442/2/5 441/2/5
f 444/2/5 442/2/5 443/2/5
f 445/2/6 446/2/6 447/2/6
f 447/2/6 446/2/6 448/2/6
f 448/2/6 446/2/6 449/2/6
f 450/2/6 451/2/6 452/2/6
f 452/2/6 451/2/6 453/2/6
f 454/2/6 455/2/6 457/2/6
f 455/2/6 456/2/6 457/2/6
f 457/2/6 456/2/6 458/2/6
f 458/2/6 456/2/6 460/2/6
f 459/2/6 460/2/6 461/2/6
f 460/2/6 456/2/6 462/2/6
f 461/2/6 460/2/6 462/2/6
f 462/2/6 456/2/6 465/2/6
f 465/2/6 456/2/6 466/2/6
f 463/2/6 464/2/6 467/2/6
f 467/2/6 464/2/6 468/2/6
f 469/2/6 470/2/6 471/2/6
f 471/2/6 470/2/6 472/2/6
f 473/1/6 474/1/6 475/1/6
f 475/1/6 474/1/6 476/1/6
f 477/1/6 478/1/6 479/1/6
f 479/1/6 478/1/6 480/1/6
f 481/2/6 482/2/6 484/2/6
f 482/2/6 483/2/6 484/2/6
f 484/2/6 483/2/6 485/2/6
f 486/2/6 487/2/6 488/2/6
f 488/2/6 487/2/6 489/2/6
f 489/2/6 487/2/6 490/2/6
f 491/3/6 492/3/6 493/3/6
f 493/3/6 492/3/6 494/3/6
f 495/1/6 496/1/6 497/1/6
f 497/1/6 496/1/6 498/1/6
f 499/1/6 500/1/6 501/1/6
f 501/1/6 500/1/6 502/1/6
f 503/1/6 504/1/6 505/1/6
f 505/1/6 504/1/6 506/1/6
f 507/2/6 508/2/6 509/2/6
f 509/2/6 508/2/6 510/2/6
f 511/2/6 512/2/6 513/2/6
f 513/2/6 512/2/6 514/2/6
f 514/2/6 512/2/6 516/2/6
f 515/2/6 516/2/6 517/2/6
f 516/2/6 512/2/6 518/2/6
f 517/2/6 516/2/6 518/2/6
f 518/2/6 512/2/6 520/2/6
f 519/2/6 520/2/6 521/2/6
f 520/2/6 512/2/6 522/2/6
f 521/2/6 520/2/6 522/2/6
f 522/2/6 512/2/6 524/2/6
f 523/2/6 524/2/6 525/2/6
f 524/2/6 512/2/6 526/2/6
f 525/2/6 524/2/6 526/2/6
f 526/2/6 512/2/6 528/2/6
f 527/2/6 528/2/6 529/2/6
f 528/2/6 512/2/6 530/2/6
f 529/2/6 528/2/6 530/2/6
f 530/2/6 512/2/6 532/2/6
f 531/2/6 532/2/6 533/2/6
f 532/2/6 512/2/6 534/2/6
f 533/2/6 532/2/6 534/2/6
f 534/2/6 512/2/6 535/2/6
f 535/2/6 512/2/6 536/2/6
