# MagicaVoxel @ ephtracy

# material
mtllib Turret.mtl
usemtl palette

# normals
vn -1 0 0
vn 1 0 0
vn 0 0 1
vn 0 0 -1
vn 0 -1 0
vn 0 1 0

# texcoords
vt 0.482422 0.5
vt 0.490234 0.5
vt 0.544922 0.5

# verts
v -4.5 1 -1.5
v -4.5 1 -2.5
v -4.5 6 -1.5
v -4.5 6 -2.5
v -3.5 1 5.5
v -3.5 1 3.5
v -3.5 1 -1.5
v -3.5 1 -2.5
v -3.5 1 -5.5
v -3.5 5 5.5
v -3.5 5 3.5
v -3.5 5 -1.5
v -3.5 5 -2.5
v -3.5 5 -5.5
v -3.5 6 -1.5
v -3.5 6 -2.5
v -3.5 7 -1.5
v -3.5 7 -2.5
v -2.5 5 2.5
v -2.5 5 -1.5
v -2.5 5 -2.5
v -2.5 5 -4.5
v -2.5 6 2.5
v -2.5 6 -1.5
v -2.5 6 -2.5
v -2.5 6 -4.5
v -1.5 0 1.5
v -1.5 0 -1.5
v -1.5 1 1.5
v -1.5 1 -1.5
v 1.5 0 1.5
v 1.5 0 -1.5
v 1.5 1 1.5
v 1.5 1 -1.5
v 2.5 5 2.5
v 2.5 5 -1.5
v 2.5 5 -2.5
v 2.5 5 -4.5
v 2.5 6 2.5
v 2.5 6 -1.5
v 2.5 6 -2.5
v 2.5 6 -4.5
v 3.5 1 5.5
v 3.5 1 3.5
v 3.5 1 -1.5
v 3.5 1 -2.5
v 3.5 1 -5.5
v 3.5 5 5.5
v 3.5 5 3.5
v 3.5 5 -1.5
v 3.5 5 -2.5
v 3.5 5 -5.5
v 3.5 6 -1.5
v 3.5 6 -2.5
v 3.5 7 -1.5
v 3.5 7 -2.5
v 4.5 1 -1.5
v 4.5 1 -2.5
v 4.5 6 -1.5
v 4.5 6 -2.5
v -3.5 1 5.5
v -3.5 5 5.5
v 3.5 1 5.5
v 3.5 5 5.5
v -2.5 5 2.5
v -2.5 6 2.5
v 2.5 5 2.5
v 2.5 6 2.5
v -1.5 0 1.5
v -1.5 1 1.5
v 1.5 0 1.5
v 1.5 1 1.5
v -4.5 1 -1.5
v -4.5 6 -1.5
v -3.5 1 -1.5
v -3.5 5 -1.5
v -3.5 6 -1.5
v -3.5 7 -1.5
v -2.5 5 -1.5
v -2.5 6 -1.5
v 2.5 5 -1.5
v 2.5 6 -1.5
v 3.5 1 -1.5
v 3.5 5 -1.5
v 3.5 6 -1.5
v 3.5 7 -1.5
v 4.5 1 -1.5
v 4.5 6 -1.5
v -1.5 0 -1.5
v -1.5 1 -1.5
v 1.5 0 -1.5
v 1.5 1 -1.5
v -4.5 1 -2.5
v -4.5 6 -2.5
v -3.5 1 -2.5
v -3.5 5 -2.5
v -3.5 6 -2.5
v -3.5 7 -2.5
v -2.5 5 -2.5
v -2.5 6 -2.5
v 2.5 5 -2.5
v 2.5 6 -2.5
v 3.5 1 -2.5
v 3.5 5 -2.5
v 3.5 6 -2.5
v 3.5 7 -2.5
v 4.5 1 -2.5
v 4.5 6 -2.5
v -2.5 5 -4.5
v -2.5 6 -4.5
v 2.5 5 -4.5
v 2.5 6 -4.5
v -3.5 1 -5.5
v -3.5 5 -5.5
v 3.5 1 -5.5
v 3.5 5 -5.5
v -1.5 0 1.5
v 1.5 0 1.5
v -1.5 0 -1.5
v 1.5 0 -1.5
v -3.5 1 5.5
v 3.5 1 5.5
v -3.5 1 3.5
v 3.5 1 3.5
v -1.5 1 1.5
v 1.5 1 1.5
v -4.5 1 -1.5
v -3.5 1 -1.5
v -1.5 1 -1.5
v 1.5 1 -1.5
v 3.5 1 -1.5
v 4.5 1 -1.5
v -4.5 1 -2.5
v -3.5 1 -2.5
v 3.5 1 -2.5
v 4.5 1 -2.5
v -3.5 1 -5.5
v 3.5 1 -5.5
v -3.5 5 5.5
v 3.5 5 5.5
v -3.5 5 3.5
v 3.5 5 3.5
v -2.5 5 2.5
v 2.5 5 2.5
v -3.5 5 -1.5
v -2.5 5 -1.5
v 2.5 5 -1.5
v 3.5 5 -1.5
v -3.5 5 -2.5
v -2.5 5 -2.5
v 2.5 5 -2.5
v 3.5 5 -2.5
v -2.5 5 -4.5
v 2.5 5 -4.5
v -3.5 5 -5.5
v 3.5 5 -5.5
v -2.5 6 2.5
v 2.5 6 2.5
v -4.5 6 -1.5
v -3.5 6 -1.5
v -2.5 6 -1.5
v 2.5 6 -1.5
v 3.5 6 -1.5
v 4.5 6 -1.5
v -4.5 6 -2.5
v -3.5 6 -2.5
v -2.5 6 -2.5
v 2.5 6 -2.5
v 3.5 6 -2.5
v 4.5 6 -2.5
v -2.5 6 -4.5
v 2.5 6 -4.5
v -3.5 7 -1.5
v 3.5 7 -1.5
v -3.5 7 -2.5
v 3.5 7 -2.5

# faces
f 3/3/1 2/3/1 1/3/1
f 4/3/1 2/3/1 3/3/1
f 10/3/1 6/3/1 5/3/1
f 11/1/1 7/1/1 6/1/1
f 11/3/1 6/3/1 10/3/1
f 12/1/1 7/1/1 11/1/1
f 13/1/1 9/1/1 8/1/1
f 14/1/1 9/1/1 13/1/1
f 17/3/1 16/3/1 15/3/1
f 18/3/1 16/3/1 17/3/1
f 23/2/1 20/2/1 19/2/1
f 24/2/1 20/2/1 23/2/1
f 25/2/1 22/2/1 21/2/1
f 26/2/1 22/2/1 25/2/1
f 29/3/1 28/3/1 27/3/1
f 30/3/1 28/3/1 29/3/1
f 31/3/2 32/3/2 33/3/2
f 33/3/2 32/3/2 34/3/2
f 35/2/2 36/2/2 39/2/2
f 39/2/2 36/2/2 40/2/2
f 37/2/2 38/2/2 41/2/2
f 41/2/2 38/2/2 42/2/2
f 43/3/2 44/3/2 48/3/2
f 44/1/2 45/1/2 49/1/2
f 48/3/2 44/3/2 49/3/2
f 49/1/2 45/1/2 50/1/2
f 46/1/2 47/1/2 51/1/2
f 51/1/2 47/1/2 52/1/2
f 53/3/2 54/3/2 55/3/2
f 55/3/2 54/3/2 56/3/2
f 57/3/2 58/3/2 59/3/2
f 59/3/2 58/3/2 60/3/2
f 63/3/3 62/3/3 61/3/3
f 64/3/3 62/3/3 63/3/3
f 67/2/3 66/2/3 65/2/3
f 68/2/3 66/2/3 67/2/3
f 71/3/3 70/3/3 69/3/3
f 72/3/3 70/3/3 71/3/3
f 75/3/3 74/3/3 73/3/3
f 76/3/3 74/3/3 75/3/3
f 77/3/3 74/3/3 76/3/3
f 79/3/3 78/3/3 77/3/3
f 79/3/3 77/3/3 76/3/3
f 80/3/3 78/3/3 79/3/3
f 82/3/3 78/3/3 80/3/3
f 84/3/3 82/3/3 81/3/3
f 85/3/3 78/3/3 82/3/3
f 85/3/3 82/3/3 84/3/3
f 86/3/3 78/3/3 85/3/3
f 87/3/3 84/3/3 83/3/3
f 87/3/3 85/3/3 84/3/3
f 88/3/3 85/3/3 87/3/3
f 89/3/4 90/3/4 91/3/4
f 91/3/4 90/3/4 92/3/4
f 93/3/4 94/3/4 95/3/4
f 95/3/4 94/3/4 96/3/4
f 96/3/4 94/3/4 97/3/4
f 97/3/4 98/3/4 99/3/4
f 96/3/4 97/3/4 99/3/4
f 99/3/4 98/3/4 100/3/4
f 100/3/4 98/3/4 102/3/4
f 101/3/4 102/3/4 104/3/4
f 102/3/4 98/3/4 105/3/4
f 104/3/4 102/3/4 105/3/4
f 105/3/4 98/3/4 106/3/4
f 103/3/4 104/3/4 107/3/4
f 104/3/4 105/3/4 107/3/4
f 107/3/4 105/3/4 108/3/4
f 109/2/4 110/2/4 111/2/4
f 111/2/4 110/2/4 112/2/4
f 113/1/4 114/1/4 115/1/4
f 115/1/4 114/1/4 116/1/4
f 119/3/5 118/3/5 117/3/5
f 120/3/5 118/3/5 119/3/5
f 123/3/5 122/3/5 121/3/5
f 124/3/5 122/3/5 123/3/5
f 125/1/5 124/1/5 123/1/5
f 126/1/5 124/1/5 125/1/5
f 128/1/5 125/1/5 123/1/5
f 129/1/5 125/1/5 128/1/5
f 130/1/5 124/1/5 126/1/5
f 131/1/5 124/1/5 130/1/5
f 133/3/5 128/3/5 127/3/5
f 134/1/5 131/1/5 130/1/5
f 134/3/5 128/3/5 133/3/5
f 134/1/5 129/1/5 128/1/5
f 134/1/5 130/1/5 129/1/5
f 135/3/5 132/3/5 131/3/5
f 135/1/5 131/1/5 134/1/5
f 136/3/5 132/3/5 135/3/5
f 137/1/5 135/1/5 134/1/5
f 138/1/5 135/1/5 137/1/5
f 139/3/6 140/3/6 141/3/6
f 141/3/6 140/3/6 142/3/6
f 141/1/6 142/1/6 143/1/6
f 143/1/6 142/1/6 144/1/6
f 141/1/6 143/1/6 145/1/6
f 145/1/6 143/1/6 146/1/6
f 144/1/6 142/1/6 147/1/6
f 147/1/6 142/1/6 148/1/6
f 149/1/6 150/1/6 153/1/6
f 151/1/6 152/1/6 154/1/6
f 149/1/6 153/1/6 155/1/6
f 153/1/6 154/1/6 155/1/6
f 154/1/6 152/1/6 156/1/6
f 155/1/6 154/1/6 156/1/6
f 157/2/6 158/2/6 161/2/6
f 161/2/6 158/2/6 162/2/6
f 159/3/6 160/3/6 165/3/6
f 165/3/6 160/3/6 166/3/6
f 163/3/6 164/3/6 169/3/6
f 169/3/6 164/3/6 170/3/6
f 167/2/6 168/2/6 171/2/6
f 171/2/6 168/2/6 172/2/6
f 173/3/6 174/3/6 175/3/6
f 175/3/6 174/3/6 176/3/6
