# MagicaVoxel @ ephtracy

# material
mtllib Cannon.mtl
usemtl palette

# normals
vn -1 0 0
vn 1 0 0
vn 0 0 1
vn 0 0 -1
vn 0 -1 0
vn 0 1 0

# texcoords
vt 0.384766 0.5
vt 0.388672 0.5
vt 0.537109 0.5

# verts
v -1.5 0 -2.5
v -1.5 0 -5.5
v -1.5 1 5.5
v -1.5 1 3.5
v -1.5 1 -2.5
v -1.5 2 5.5
v -1.5 2 3.5
v -1.5 2 -2.5
v -1.5 2 -5.5
v -0.5 0 5.5
v -0.5 0 3.5
v -0.5 0 -2.5
v -0.5 1 5.5
v -0.5 1 3.5
v -0.5 1 -2.5
v -0.5 2 5.5
v -0.5 2 3.5
v -0.5 2 -2.5
v -0.5 2 -5.5
v -0.5 3 5.5
v -0.5 3 3.5
v -0.5 3 -2.5
v -0.5 3 -5.5
v 0.5 1 5.5
v 0.5 1 4.5
v 0.5 2 5.5
v 0.5 2 4.5
v -0.5 1 5.5
v -0.5 1 4.5
v -0.5 2 5.5
v -0.5 2 4.5
v 0.5 0 5.5
v 0.5 0 3.5
v 0.5 0 -2.5
v 0.5 0 -5.5
v 0.5 1 5.5
v 0.5 1 3.5
v 0.5 1 -2.5
v 0.5 1 -5.5
v 0.5 2 5.5
v 0.5 2 3.5
v 0.5 2 -2.5
v 0.5 2 -5.5
v 0.5 3 5.5
v 0.5 3 3.5
v 0.5 3 -2.5
v 0.5 3 -5.5
v 1.5 1 5.5
v 1.5 1 3.5
v 1.5 1 -2.5
v 1.5 1 -5.5
v 1.5 2 5.5
v 1.5 2 3.5
v 1.5 2 -2.5
v 1.5 2 -5.5
v -1.5 1 5.5
v -1.5 2 5.5
v -0.5 0 5.5
v -0.5 1 5.5
v -0.5 2 5.5
v -0.5 3 5.5
v 0.5 0 5.5
v 0.5 1 5.5
v 0.5 2 5.5
v 0.5 3 5.5
v 1.5 1 5.5
v 1.5 2 5.5
v -0.5 1 4.5
v -0.5 2 4.5
v 0.5 1 4.5
v 0.5 2 4.5
v -1.5 0 -2.5
v -1.5 1 -2.5
v -0.5 0 -2.5
v -0.5 1 -2.5
v -1.5 0 -5.5
v -1.5 2 -5.5
v -0.5 2 -5.5
v -0.5 3 -5.5
v 0.5 0 -5.5
v 0.5 1 -5.5
v 0.5 2 -5.5
v 0.5 3 -5.5
v 1.5 1 -5.5
v 1.5 2 -5.5
v -0.5 0 5.5
v 0.5 0 5.5
v -0.5 0 3.5
v 0.5 0 3.5
v -1.5 0 -2.5
v -0.5 0 -2.5
v 0.5 0 -2.5
v -1.5 0 -5.5
v 0.5 0 -5.5
v -1.5 1 5.5
v -0.5 1 5.5
v 0.5 1 5.5
v 1.5 1 5.5
v -1.5 1 3.5
v -0.5 1 3.5
v 0.5 1 3.5
v 1.5 1 3.5
v -1.5 1 -2.5
v -0.5 1 -2.5
v 0.5 1 -2.5
v 1.5 1 -2.5
v 0.5 1 -5.5
v 1.5 1 -5.5
v -0.5 2 5.5
v 0.5 2 5.5
v -0.5 2 4.5
v 0.5 2 4.5
v -0.5 1 5.5
v 0.5 1 5.5
v -0.5 1 4.5
v 0.5 1 4.5
v -1.5 2 5.5
v -0.5 2 5.5
v 0.5 2 5.5
v 1.5 2 5.5
v -1.5 2 3.5
v -0.5 2 3.5
v 0.5 2 3.5
v 1.5 2 3.5
v -1.5 2 -2.5
v -0.5 2 -2.5
v 0.5 2 -2.5
v 1.5 2 -2.5
v -1.5 2 -5.5
v -0.5 2 -5.5
v 0.5 2 -5.5
v 1.5 2 -5.5
v -0.5 3 5.5
v 0.5 3 5.5
v -0.5 3 3.5
v 0.5 3 3.5
v -0.5 3 -2.5
v 0.5 3 -2.5
v -0.5 3 -5.5
v 0.5 3 -5.5

# faces
f 5/1/1 2/1/1 1/1/1
f 6/1/1 4/1/1 3/1/1
f 7/2/1 5/2/1 4/2/1
f 7/1/1 4/1/1 6/1/1
f 8/1/1 2/1/1 5/1/1
f 8/2/1 5/2/1 7/2/1
f 9/1/1 2/1/1 8/1/1
f 13/1/1 11/1/1 10/1/1
f 14/2/1 12/2/1 11/2/1
f 14/1/1 11/1/1 13/1/1
f 15/2/1 12/2/1 14/2/1
f 20/1/1 17/1/1 16/1/1
f 21/2/1 18/2/1 17/2/1
f 21/1/1 17/1/1 20/1/1
f 22/1/1 19/1/1 18/1/1
f 22/2/1 18/2/1 21/2/1
f 23/1/1 19/1/1 22/1/1
f 26/1/1 25/1/1 24/1/1
f 27/1/1 25/1/1 26/1/1
f 28/1/2 29/1/2 30/1/2
f 30/1/2 29/1/2 31/1/2
f 32/1/2 33/1/2 36/1/2
f 33/2/2 34/2/2 37/2/2
f 36/1/2 33/1/2 37/1/2
f 34/1/2 35/1/2 38/1/2
f 37/2/2 34/2/2 38/2/2
f 38/1/2 35/1/2 39/1/2
f 40/1/2 41/1/2 44/1/2
f 41/2/2 42/2/2 45/2/2
f 44/1/2 41/1/2 45/1/2
f 42/1/2 43/1/2 46/1/2
f 45/2/2 42/2/2 46/2/2
f 46/1/2 43/1/2 47/1/2
f 48/1/2 49/1/2 52/1/2
f 49/2/2 50/2/2 53/2/2
f 52/1/2 49/1/2 53/1/2
f 50/1/2 51/1/2 54/1/2
f 53/2/2 50/2/2 54/2/2
f 54/1/2 51/1/2 55/1/2
f 59/1/3 57/1/3 56/1/3
f 60/1/3 57/1/3 59/1/3
f 62/1/3 59/1/3 58/1/3
f 63/1/3 59/1/3 62/1/3
f 64/1/3 61/1/3 60/1/3
f 65/1/3 61/1/3 64/1/3
f 66/1/3 64/1/3 63/1/3
f 67/1/3 64/1/3 66/1/3
f 70/3/3 69/3/3 68/3/3
f 71/3/3 69/3/3 70/3/3
f 74/1/3 73/1/3 72/1/3
f 75/1/3 73/1/3 74/1/3
f 76/1/4 77/1/4 78/1/4
f 76/1/4 78/1/4 80/1/4
f 78/1/4 79/1/4 80/1/4
f 80/1/4 79/1/4 81/1/4
f 81/1/4 79/1/4 82/1/4
f 82/1/4 79/1/4 83/1/4
f 81/1/4 82/1/4 84/1/4
f 84/1/4 82/1/4 85/1/4
f 88/1/5 87/1/5 86/1/5
f 89/1/5 87/1/5 88/1/5
f 91/2/5 89/2/5 88/2/5
f 92/2/5 89/2/5 91/2/5
f 93/1/5 91/1/5 90/1/5
f 93/1/5 92/1/5 91/1/5
f 94/1/5 92/1/5 93/1/5
f 99/1/5 96/1/5 95/1/5
f 100/1/5 96/1/5 99/1/5
f 101/1/5 98/1/5 97/1/5
f 102/1/5 98/1/5 101/1/5
f 103/2/5 100/2/5 99/2/5
f 104/2/5 100/2/5 103/2/5
f 105/2/5 102/2/5 101/2/5
f 106/2/5 102/2/5 105/2/5
f 107/1/5 106/1/5 105/1/5
f 108/1/5 106/1/5 107/1/5
f 111/1/5 110/1/5 109/1/5
f 112/1/5 110/1/5 111/1/5
f 113/1/6 114/1/6 115/1/6
f 115/1/6 114/1/6 116/1/6
f 117/1/6 118/1/6 121/1/6
f 121/1/6 118/1/6 122/1/6
f 119/1/6 120/1/6 123/1/6
f 123/1/6 120/1/6 124/1/6
f 121/2/6 122/2/6 125/2/6
f 125/2/6 122/2/6 126/2/6
f 123/2/6 124/2/6 127/2/6
f 127/2/6 124/2/6 128/2/6
f 125/1/6 126/1/6 129/1/6
f 129/1/6 126/1/6 130/1/6
f 127/1/6 128/1/6 131/1/6
f 131/1/6 128/1/6 132/1/6
f 133/1/6 134/1/6 135/1/6
f 135/1/6 134/1/6 136/1/6
f 135/2/6 136/2/6 137/2/6
f 137/2/6 136/2/6 138/2/6
f 137/1/6 138/1/6 139/1/6
f 139/1/6 138/1/6 140/1/6
