# MagicaVoxel @ ephtracy

# material
mtllib Turret.mtl
usemtl palette

# normals
vn -1 0 0
vn 1 0 0
vn 0 0 1
vn 0 0 -1
vn 0 -1 0
vn 0 1 0

# texcoords
vt 0.384766 0.5
vt 0.388672 0.5
vt 0.478516 0.5
vt 0.482422 0.5
vt 0.544922 0.5

# verts
v -5.5 1 4.5
v -5.5 1 -4.5
v -5.5 2 3.5
v -5.5 2 -3.5
v -5.5 3 2.5
v -5.5 3 0.5
v -5.5 3 -0.5
v -5.5 3 -2.5
v -5.5 4 4.5
v -5.5 4 3.5
v -5.5 4 -3.5
v -5.5 4 -4.5
v -5.5 5 3.5
v -5.5 5 2.5
v -5.5 5 -2.5
v -5.5 5 -3.5
v -5.5 6 4.5
v -5.5 6 2.5
v -5.5 6 -2.5
v -5.5 6 -4.5
v -5.5 8 0.5
v -5.5 8 -0.5
v -4.5 1 5.5
v -4.5 1 4.5
v -4.5 1 -4.5
v -4.5 1 -5.5
v -4.5 3 2.5
v -4.5 3 0.5
v -4.5 3 -0.5
v -4.5 3 -2.5
v -4.5 4 5.5
v -4.5 4 4.5
v -4.5 4 2.5
v -4.5 4 0.5
v -4.5 4 -0.5
v -4.5 4 -2.5
v -4.5 4 -4.5
v -4.5 4 -5.5
v -4.5 5 2.5
v -4.5 5 1.5
v -4.5 5 0.5
v -4.5 5 -2.5
v -4.5 6 5.5
v -4.5 6 4.5
v -4.5 6 3.5
v -4.5 6 2.5
v -4.5 6 1.5
v -4.5 6 0.5
v -4.5 6 -2.5
v -4.5 6 -3.5
v -4.5 6 -4.5
v -4.5 6 -5.5
v -4.5 7 3.5
v -4.5 7 0.5
v -4.5 7 -0.5
v -4.5 7 -3.5
v -4.5 8 0.5
v -4.5 8 -0.5
v -4.5 9 0.5
v -4.5 9 -0.5
v -3.5 6 4.5
v -3.5 6 3.5
v -3.5 6 -3.5
v -3.5 6 -4.5
v -3.5 7 4.5
v -3.5 7 3.5
v -3.5 7 2.5
v -3.5 7 0.5
v -3.5 7 -0.5
v -3.5 7 -3.5
v -3.5 7 -4.5
v -3.5 8 3.5
v -3.5 8 2.5
v -3.5 8 0.5
v -3.5 8 -0.5
v -3.5 8 -3.5
v -1.5 0 1.5
v -1.5 0 -1.5
v -1.5 1 1.5
v -1.5 1 -1.5
v -0.5 3 -4.5
v -0.5 3 -5.5
v -0.5 4 -4.5
v -0.5 7 -3.5
v -0.5 7 -4.5
v -0.5 8 -0.5
v -0.5 8 -1.5
v -0.5 8 -2.5
v -0.5 8 -3.5
v -0.5 8 -4.5
v -0.5 8 -5.5
v -0.5 9 -0.5
v -0.5 9 -4.5
v 0.5 5 5.5
v 0.5 5 4.5
v 0.5 6 5.5
v 0.5 6 4.5
v 2.5 3 -4.5
v 2.5 3 -5.5
v 2.5 5 -4.5
v 2.5 5 -5.5
v 2.5 6 -4.5
v 2.5 6 -5.5
v -2.5 3 -4.5
v -2.5 3 -5.5
v -2.5 4 -4.5
v -2.5 5 -4.5
v -2.5 5 -5.5
v -2.5 6 -4.5
v -2.5 6 -5.5
v -0.5 5 5.5
v -0.5 5 4.5
v -0.5 6 5.5
v -0.5 6 4.5
v 0.5 3 -4.5
v 0.5 3 -5.5
v 0.5 4 -4.5
v 0.5 7 -3.5
v 0.5 7 -4.5
v 0.5 8 -0.5
v 0.5 8 -2.5
v 0.5 8 -3.5
v 0.5 8 -4.5
v 0.5 8 -5.5
v 0.5 9 -0.5
v 0.5 9 -4.5
v 1.5 0 1.5
v 1.5 0 -1.5
v 1.5 1 1.5
v 1.5 1 -1.5
v 3.5 6 4.5
v 3.5 6 3.5
v 3.5 6 -3.5
v 3.5 6 -4.5
v 3.5 7 4.5
v 3.5 7 3.5
v 3.5 7 2.5
v 3.5 7 1.5
v 3.5 7 0.5
v 3.5 7 -0.5
v 3.5 7 -3.5
v 3.5 7 -4.5
v 3.5 8 3.5
v 3.5 8 0.5
v 3.5 8 -0.5
v 3.5 8 -3.5
v 4.5 1 5.5
v 4.5 1 4.5
v 4.5 1 -4.5
v 4.5 1 -5.5
v 4.5 3 2.5
v 4.5 3 0.5
v 4.5 3 -0.5
v 4.5 3 -2.5
v 4.5 4 5.5
v 4.5 4 4.5
v 4.5 4 2.5
v 4.5 4 0.5
v 4.5 4 -0.5
v 4.5 4 -2.5
v 4.5 4 -4.5
v 4.5 4 -5.5
v 4.5 5 2.5
v 4.5 5 -0.5
v 4.5 5 -1.5
v 4.5 5 -2.5
v 4.5 6 5.5
v 4.5 6 4.5
v 4.5 6 3.5
v 4.5 6 2.5
v 4.5 6 1.5
v 4.5 6 -0.5
v 4.5 6 -1.5
v 4.5 6 -2.5
v 4.5 6 -3.5
v 4.5 6 -4.5
v 4.5 6 -5.5
v 4.5 7 3.5
v 4.5 7 2.5
v 4.5 7 1.5
v 4.5 7 0.5
v 4.5 7 -0.5
v 4.5 7 -3.5
v 4.5 8 0.5
v 4.5 8 -0.5
v 4.5 9 0.5
v 4.5 9 -0.5
v 5.5 1 4.5
v 5.5 1 -4.5
v 5.5 2 3.5
v 5.5 2 -3.5
v 5.5 3 2.5
v 5.5 3 0.5
v 5.5 3 -0.5
v 5.5 3 -2.5
v 5.5 4 4.5
v 5.5 4 3.5
v 5.5 4 -3.5
v 5.5 4 -4.5
v 5.5 5 3.5
v 5.5 5 2.5
v 5.5 5 -2.5
v 5.5 5 -3.5
v 5.5 6 4.5
v 5.5 6 2.5
v 5.5 6 -2.5
v 5.5 6 -4.5
v 5.5 8 0.5
v 5.5 8 -0.5
v -4.5 1 5.5
v -4.5 4 5.5
v -4.5 6 5.5
v -1.5 4 5.5
v -1.5 6 5.5
v -0.5 2 5.5
v -0.5 4 5.5
v -0.5 5 5.5
v -0.5 6 5.5
v 0.5 2 5.5
v 0.5 4 5.5
v 0.5 5 5.5
v 0.5 6 5.5
v 1.5 4 5.5
v 1.5 6 5.5
v 4.5 1 5.5
v 4.5 4 5.5
v 4.5 6 5.5
v -5.5 1 4.5
v -5.5 4 4.5
v -5.5 6 4.5
v -4.5 1 4.5
v -4.5 4 4.5
v -4.5 6 4.5
v -3.5 6 4.5
v -3.5 7 4.5
v -1.5 6 4.5
v -0.5 5 4.5
v -0.5 6 4.5
v 0.5 5 4.5
v 0.5 6 4.5
v 0.5 7 4.5
v 1.5 6 4.5
v 1.5 7 4.5
v 3.5 6 4.5
v 3.5 7 4.5
v 4.5 1 4.5
v 4.5 4 4.5
v 4.5 6 4.5
v 5.5 1 4.5
v 5.5 4 4.5
v 5.5 6 4.5
v -4.5 6 3.5
v -4.5 7 3.5
v -3.5 6 3.5
v -3.5 7 3.5
v -3.5 8 3.5
v -2.5 7 3.5
v -2.5 8 3.5
v -0.5 7 3.5
v -0.5 8 3.5
v 0.5 7 3.5
v 0.5 8 3.5
v 1.5 7 3.5
v 3.5 6 3.5
v 3.5 7 3.5
v 3.5 8 3.5
v 4.5 6 3.5
v 4.5 7 3.5
v -1.5 0 1.5
v -1.5 1 1.5
v 1.5 0 1.5
v 1.5 1 1.5
v -5.5 3 0.5
v -5.5 8 0.5
v -4.5 3 0.5
v -4.5 4 0.5
v -4.5 5 0.5
v -4.5 6 0.5
v -4.5 7 0.5
v -4.5 8 0.5
v -4.5 9 0.5
v -3.5 7 0.5
v -3.5 8 0.5
v -2.5 8 0.5
v -1.5 8 0.5
v 3.5 7 0.5
v 3.5 8 0.5
v 4.5 3 0.5
v 4.5 4 0.5
v 4.5 7 0.5
v 4.5 8 0.5
v 4.5 9 0.5
v 5.5 3 0.5
v 5.5 8 0.5
v -5.5 3 -2.5
v -5.5 5 -2.5
v -5.5 6 -2.5
v -4.5 3 -2.5
v -4.5 4 -2.5
v -4.5 5 -2.5
v -4.5 6 -2.5
v 4.5 3 -2.5
v 4.5 4 -2.5
v 4.5 5 -2.5
v 4.5 6 -2.5
v 5.5 3 -2.5
v 5.5 5 -2.5
v 5.5 6 -2.5
v -5.5 3 2.5
v -5.5 5 2.5
v -5.5 6 2.5
v -4.5 3 2.5
v -4.5 4 2.5
v -4.5 5 2.5
v -4.5 6 2.5
v 4.5 3 2.5
v 4.5 4 2.5
v 4.5 5 2.5
v 4.5 6 2.5
v 5.5 3 2.5
v 5.5 5 2.5
v 5.5 6 2.5
v -5.5 3 -0.5
v -5.5 8 -0.5
v -4.5 3 -0.5
v -4.5 4 -0.5
v -4.5 7 -0.5
v -4.5 8 -0.5
v -4.5 9 -0.5
v -3.5 7 -0.5
v -3.5 8 -0.5
v -0.5 8 -0.5
v -0.5 9 -0.5
v 0.5 8 -0.5
v 0.5 9 -0.5
v 3.5 7 -0.5
v 3.5 8 -0.5
v 4.5 3 -0.5
v 4.5 4 -0.5
v 4.5 5 -0.5
v 4.5 6 -0.5
v 4.5 7 -0.5
v 4.5 8 -0.5
v 4.5 9 -0.5
v 5.5 3 -0.5
v 5.5 8 -0.5
v -1.5 0 -1.5
v -1.5 1 -1.5
v 1.5 0 -1.5
v 1.5 1 -1.5
v -4.5 6 -3.5
v -4.5 7 -3.5
v -3.5 6 -3.5
v -3.5 7 -3.5
v -3.5 8 -3.5
v -0.5 7 -3.5
v -0.5 8 -3.5
v 0.5 7 -3.5
v 0.5 8 -3.5
v 1.5 7 -3.5
v 1.5 8 -3.5
v 3.5 6 -3.5
v 3.5 7 -3.5
v 3.5 8 -3.5
v 4.5 6 -3.5
v 4.5 7 -3.5
v -5.5 1 -4.5
v -5.5 4 -4.5
v -5.5 6 -4.5
v -4.5 1 -4.5
v -4.5 4 -4.5
v -4.5 6 -4.5
v -3.5 6 -4.5
v -3.5 7 -4.5
v -2.5 3 -4.5
v -2.5 4 -4.5
v -2.5 5 -4.5
v -2.5 6 -4.5
v -0.5 3 -4.5
v -0.5 4 -4.5
v -0.5 7 -4.5
v -0.5 8 -4.5
v -0.5 9 -4.5
v 0.5 3 -4.5
v 0.5 4 -4.5
v 0.5 7 -4.5
v 0.5 8 -4.5
v 0.5 9 -4.5
v 1.5 4 -4.5
v 1.5 5 -4.5
v 2.5 3 -4.5
v 2.5 5 -4.5
v 2.5 6 -4.5
v 3.5 6 -4.5
v 3.5 7 -4.5
v 4.5 1 -4.5
v 4.5 4 -4.5
v 4.5 6 -4.5
v 5.5 1 -4.5
v 5.5 4 -4.5
v 5.5 6 -4.5
v -4.5 1 -5.5
v -4.5 4 -5.5
v -4.5 6 -5.5
v -3.5 2 -5.5
v -3.5 4 -5.5
v -3.5 5 -5.5
v -2.5 3 -5.5
v -2.5 5 -5.5
v -2.5 6 -5.5
v -0.5 3 -5.5
v -0.5 8 -5.5
v 0.5 3 -5.5
v 0.5 8 -5.5
v 2.5 3 -5.5
v 2.5 5 -5.5
v 2.5 6 -5.5
v 3.5 2 -5.5
v 3.5 4 -5.5
v 3.5 5 -5.5
v 4.5 1 -5.5
v 4.5 4 -5.5
v 4.5 6 -5.5
v -1.5 0 1.5
v 1.5 0 1.5
v -1.5 0 -1.5
v 1.5 0 -1.5
v -4.5 1 5.5
v 4.5 1 5.5
v -5.5 1 4.5
v -4.5 1 4.5
v 4.5 1 4.5
v 5.5 1 4.5
v -1.5 1 1.5
v 1.5 1 1.5
v -1.5 1 -1.5
v 1.5 1 -1.5
v -5.5 1 -4.5
v -4.5 1 -4.5
v 4.5 1 -4.5
v 5.5 1 -4.5
v -4.5 1 -5.5
v 4.5 1 -5.5
v -5.5 3 2.5
v -4.5 3 2.5
v 4.5 3 2.5
v 5.5 3 2.5
v -5.5 3 0.5
v -4.5 3 0.5
v 4.5 3 0.5
v 5.5 3 0.5
v -5.5 3 -0.5
v -4.5 3 -0.5
v 4.5 3 -0.5
v 5.5 3 -0.5
v -5.5 3 -2.5
v -4.5 3 -2.5
v 4.5 3 -2.5
v 5.5 3 -2.5
v -2.5 3 -4.5
v -0.5 3 -4.5
v 0.5 3 -4.5
v 2.5 3 -4.5
v -2.5 3 -5.5
v -0.5 3 -5.5
v 0.5 3 -5.5
v 2.5 3 -5.5
v -0.5 5 5.5
v 0.5 5 5.5
v -0.5 5 4.5
v 0.5 5 4.5
v -4.5 6 5.5
v -1.5 6 5.5
v -0.5 6 5.5
v 0.5 6 5.5
v 1.5 6 5.5
v 4.5 6 5.5
v -5.5 6 4.5
v -4.5 6 4.5
v -3.5 6 4.5
v -1.5 6 4.5
v -0.5 6 4.5
v 0.5 6 4.5
v 1.5 6 4.5
v 3.5 6 4.5
v 4.5 6 4.5
v 5.5 6 4.5
v -4.5 6 3.5
v -3.5 6 3.5
v 3.5 6 3.5
v 4.5 6 3.5
v -5.5 6 2.5
v -4.5 6 2.5
v 4.5 6 2.5
v 5.5 6 2.5
v -5.5 6 -2.5
v -4.5 6 -2.5
v 4.5 6 -2.5
v 5.5 6 -2.5
v -4.5 6 -3.5
v -3.5 6 -3.5
v 3.5 6 -3.5
v 4.5 6 -3.5
v -5.5 6 -4.5
v -4.5 6 -4.5
v -3.5 6 -4.5
v -2.5 6 -4.5
v 2.5 6 -4.5
v 3.5 6 -4.5
v 4.5 6 -4.5
v 5.5 6 -4.5
v -4.5 6 -5.5
v -2.5 6 -5.5
v 2.5 6 -5.5
v 4.5 6 -5.5
v -3.5 7 4.5
v 0.5 7 4.5
v 1.5 7 4.5
v 3.5 7 4.5
v -4.5 7 3.5
v -3.5 7 3.5
v -2.5 7 3.5
v -0.5 7 3.5
v 0.5 7 3.5
v 1.5 7 3.5
v 3.5 7 3.5
v 4.5 7 3.5
v -3.5 7 2.5
v 3.5 7 2.5
v 4.5 7 2.5
v 3.5 7 1.5
v 4.5 7 1.5
v -4.5 7 0.5
v -3.5 7 0.5
v 3.5 7 0.5
v 4.5 7 0.5
v -4.5 7 -0.5
v -3.5 7 -0.5
v 3.5 7 -0.5
v 4.5 7 -0.5
v -4.5 7 -3.5
v -3.5 7 -3.5
v -0.5 7 -3.5
v 0.5 7 -3.5
v 1.5 7 -3.5
v 3.5 7 -3.5
v 4.5 7 -3.5
v -3.5 7 -4.5
v -0.5 7 -4.5
v 0.5 7 -4.5
v 3.5 7 -4.5
v -3.5 8 3.5
v -2.5 8 3.5
v -0.5 8 3.5
v 0.5 8 3.5
v 3.5 8 3.5
v -3.5 8 2.5
v -2.5 8 2.5
v -0.5 8 2.5
v 0.5 8 2.5
v -2.5 8 1.5
v -1.5 8 1.5
v -5.5 8 0.5
v -4.5 8 0.5
v -3.5 8 0.5
v -2.5 8 0.5
v -1.5 8 0.5
v 3.5 8 0.5
v 4.5 8 0.5
v 5.5 8 0.5
v -5.5 8 -0.5
v -4.5 8 -0.5
v -3.5 8 -0.5
v -0.5 8 -0.5
v 0.5 8 -0.5
v 3.5 8 -0.5
v 4.5 8 -0.5
v 5.5 8 -0.5
v -1.5 8 -1.5
v -0.5 8 -1.5
v -1.5 8 -2.5
v -0.5 8 -2.5
v 0.5 8 -2.5
v 1.5 8 -2.5
v -3.5 8 -3.5
v -0.5 8 -3.5
v 0.5 8 -3.5
v 1.5 8 -3.5
v 3.5 8 -3.5
v -0.5 8 -4.5
v 0.5 8 -4.5
v -0.5 8 -5.5
v 0.5 8 -5.5
v -4.5 9 0.5
v 4.5 9 0.5
v -4.5 9 -0.5
v -0.5 9 -0.5
v 0.5 9 -0.5
v 4.5 9 -0.5
v -0.5 9 -4.5
v 0.5 9 -4.5

# faces
f 3/3/1 2/3/1 1/3/1
f 4/3/1 2/3/1 3/3/1
f 5/5/1 4/5/1 3/5/1
f 6/5/1 4/5/1 5/5/1
f 7/5/1 4/5/1 6/5/1
f 8/5/1 4/5/1 7/5/1
f 9/3/1 3/3/1 1/3/1
f 10/5/1 5/5/1 3/5/1
f 10/3/1 3/3/1 9/3/1
f 11/5/1 4/5/1 8/5/1
f 11/3/1 2/3/1 4/3/1
f 12/3/1 2/3/1 11/3/1
f 13/5/1 5/5/1 10/5/1
f 13/4/1 10/4/1 9/4/1
f 14/5/1 5/5/1 13/5/1
f 15/5/1 11/5/1 8/5/1
f 16/4/1 12/4/1 11/4/1
f 16/5/1 11/5/1 15/5/1
f 17/4/1 14/4/1 13/4/1
f 17/4/1 13/4/1 9/4/1
f 18/4/1 14/4/1 17/4/1
f 19/4/1 16/4/1 15/4/1
f 20/4/1 12/4/1 16/4/1
f 20/4/1 16/4/1 19/4/1
f 21/5/1 7/5/1 6/5/1
f 22/5/1 7/5/1 21/5/1
f 31/3/1 24/3/1 23/3/1
f 32/3/1 24/3/1 31/3/1
f 33/1/1 28/1/1 27/1/1
f 34/1/1 28/1/1 33/1/1
f 35/1/1 30/1/1 29/1/1
f 36/1/1 30/1/1 35/1/1
f 37/3/1 26/3/1 25/3/1
f 38/3/1 26/3/1 37/3/1
f 39/2/1 34/2/1 33/2/1
f 40/2/1 34/2/1 39/2/1
f 41/2/1 34/2/1 40/2/1
f 42/2/1 36/2/1 35/2/1
f 43/4/1 32/4/1 31/4/1
f 44/4/1 32/4/1 43/4/1
f 46/2/1 40/2/1 39/2/1
f 47/1/1 41/1/1 40/1/1
f 47/2/1 40/2/1 46/2/1
f 48/1/1 41/1/1 47/1/1
f 49/2/1 42/2/1 35/2/1
f 51/4/1 38/4/1 37/4/1
f 52/4/1 38/4/1 51/4/1
f 53/2/1 46/2/1 45/2/1
f 53/2/1 48/2/1 47/2/1
f 53/2/1 47/2/1 46/2/1
f 54/2/1 48/2/1 53/2/1
f 55/2/1 49/2/1 35/2/1
f 55/2/1 50/2/1 49/2/1
f 56/2/1 50/2/1 55/2/1
f 59/5/1 58/5/1 57/5/1
f 60/5/1 58/5/1 59/5/1
f 65/2/1 62/2/1 61/2/1
f 66/2/1 62/2/1 65/2/1
f 70/2/1 64/2/1 63/2/1
f 71/2/1 64/2/1 70/2/1
f 72/1/1 67/1/1 66/1/1
f 73/2/1 68/2/1 67/2/1
f 73/1/1 67/1/1 72/1/1
f 74/2/1 68/2/1 73/2/1
f 75/2/1 70/2/1 69/2/1
f 76/2/1 70/2/1 75/2/1
f 79/5/1 78/5/1 77/5/1
f 80/5/1 78/5/1 79/5/1
f 83/5/1 82/5/1 81/5/1
f 85/5/1 82/5/1 83/5/1
f 89/5/1 85/5/1 84/5/1
f 90/5/1 82/5/1 85/5/1
f 90/5/1 85/5/1 89/5/1
f 91/5/1 82/5/1 90/5/1
f 92/5/1 89/5/1 88/5/1
f 92/5/1 88/5/1 87/5/1
f 92/5/1 90/5/1 89/5/1
f 92/5/1 87/5/1 86/5/1
f 93/5/1 90/5/1 92/5/1
f 96/5/1 95/5/1 94/5/1
f 97/5/1 95/5/1 96/5/1
f 100/5/1 99/5/1 98/5/1
f 101/5/1 99/5/1 100/5/1
f 102/4/1 101/4/1 100/4/1
f 103/4/1 101/4/1 102/4/1
f 104/5/2 105/5/2 106/5/2
f 106/5/2 105/5/2 107/5/2
f 107/5/2 105/5/2 108/5/2
f 107/4/2 108/4/2 109/4/2
f 109/4/2 108/4/2 110/4/2
f 111/5/2 112/5/2 113/5/2
f 113/5/2 112/5/2 114/5/2
f 115/5/2 116/5/2 117/5/2
f 117/5/2 116/5/2 119/5/2
f 118/5/2 119/5/2 122/5/2
f 119/5/2 116/5/2 123/5/2
f 122/5/2 119/5/2 123/5/2
f 123/5/2 116/5/2 124/5/2
f 121/5/2 122/5/2 125/5/2
f 120/5/2 121/5/2 125/5/2
f 122/5/2 123/5/2 125/5/2
f 125/5/2 123/5/2 126/5/2
f 127/5/2 128/5/2 129/5/2
f 129/5/2 128/5/2 130/5/2
f 131/2/2 132/2/2 135/2/2
f 135/2/2 132/2/2 136/2/2
f 133/2/2 134/2/2 141/2/2
f 141/2/2 134/2/2 142/2/2
f 138/2/2 139/2/2 143/2/2
f 136/2/2 137/2/2 143/2/2
f 137/2/2 138/2/2 143/2/2
f 143/2/2 139/2/2 144/2/2
f 140/2/2 141/2/2 145/2/2
f 145/2/2 141/2/2 146/2/2
f 147/3/2 148/3/2 155/3/2
f 155/3/2 148/3/2 156/3/2
f 151/1/2 152/1/2 157/1/2
f 157/1/2 152/1/2 158/1/2
f 153/1/2 154/1/2 159/1/2
f 159/1/2 154/1/2 160/1/2
f 149/3/2 150/3/2 161/3/2
f 161/3/2 150/3/2 162/3/2
f 157/2/2 158/2/2 163/2/2
f 159/2/2 160/2/2 164/2/2
f 164/2/2 160/2/2 165/2/2
f 165/2/2 160/2/2 166/2/2
f 155/4/2 156/4/2 167/4/2
f 167/4/2 156/4/2 168/4/2
f 163/2/2 158/2/2 170/2/2
f 170/2/2 158/2/2 171/2/2
f 164/1/2 165/1/2 172/1/2
f 165/2/2 166/2/2 173/2/2
f 172/1/2 165/1/2 173/1/2
f 173/2/2 166/2/2 174/2/2
f 161/4/2 162/4/2 176/4/2
f 176/4/2 162/4/2 177/4/2
f 169/2/2 170/2/2 178/2/2
f 170/1/2 171/1/2 179/1/2
f 178/2/2 170/2/2 179/2/2
f 171/2/2 158/2/2 180/2/2
f 179/1/2 171/1/2 180/1/2
f 180/2/2 158/2/2 181/2/2
f 173/2/2 174/2/2 182/2/2
f 174/2/2 175/2/2 182/2/2
f 172/2/2 173/2/2 182/2/2
f 182/2/2 175/2/2 183/2/2
f 184/5/2 185/5/2 186/5/2
f 186/5/2 185/5/2 187/5/2
f 188/3/2 189/3/2 190/3/2
f 190/3/2 189/3/2 191/3/2
f 190/5/2 191/5/2 192/5/2
f 192/5/2 191/5/2 193/5/2
f 193/5/2 191/5/2 194/5/2
f 194/5/2 191/5/2 195/5/2
f 188/3/2 190/3/2 196/3/2
f 190/5/2 192/5/2 197/5/2
f 196/3/2 190/3/2 197/3/2
f 195/5/2 191/5/2 198/5/2
f 191/3/2 189/3/2 198/3/2
f 198/3/2 189/3/2 199/3/2
f 197/5/2 192/5/2 200/5/2
f 196/4/2 197/4/2 200/4/2
f 200/5/2 192/5/2 201/5/2
f 195/5/2 198/5/2 202/5/2
f 198/4/2 199/4/2 203/4/2
f 202/5/2 198/5/2 203/5/2
f 200/4/2 201/4/2 204/4/2
f 196/4/2 200/4/2 204/4/2
f 204/4/2 201/4/2 205/4/2
f 202/4/2 203/4/2 206/4/2
f 203/4/2 199/4/2 207/4/2
f 206/4/2 203/4/2 207/4/2
f 193/5/2 194/5/2 208/5/2
f 208/5/2 194/5/2 209/5/2
f 213/3/3 211/3/3 210/3/3
f 213/4/3 212/4/3 211/4/3
f 214/4/3 212/4/3 213/4/3
f 215/3/3 213/3/3 210/3/3
f 216/5/3 214/5/3 213/5/3
f 216/3/3 213/3/3 215/3/3
f 217/5/3 214/5/3 216/5/3
f 218/5/3 214/5/3 217/5/3
f 219/3/3 215/3/3 210/3/3
f 219/5/3 216/5/3 215/5/3
f 219/5/3 217/5/3 216/5/3
f 220/5/3 217/5/3 219/5/3
f 221/5/3 217/5/3 220/5/3
f 223/3/3 220/3/3 219/3/3
f 223/5/3 222/5/3 221/5/3
f 223/5/3 221/5/3 220/5/3
f 224/5/3 222/5/3 223/5/3
f 225/3/3 219/3/3 210/3/3
f 225/3/3 223/3/3 219/3/3
f 226/4/3 224/4/3 223/4/3
f 226/3/3 223/3/3 225/3/3
f 227/4/3 224/4/3 226/4/3
f 231/3/3 229/3/3 228/3/3
f 232/4/3 230/4/3 229/4/3
f 232/3/3 229/3/3 231/3/3
f 233/4/3 230/4/3 232/4/3
f 236/2/3 235/2/3 234/2/3
f 238/2/3 235/2/3 236/2/3
f 239/2/3 238/2/3 237/2/3
f 240/2/3 235/2/3 238/2/3
f 240/2/3 238/2/3 239/2/3
f 241/2/3 235/2/3 240/2/3
f 242/1/3 241/1/3 240/1/3
f 243/1/3 241/1/3 242/1/3
f 244/2/3 243/2/3 242/2/3
f 245/2/3 243/2/3 244/2/3
f 249/3/3 247/3/3 246/3/3
f 250/4/3 248/4/3 247/4/3
f 250/3/3 247/3/3 249/3/3
f 251/4/3 248/4/3 250/4/3
f 254/2/3 253/2/3 252/2/3
f 255/2/3 253/2/3 254/2/3
f 257/1/3 256/1/3 255/1/3
f 258/1/3 256/1/3 257/1/3
f 259/2/3 258/2/3 257/2/3
f 260/2/3 258/2/3 259/2/3
f 261/1/3 260/1/3 259/1/3
f 262/1/3 260/1/3 261/1/3
f 263/2/3 262/2/3 261/2/3
f 265/2/3 262/2/3 263/2/3
f 266/2/3 262/2/3 265/2/3
f 267/2/3 265/2/3 264/2/3
f 268/2/3 265/2/3 267/2/3
f 271/5/3 270/5/3 269/5/3
f 272/5/3 270/5/3 271/5/3
f 275/5/3 274/5/3 273/5/3
f 276/5/3 274/5/3 275/5/3
f 277/5/3 274/5/3 276/5/3
f 278/5/3 274/5/3 277/5/3
f 279/5/3 274/5/3 278/5/3
f 280/5/3 274/5/3 279/5/3
f 282/5/3 281/5/3 280/5/3
f 282/5/3 280/5/3 279/5/3
f 283/5/3 281/5/3 282/5/3
f 284/5/3 281/5/3 283/5/3
f 285/5/3 281/5/3 284/5/3
f 287/5/3 281/5/3 285/5/3
f 290/5/3 287/5/3 286/5/3
f 291/5/3 281/5/3 287/5/3
f 291/5/3 287/5/3 290/5/3
f 292/5/3 281/5/3 291/5/3
f 293/5/3 290/5/3 289/5/3
f 293/5/3 289/5/3 288/5/3
f 293/5/3 291/5/3 290/5/3
f 294/5/3 291/5/3 293/5/3
f 298/5/3 296/5/3 295/5/3
f 299/5/3 296/5/3 298/5/3
f 300/4/3 297/4/3 296/4/3
f 300/5/3 296/5/3 299/5/3
f 301/4/3 297/4/3 300/4/3
f 306/5/3 303/5/3 302/5/3
f 306/5/3 304/5/3 303/5/3
f 307/4/3 305/4/3 304/4/3
f 307/5/3 304/5/3 306/5/3
f 308/4/3 305/4/3 307/4/3
f 309/5/4 310/5/4 312/5/4
f 312/5/4 310/5/4 313/5/4
f 310/4/4 311/4/4 314/4/4
f 313/5/4 310/5/4 314/5/4
f 314/4/4 311/4/4 315/4/4
f 316/5/4 317/5/4 320/5/4
f 317/5/4 318/5/4 320/5/4
f 318/4/4 319/4/4 321/4/4
f 320/5/4 318/5/4 321/5/4
f 321/4/4 319/4/4 322/4/4
f 323/5/4 324/5/4 325/5/4
f 325/5/4 324/5/4 326/5/4
f 326/5/4 324/5/4 327/5/4
f 327/5/4 324/5/4 328/5/4
f 328/5/4 329/5/4 330/5/4
f 327/5/4 328/5/4 330/5/4
f 330/5/4 329/5/4 331/5/4
f 331/5/4 329/5/4 332/5/4
f 332/5/4 329/5/4 333/5/4
f 334/5/4 335/5/4 337/5/4
f 336/5/4 337/5/4 342/5/4
f 337/5/4 335/5/4 343/5/4
f 342/5/4 337/5/4 343/5/4
f 343/5/4 335/5/4 344/5/4
f 341/5/4 342/5/4 345/5/4
f 340/5/4 341/5/4 345/5/4
f 342/5/4 343/5/4 345/5/4
f 338/5/4 339/5/4 345/5/4
f 339/5/4 340/5/4 345/5/4
f 345/5/4 343/5/4 346/5/4
f 347/5/4 348/5/4 349/5/4
f 349/5/4 348/5/4 350/5/4
f 351/2/4 352/2/4 353/2/4
f 353/2/4 352/2/4 354/2/4
f 354/2/4 355/2/4 356/2/4
f 356/2/4 355/2/4 357/2/4
f 358/1/4 359/1/4 360/1/4
f 360/1/4 359/1/4 361/1/4
f 360/2/4 361/2/4 363/2/4
f 363/2/4 361/2/4 364/2/4
f 362/2/4 363/2/4 365/2/4
f 365/2/4 363/2/4 366/2/4
f 367/3/4 368/3/4 370/3/4
f 368/4/4 369/4/4 371/4/4
f 370/3/4 368/3/4 371/3/4
f 371/4/4 369/4/4 372/4/4
f 373/2/4 374/2/4 378/2/4
f 375/1/4 376/1/4 379/1/4
f 376/2/4 377/2/4 380/2/4
f 379/1/4 376/1/4 380/1/4
f 377/2/4 378/2/4 380/2/4
f 378/2/4 374/2/4 381/2/4
f 380/2/4 378/2/4 381/2/4
f 382/5/4 383/5/4 387/5/4
f 387/5/4 383/5/4 388/5/4
f 385/2/4 386/2/4 389/2/4
f 384/1/4 385/1/4 389/1/4
f 389/2/4 386/2/4 390/2/4
f 384/1/4 389/1/4 391/1/4
f 389/1/4 390/1/4 391/1/4
f 390/2/4 386/2/4 392/2/4
f 391/1/4 390/1/4 392/1/4
f 392/2/4 386/2/4 393/2/4
f 393/2/4 386/2/4 394/2/4
f 394/2/4 386/2/4 395/2/4
f 396/3/4 397/3/4 399/3/4
f 397/4/4 398/4/4 400/4/4
f 399/3/4 397/3/4 400/3/4
f 400/4/4 398/4/4 401/4/4
f 402/3/4 403/3/4 405/3/4
f 403/4/4 404/4/4 406/4/4
f 405/3/4 403/3/4 406/3/4
f 406/4/4 404/4/4 407/4/4
f 405/5/4 406/5/4 408/5/4
f 406/5/4 407/5/4 408/5/4
f 407/4/4 404/4/4 409/4/4
f 408/5/4 407/5/4 409/5/4
f 409/4/4 404/4/4 410/4/4
f 405/5/4 408/5/4 411/5/4
f 405/5/4 411/5/4 413/5/4
f 411/5/4 412/5/4 413/5/4
f 413/5/4 412/5/4 414/5/4
f 405/5/4 413/5/4 415/5/4
f 402/3/4 405/3/4 418/3/4
f 405/5/4 415/5/4 418/5/4
f 415/5/4 416/5/4 418/5/4
f 418/5/4 416/5/4 419/5/4
f 416/4/4 417/4/4 420/4/4
f 419/5/4 416/5/4 420/5/4
f 418/3/4 419/3/4 421/3/4
f 402/3/4 418/3/4 421/3/4
f 419/4/4 420/4/4 422/4/4
f 421/3/4 419/3/4 422/3/4
f 420/4/4 417/4/4 423/4/4
f 422/4/4 420/4/4 423/4/4
f 426/5/5 425/5/5 424/5/5
f 427/5/5 425/5/5 426/5/5
f 431/3/5 429/3/5 428/3/5
f 432/3/5 429/3/5 431/3/5
f 434/3/5 431/3/5 430/3/5
f 434/3/5 433/3/5 432/3/5
f 434/3/5 432/3/5 431/3/5
f 435/3/5 433/3/5 434/3/5
f 436/3/5 434/3/5 430/3/5
f 437/3/5 433/3/5 435/3/5
f 438/3/5 436/3/5 430/3/5
f 438/3/5 437/3/5 436/3/5
f 439/3/5 437/3/5 438/3/5
f 440/3/5 433/3/5 437/3/5
f 440/3/5 437/3/5 439/3/5
f 441/3/5 433/3/5 440/3/5
f 442/3/5 440/3/5 439/3/5
f 443/3/5 440/3/5 442/3/5
f 444/5/6 445/5/6 448/5/6
f 448/5/6 445/5/6 449/5/6
f 446/5/6 447/5/6 450/5/6
f 450/5/6 447/5/6 451/5/6
f 452/5/6 453/5/6 456/5/6
f 456/5/6 453/5/6 457/5/6
f 454/5/6 455/5/6 458/5/6
f 458/5/6 455/5/6 459/5/6
f 460/5/6 461/5/6 464/5/6
f 464/5/6 461/5/6 465/5/6
f 462/5/6 463/5/6 466/5/6
f 466/5/6 463/5/6 467/5/6
f 468/5/6 469/5/6 470/5/6
f 470/5/6 469/5/6 471/5/6
f 472/4/6 473/4/6 479/4/6
f 479/4/6 473/4/6 480/4/6
f 473/5/6 474/5/6 481/5/6
f 480/4/6 473/4/6 481/4/6
f 481/5/6 474/5/6 482/5/6
f 475/5/6 476/5/6 483/5/6
f 476/4/6 477/4/6 484/4/6
f 483/5/6 476/5/6 484/5/6
f 484/4/6 477/4/6 485/4/6
f 485/4/6 477/4/6 486/4/6
f 479/4/6 480/4/6 488/4/6
f 478/4/6 479/4/6 488/4/6
f 488/4/6 480/4/6 489/4/6
f 486/4/6 487/4/6 490/4/6
f 485/4/6 486/4/6 490/4/6
f 490/4/6 487/4/6 491/4/6
f 478/4/6 488/4/6 492/4/6
f 492/4/6 488/4/6 493/4/6
f 491/4/6 487/4/6 494/4/6
f 494/4/6 487/4/6 495/4/6
f 496/4/6 497/4/6 500/4/6
f 498/4/6 499/4/6 503/4/6
f 500/4/6 501/4/6 504/4/6
f 496/4/6 500/4/6 504/4/6
f 504/4/6 501/4/6 505/4/6
f 505/4/6 501/4/6 506/4/6
f 502/4/6 503/4/6 509/4/6
f 503/4/6 499/4/6 510/4/6
f 509/4/6 503/4/6 510/4/6
f 510/4/6 499/4/6 511/4/6
f 506/4/6 507/4/6 512/4/6
f 505/4/6 506/4/6 512/4/6
f 512/4/6 507/4/6 513/4/6
f 508/4/6 509/4/6 514/4/6
f 509/4/6 510/4/6 514/4/6
f 514/4/6 510/4/6 515/4/6
f 516/2/6 517/2/6 521/2/6
f 521/2/6 517/2/6 522/2/6
f 522/2/6 517/2/6 523/2/6
f 517/1/6 518/1/6 524/1/6
f 523/2/6 517/2/6 524/2/6
f 518/2/6 519/2/6 525/2/6
f 524/1/6 518/1/6 525/1/6
f 525/2/6 519/2/6 526/2/6
f 520/2/6 521/2/6 528/2/6
f 526/2/6 527/2/6 529/2/6
f 529/2/6 527/2/6 530/2/6
f 529/1/6 530/1/6 531/1/6
f 531/1/6 530/1/6 532/1/6
f 520/2/6 528/2/6 533/2/6
f 533/2/6 528/2/6 534/2/6
f 531/2/6 532/2/6 535/2/6
f 535/2/6 532/2/6 536/2/6
f 537/2/6 538/2/6 541/2/6
f 541/2/6 538/2/6 542/2/6
f 539/2/6 540/2/6 546/2/6
f 546/2/6 540/2/6 547/2/6
f 542/2/6 543/2/6 548/2/6
f 548/2/6 543/2/6 549/2/6
f 544/2/6 545/2/6 550/2/6
f 545/2/6 546/2/6 550/2/6
f 550/2/6 546/2/6 551/2/6
f 552/1/6 553/1/6 557/1/6
f 553/2/6 554/2/6 558/2/6
f 557/1/6 553/1/6 558/1/6
f 554/1/6 555/1/6 559/1/6
f 558/2/6 554/2/6 559/2/6
f 555/2/6 556/2/6 560/2/6
f 559/1/6 555/1/6 560/1/6
f 558/2/6 559/2/6 561/2/6
f 557/2/6 558/2/6 561/2/6
f 559/2/6 560/2/6 561/2/6
f 561/2/6 560/2/6 562/2/6
f 557/2/6 561/2/6 565/2/6
f 561/1/6 562/1/6 566/1/6
f 565/2/6 561/2/6 566/2/6
f 562/2/6 560/2/6 567/2/6
f 566/1/6 562/1/6 567/1/6
f 560/2/6 556/2/6 568/2/6
f 567/2/6 560/2/6 568/2/6
f 563/5/6 564/5/6 571/5/6
f 571/5/6 564/5/6 572/5/6
f 569/5/6 570/5/6 577/5/6
f 577/5/6 570/5/6 578/5/6
f 573/2/6 574/2/6 579/2/6
f 579/2/6 574/2/6 580/2/6
f 573/2/6 579/2/6 581/2/6
f 579/1/6 580/1/6 581/1/6
f 581/1/6 580/1/6 582/1/6
f 575/2/6 576/2/6 583/2/6
f 583/2/6 576/2/6 584/2/6
f 581/2/6 582/2/6 585/2/6
f 573/2/6 581/2/6 585/2/6
f 585/2/6 582/2/6 586/2/6
f 583/1/6 584/1/6 587/1/6
f 584/2/6 576/2/6 588/2/6
f 587/1/6 584/1/6 588/1/6
f 588/2/6 576/2/6 589/2/6
f 590/5/6 591/5/6 592/5/6
f 592/5/6 591/5/6 593/5/6
f 594/5/6 595/5/6 596/5/6
f 596/5/6 595/5/6 597/5/6
f 597/5/6 595/5/6 598/5/6
f 598/5/6 595/5/6 599/5/6
f 597/5/6 598/5/6 600/5/6
f 600/5/6 598/5/6 601/5/6
