# MagicaVoxel @ ephtracy

# material
mtllib Turret.mtl
usemtl palette

# normals
vn -1 0 0
vn 1 0 0
vn 0 0 1
vn 0 0 -1
vn 0 -1 0
vn 0 1 0

# texcoords
vt 0.478516 0.5
vt 0.482422 0.5
vt 0.490234 0.5
vt 0.544922 0.5
vt 0.560547 0.5

# verts
v -5.5 1 3.5
v -5.5 1 -3.5
v -5.5 2 2.5
v -5.5 2 -3.5
v -5.5 3 2.5
v -5.5 3 -3.5
v -5.5 4 2.5
v -5.5 4 -3.5
v -5.5 5 2.5
v -5.5 5 -3.5
v -5.5 6 2.5
v -5.5 6 -3.5
v -5.5 7 2.5
v -5.5 7 -3.5
v -5.5 8 2.5
v -5.5 8 -3.5
v -5.5 9 2.5
v -5.5 9 -3.5
v -5.5 10 3.5
v -5.5 10 -3.5
v -1.5 0 0.5
v -1.5 0 -0.5
v -1.5 2 1.5
v -1.5 2 0.5
v -1.5 2 -0.5
v -1.5 2 -1.5
v -1.5 4 1.5
v -1.5 4 0.5
v -1.5 4 -0.5
v -1.5 4 -1.5
v -1.5 6 1.5
v -1.5 6 0.5
v -1.5 6 -0.5
v -1.5 6 -1.5
v -1.5 8 1.5
v -1.5 8 -1.5
v -0.5 0 1.5
v -0.5 0 0.5
v -0.5 0 -0.5
v -0.5 0 -1.5
v -0.5 2 1.5
v -0.5 2 0.5
v -0.5 2 -0.5
v -0.5 2 -1.5
v -0.5 8 0.5
v -0.5 8 -0.5
v -0.5 9 0.5
v -0.5 9 -0.5
v 2.5 1 3.5
v 2.5 1 0.5
v 2.5 1 -0.5
v 2.5 1 -3.5
v 2.5 4 2.5
v 2.5 4 0.5
v 2.5 4 -0.5
v 2.5 4 -2.5
v 2.5 5 2.5
v 2.5 5 -2.5
v 2.5 6 2.5
v 2.5 6 0.5
v 2.5 6 -0.5
v 2.5 6 -2.5
v 2.5 10 3.5
v 2.5 10 0.5
v 2.5 10 -0.5
v 2.5 10 -3.5
v -2.5 1 3.5
v -2.5 1 0.5
v -2.5 1 -0.5
v -2.5 1 -3.5
v -2.5 4 2.5
v -2.5 4 0.5
v -2.5 4 -0.5
v -2.5 4 -2.5
v -2.5 5 2.5
v -2.5 5 -2.5
v -2.5 6 2.5
v -2.5 6 0.5
v -2.5 6 -0.5
v -2.5 6 -2.5
v -2.5 10 3.5
v -2.5 10 0.5
v -2.5 10 -0.5
v -2.5 10 -3.5
v 0.5 0 1.5
v 0.5 0 0.5
v 0.5 0 -0.5
v 0.5 0 -1.5
v 0.5 2 1.5
v 0.5 2 0.5
v 0.5 2 -0.5
v 0.5 2 -1.5
v 0.5 8 0.5
v 0.5 8 -0.5
v 0.5 9 0.5
v 0.5 9 -0.5
v 1.5 0 0.5
v 1.5 0 -0.5
v 1.5 2 1.5
v 1.5 2 0.5
v 1.5 2 -0.5
v 1.5 2 -1.5
v 1.5 4 1.5
v 1.5 4 0.5
v 1.5 4 -0.5
v 1.5 4 -1.5
v 1.5 6 1.5
v 1.5 6 0.5
v 1.5 6 -0.5
v 1.5 6 -1.5
v 1.5 8 1.5
v 1.5 8 -1.5
v 5.5 1 3.5
v 5.5 1 -3.5
v 5.5 2 2.5
v 5.5 2 -3.5
v 5.5 3 2.5
v 5.5 3 -3.5
v 5.5 4 2.5
v 5.5 4 -3.5
v 5.5 5 2.5
v 5.5 5 -3.5
v 5.5 6 2.5
v 5.5 6 -3.5
v 5.5 7 2.5
v 5.5 7 -3.5
v 5.5 8 2.5
v 5.5 8 -3.5
v 5.5 9 2.5
v 5.5 9 -3.5
v 5.5 10 3.5
v 5.5 10 -3.5
v -5.5 1 3.5
v -5.5 10 3.5
v -4.5 1 3.5
v -4.5 10 3.5
v -3.5 1 3.5
v -3.5 10 3.5
v -2.5 1 3.5
v -2.5 10 3.5
v 2.5 1 3.5
v 2.5 10 3.5
v 3.5 1 3.5
v 3.5 10 3.5
v 4.5 1 3.5
v 4.5 10 3.5
v 5.5 1 3.5
v 5.5 10 3.5
v -2.5 4 2.5
v -2.5 5 2.5
v -2.5 6 2.5
v 2.5 4 2.5
v 2.5 5 2.5
v 2.5 6 2.5
v -1.5 2 1.5
v -1.5 4 1.5
v -1.5 6 1.5
v -1.5 8 1.5
v -0.5 0 1.5
v -0.5 2 1.5
v 0.5 0 1.5
v 0.5 2 1.5
v 1.5 2 1.5
v 1.5 4 1.5
v 1.5 6 1.5
v 1.5 8 1.5
v -1.5 0 0.5
v -1.5 2 0.5
v -0.5 0 0.5
v -0.5 2 0.5
v -0.5 8 0.5
v -0.5 9 0.5
v 0.5 0 0.5
v 0.5 2 0.5
v 0.5 8 0.5
v 0.5 9 0.5
v 1.5 0 0.5
v 1.5 2 0.5
v -1.5 0 -0.5
v -1.5 2 -0.5
v -0.5 0 -0.5
v -0.5 2 -0.5
v -0.5 8 -0.5
v -0.5 9 -0.5
v 0.5 0 -0.5
v 0.5 2 -0.5
v 0.5 8 -0.5
v 0.5 9 -0.5
v 1.5 0 -0.5
v 1.5 2 -0.5
v -1.5 2 -1.5
v -1.5 4 -1.5
v -1.5 6 -1.5
v -1.5 8 -1.5
v -0.5 0 -1.5
v -0.5 2 -1.5
v 0.5 0 -1.5
v 0.5 2 -1.5
v 1.5 2 -1.5
v 1.5 4 -1.5
v 1.5 6 -1.5
v 1.5 8 -1.5
v -2.5 4 -2.5
v -2.5 5 -2.5
v -2.5 6 -2.5
v 2.5 4 -2.5
v 2.5 5 -2.5
v 2.5 6 -2.5
v -5.5 1 -3.5
v -5.5 2 -3.5
v -5.5 3 -3.5
v -5.5 4 -3.5
v -5.5 5 -3.5
v -5.5 6 -3.5
v -5.5 7 -3.5
v -5.5 8 -3.5
v -5.5 9 -3.5
v -5.5 10 -3.5
v -4.5 1 -3.5
v -4.5 2 -3.5
v -4.5 3 -3.5
v -4.5 4 -3.5
v -4.5 5 -3.5
v -4.5 6 -3.5
v -4.5 7 -3.5
v -4.5 8 -3.5
v -4.5 9 -3.5
v -4.5 10 -3.5
v -3.5 1 -3.5
v -3.5 10 -3.5
v -2.5 1 -3.5
v -2.5 10 -3.5
v 2.5 1 -3.5
v 2.5 10 -3.5
v 3.5 1 -3.5
v 3.5 10 -3.5
v 4.5 1 -3.5
v 4.5 2 -3.5
v 4.5 3 -3.5
v 4.5 4 -3.5
v 4.5 5 -3.5
v 4.5 6 -3.5
v 4.5 7 -3.5
v 4.5 8 -3.5
v 4.5 9 -3.5
v 4.5 10 -3.5
v 5.5 1 -3.5
v 5.5 2 -3.5
v 5.5 3 -3.5
v 5.5 4 -3.5
v 5.5 5 -3.5
v 5.5 6 -3.5
v 5.5 7 -3.5
v 5.5 8 -3.5
v 5.5 9 -3.5
v 5.5 10 -3.5
v -0.5 0 1.5
v 0.5 0 1.5
v -1.5 0 0.5
v -0.5 0 0.5
v 0.5 0 0.5
v 1.5 0 0.5
v -1.5 0 -0.5
v -0.5 0 -0.5
v 0.5 0 -0.5
v 1.5 0 -0.5
v -0.5 0 -1.5
v 0.5 0 -1.5
v -5.5 1 3.5
v -4.5 1 3.5
v -3.5 1 3.5
v -2.5 1 3.5
v 2.5 1 3.5
v 3.5 1 3.5
v 4.5 1 3.5
v 5.5 1 3.5
v -3.5 1 0.5
v -2.5 1 0.5
v 2.5 1 0.5
v 3.5 1 0.5
v -3.5 1 -0.5
v -2.5 1 -0.5
v 2.5 1 -0.5
v 3.5 1 -0.5
v -5.5 1 -3.5
v -4.5 1 -3.5
v -3.5 1 -3.5
v -2.5 1 -3.5
v 2.5 1 -3.5
v 3.5 1 -3.5
v 4.5 1 -3.5
v 5.5 1 -3.5
v -1.5 2 1.5
v -0.5 2 1.5
v 0.5 2 1.5
v 1.5 2 1.5
v -1.5 2 0.5
v -0.5 2 0.5
v 0.5 2 0.5
v 1.5 2 0.5
v -1.5 2 -0.5
v -0.5 2 -0.5
v 0.5 2 -0.5
v 1.5 2 -0.5
v -1.5 2 -1.5
v -0.5 2 -1.5
v 0.5 2 -1.5
v 1.5 2 -1.5
v -2.5 4 2.5
v 2.5 4 2.5
v -1.5 4 1.5
v 1.5 4 1.5
v -2.5 4 0.5
v -1.5 4 0.5
v 1.5 4 0.5
v 2.5 4 0.5
v -2.5 4 -0.5
v -1.5 4 -0.5
v 1.5 4 -0.5
v 2.5 4 -0.5
v -1.5 4 -1.5
v 1.5 4 -1.5
v -2.5 4 -2.5
v 2.5 4 -2.5
v -2.5 6 2.5
v 2.5 6 2.5
v -1.5 6 1.5
v 1.5 6 1.5
v -2.5 6 0.5
v -1.5 6 0.5
v 1.5 6 0.5
v 2.5 6 0.5
v -2.5 6 -0.5
v -1.5 6 -0.5
v 1.5 6 -0.5
v 2.5 6 -0.5
v -1.5 6 -1.5
v 1.5 6 -1.5
v -2.5 6 -2.5
v 2.5 6 -2.5
v -1.5 8 1.5
v 1.5 8 1.5
v -0.5 8 0.5
v 0.5 8 0.5
v -0.5 8 -0.5
v 0.5 8 -0.5
v -1.5 8 -1.5
v 1.5 8 -1.5
v -0.5 9 0.5
v 0.5 9 0.5
v -0.5 9 -0.5
v 0.5 9 -0.5
v -5.5 10 3.5
v -4.5 10 3.5
v -3.5 10 3.5
v -2.5 10 3.5
v 2.5 10 3.5
v 3.5 10 3.5
v 4.5 10 3.5
v 5.5 10 3.5
v -3.5 10 0.5
v -2.5 10 0.5
v 2.5 10 0.5
v 3.5 10 0.5
v -3.5 10 -0.5
v -2.5 10 -0.5
v 2.5 10 -0.5
v 3.5 10 -0.5
v -5.5 10 -3.5
v -4.5 10 -3.5
v -3.5 10 -3.5
v -2.5 10 -3.5
v 2.5 10 -3.5
v 3.5 10 -3.5
v 4.5 10 -3.5
v 5.5 10 -3.5

# faces
f 3/2/1 2/2/1 1/2/1
f 4/2/1 2/2/1 3/2/1
f 5/2/1 3/2/1 1/2/1
f 5/3/1 4/3/1 3/3/1
f 6/3/1 4/3/1 5/3/1
f 7/2/1 5/2/1 1/2/1
f 7/2/1 6/2/1 5/2/1
f 8/2/1 6/2/1 7/2/1
f 9/2/1 7/2/1 1/2/1
f 9/3/1 8/3/1 7/3/1
f 10/3/1 8/3/1 9/3/1
f 11/2/1 9/2/1 1/2/1
f 11/2/1 10/2/1 9/2/1
f 12/2/1 10/2/1 11/2/1
f 13/2/1 11/2/1 1/2/1
f 13/3/1 12/3/1 11/3/1
f 14/3/1 12/3/1 13/3/1
f 15/2/1 13/2/1 1/2/1
f 15/2/1 14/2/1 13/2/1
f 16/2/1 14/2/1 15/2/1
f 17/2/1 15/2/1 1/2/1
f 17/3/1 16/3/1 15/3/1
f 18/3/1 16/3/1 17/3/1
f 19/2/1 17/2/1 1/2/1
f 19/2/1 18/2/1 17/2/1
f 20/2/1 18/2/1 19/2/1
f 24/4/1 22/4/1 21/4/1
f 25/4/1 22/4/1 24/4/1
f 27/4/1 24/4/1 23/4/1
f 27/4/1 26/4/1 25/4/1
f 27/4/1 25/4/1 24/4/1
f 28/4/1 26/4/1 27/4/1
f 29/4/1 26/4/1 28/4/1
f 30/4/1 26/4/1 29/4/1
f 35/4/1 32/4/1 31/4/1
f 35/4/1 34/4/1 33/4/1
f 35/4/1 33/4/1 32/4/1
f 36/4/1 34/4/1 35/4/1
f 41/4/1 38/4/1 37/4/1
f 42/4/1 38/4/1 41/4/1
f 43/4/1 40/4/1 39/4/1
f 44/4/1 40/4/1 43/4/1
f 47/5/1 46/5/1 45/5/1
f 48/5/1 46/5/1 47/5/1
f 53/2/1 50/2/1 49/2/1
f 54/4/1 51/4/1 50/4/1
f 54/2/1 50/2/1 53/2/1
f 55/2/1 52/2/1 51/2/1
f 55/4/1 51/4/1 54/4/1
f 56/2/1 52/2/1 55/2/1
f 57/2/1 53/2/1 49/2/1
f 58/2/1 52/2/1 56/2/1
f 59/2/1 57/2/1 49/2/1
f 62/2/1 52/2/1 58/2/1
f 63/2/1 59/2/1 49/2/1
f 63/2/1 60/2/1 59/2/1
f 64/4/1 61/4/1 60/4/1
f 64/2/1 60/2/1 63/2/1
f 65/2/1 62/2/1 61/2/1
f 65/4/1 61/4/1 64/4/1
f 66/2/1 52/2/1 62/2/1
f 66/2/1 62/2/1 65/2/1
f 67/2/2 68/2/2 71/2/2
f 68/4/2 69/4/2 72/4/2
f 71/2/2 68/2/2 72/2/2
f 69/2/2 70/2/2 73/2/2
f 72/4/2 69/4/2 73/4/2
f 73/2/2 70/2/2 74/2/2
f 67/2/2 71/2/2 75/2/2
f 74/2/2 70/2/2 76/2/2
f 67/2/2 75/2/2 77/2/2
f 76/2/2 70/2/2 80/2/2
f 67/2/2 77/2/2 81/2/2
f 77/2/2 78/2/2 81/2/2
f 78/4/2 79/4/2 82/4/2
f 81/2/2 78/2/2 82/2/2
f 79/2/2 80/2/2 83/2/2
f 82/4/2 79/4/2 83/4/2
f 80/2/2 70/2/2 84/2/2
f 83/2/2 80/2/2 84/2/2
f 85/4/2 86/4/2 89/4/2
f 89/4/2 86/4/2 90/4/2
f 87/4/2 88/4/2 91/4/2
f 91/4/2 88/4/2 92/4/2
f 93/5/2 94/5/2 95/5/2
f 95/5/2 94/5/2 96/5/2
f 97/4/2 98/4/2 100/4/2
f 100/4/2 98/4/2 101/4/2
f 99/4/2 100/4/2 103/4/2
f 101/4/2 102/4/2 103/4/2
f 100/4/2 101/4/2 103/4/2
f 103/4/2 102/4/2 104/4/2
f 104/4/2 102/4/2 105/4/2
f 105/4/2 102/4/2 106/4/2
f 107/4/2 108/4/2 111/4/2
f 109/4/2 110/4/2 111/4/2
f 108/4/2 109/4/2 111/4/2
f 111/4/2 110/4/2 112/4/2
f 113/2/2 114/2/2 115/2/2
f 115/2/2 114/2/2 116/2/2
f 113/2/2 115/2/2 117/2/2
f 115/3/2 116/3/2 117/3/2
f 117/3/2 116/3/2 118/3/2
f 113/2/2 117/2/2 119/2/2
f 117/2/2 118/2/2 119/2/2
f 119/2/2 118/2/2 120/2/2
f 113/2/2 119/2/2 121/2/2
f 119/3/2 120/3/2 121/3/2
f 121/3/2 120/3/2 122/3/2
f 113/2/2 121/2/2 123/2/2
f 121/2/2 122/2/2 123/2/2
f 123/2/2 122/2/2 124/2/2
f 113/2/2 123/2/2 125/2/2
f 123/3/2 124/3/2 125/3/2
f 125/3/2 124/3/2 126/3/2
f 113/2/2 125/2/2 127/2/2
f 125/2/2 126/2/2 127/2/2
f 127/2/2 126/2/2 128/2/2
f 113/2/2 127/2/2 129/2/2
f 127/3/2 128/3/2 129/3/2
f 129/3/2 128/3/2 130/3/2
f 113/2/2 129/2/2 131/2/2
f 129/2/2 130/2/2 131/2/2
f 131/2/2 130/2/2 132/2/2
f 135/2/3 134/2/3 133/2/3
f 136/2/3 134/2/3 135/2/3
f 137/4/3 136/4/3 135/4/3
f 138/4/3 136/4/3 137/4/3
f 139/2/3 138/2/3 137/2/3
f 140/2/3 138/2/3 139/2/3
f 143/2/3 142/2/3 141/2/3
f 144/2/3 142/2/3 143/2/3
f 145/4/3 144/4/3 143/4/3
f 146/4/3 144/4/3 145/4/3
f 147/2/3 146/2/3 145/2/3
f 148/2/3 146/2/3 147/2/3
f 152/1/3 150/1/3 149/1/3
f 153/3/3 151/3/3 150/3/3
f 153/1/3 150/1/3 152/1/3
f 154/3/3 151/3/3 153/3/3
f 160/4/3 156/4/3 155/4/3
f 161/4/3 160/4/3 159/4/3
f 162/4/3 156/4/3 160/4/3
f 162/4/3 160/4/3 161/4/3
f 163/4/3 156/4/3 162/4/3
f 164/4/3 156/4/3 163/4/3
f 165/4/3 158/4/3 157/4/3
f 166/4/3 158/4/3 165/4/3
f 169/4/3 168/4/3 167/4/3
f 170/4/3 168/4/3 169/4/3
f 175/5/3 172/5/3 171/5/3
f 176/5/3 172/5/3 175/5/3
f 177/4/3 174/4/3 173/4/3
f 178/4/3 174/4/3 177/4/3
f 179/4/4 180/4/4 181/4/4
f 181/4/4 180/4/4 182/4/4
f 183/5/4 184/5/4 187/5/4
f 187/5/4 184/5/4 188/5/4
f 185/4/4 186/4/4 189/4/4
f 189/4/4 186/4/4 190/4/4
f 191/4/4 192/4/4 196/4/4
f 195/4/4 196/4/4 197/4/4
f 196/4/4 192/4/4 198/4/4
f 197/4/4 196/4/4 198/4/4
f 198/4/4 192/4/4 199/4/4
f 199/4/4 192/4/4 200/4/4
f 193/4/4 194/4/4 201/4/4
f 201/4/4 194/4/4 202/4/4
f 203/1/4 204/1/4 206/1/4
f 204/3/4 205/3/4 207/3/4
f 206/1/4 204/1/4 207/1/4
f 207/3/4 205/3/4 208/3/4
f 209/2/4 210/2/4 219/2/4
f 210/3/4 211/3/4 220/3/4
f 219/2/4 210/2/4 220/2/4
f 211/2/4 212/2/4 221/2/4
f 220/3/4 211/3/4 221/3/4
f 212/3/4 213/3/4 222/3/4
f 221/2/4 212/2/4 222/2/4
f 213/2/4 214/2/4 223/2/4
f 222/3/4 213/3/4 223/3/4
f 214/3/4 215/3/4 224/3/4
f 223/2/4 214/2/4 224/2/4
f 215/2/4 216/2/4 225/2/4
f 224/3/4 215/3/4 225/3/4
f 216/3/4 217/3/4 226/3/4
f 225/2/4 216/2/4 226/2/4
f 217/2/4 218/2/4 227/2/4
f 226/3/4 217/3/4 227/3/4
f 227/2/4 218/2/4 228/2/4
f 225/4/4 226/4/4 229/4/4
f 219/4/4 220/4/4 229/4/4
f 227/4/4 228/4/4 229/4/4
f 226/4/4 227/4/4 229/4/4
f 224/4/4 225/4/4 229/4/4
f 223/4/4 224/4/4 229/4/4
f 222/4/4 223/4/4 229/4/4
f 221/4/4 222/4/4 229/4/4
f 220/4/4 221/4/4 229/4/4
f 229/4/4 228/4/4 230/4/4
f 229/2/4 230/2/4 231/2/4
f 231/2/4 230/2/4 232/2/4
f 233/2/4 234/2/4 235/2/4
f 235/2/4 234/2/4 236/2/4
f 235/4/4 236/4/4 237/4/4
f 237/4/4 236/4/4 238/4/4
f 238/4/4 236/4/4 239/4/4
f 239/4/4 236/4/4 240/4/4
f 240/4/4 236/4/4 241/4/4
f 241/4/4 236/4/4 242/4/4
f 242/4/4 236/4/4 243/4/4
f 243/4/4 236/4/4 244/4/4
f 244/4/4 236/4/4 245/4/4
f 245/4/4 236/4/4 246/4/4
f 237/2/4 238/2/4 247/2/4
f 238/3/4 239/3/4 248/3/4
f 247/2/4 238/2/4 248/2/4
f 239/2/4 240/2/4 249/2/4
f 248/3/4 239/3/4 249/3/4
f 240/3/4 241/3/4 250/3/4
f 249/2/4 240/2/4 250/2/4
f 241/2/4 242/2/4 251/2/4
f 250/3/4 241/3/4 251/3/4
f 242/3/4 243/3/4 252/3/4
f 251/2/4 242/2/4 252/2/4
f 243/2/4 244/2/4 253/2/4
f 252/3/4 243/3/4 253/3/4
f 244/3/4 245/3/4 254/3/4
f 253/2/4 244/2/4 254/2/4
f 245/2/4 246/2/4 255/2/4
f 254/3/4 245/3/4 255/3/4
f 255/2/4 246/2/4 256/2/4
f 260/4/5 258/4/5 257/4/5
f 261/4/5 258/4/5 260/4/5
f 263/4/5 260/4/5 259/4/5
f 263/4/5 262/4/5 261/4/5
f 263/4/5 261/4/5 260/4/5
f 264/4/5 262/4/5 263/4/5
f 265/4/5 262/4/5 264/4/5
f 266/4/5 262/4/5 265/4/5
f 267/4/5 265/4/5 264/4/5
f 268/4/5 265/4/5 267/4/5
f 277/4/5 271/4/5 270/4/5
f 277/2/5 272/2/5 271/2/5
f 278/2/5 272/2/5 277/2/5
f 279/2/5 274/2/5 273/2/5
f 280/4/5 275/4/5 274/4/5
f 280/2/5 274/2/5 279/2/5
f 281/4/5 278/4/5 277/4/5
f 281/4/5 277/4/5 270/4/5
f 282/4/5 278/4/5 281/4/5
f 283/4/5 280/4/5 279/4/5
f 284/4/5 275/4/5 280/4/5
f 284/4/5 280/4/5 283/4/5
f 285/2/5 270/2/5 269/2/5
f 286/4/5 281/4/5 270/4/5
f 286/2/5 270/2/5 285/2/5
f 287/2/5 282/2/5 281/2/5
f 287/4/5 281/4/5 286/4/5
f 288/2/5 282/2/5 287/2/5
f 289/2/5 284/2/5 283/2/5
f 290/4/5 275/4/5 284/4/5
f 290/2/5 284/2/5 289/2/5
f 291/2/5 276/2/5 275/2/5
f 291/4/5 275/4/5 290/4/5
f 292/2/5 276/2/5 291/2/5
f 297/4/5 294/4/5 293/4/5
f 298/4/5 294/4/5 297/4/5
f 299/4/5 296/4/5 295/4/5
f 300/4/5 296/4/5 299/4/5
f 305/4/5 302/4/5 301/4/5
f 306/4/5 302/4/5 305/4/5
f 307/4/5 304/4/5 303/4/5
f 308/4/5 304/4/5 307/4/5
f 311/1/5 310/1/5 309/1/5
f 312/1/5 310/1/5 311/1/5
f 313/1/5 311/1/5 309/1/5
f 314/1/5 311/1/5 313/1/5
f 315/1/5 310/1/5 312/1/5
f 316/1/5 310/1/5 315/1/5
f 317/4/5 314/4/5 313/4/5
f 318/4/5 314/4/5 317/4/5
f 319/4/5 316/4/5 315/4/5
f 320/4/5 316/4/5 319/4/5
f 321/1/5 318/1/5 317/1/5
f 322/1/5 320/1/5 319/1/5
f 323/1/5 321/1/5 317/1/5
f 323/1/5 322/1/5 321/1/5
f 324/1/5 320/1/5 322/1/5
f 324/1/5 322/1/5 323/1/5
f 325/3/6 326/3/6 327/3/6
f 327/3/6 326/3/6 328/3/6
f 325/3/6 327/3/6 329/3/6
f 329/3/6 327/3/6 330/3/6
f 328/3/6 326/3/6 331/3/6
f 331/3/6 326/3/6 332/3/6
f 329/4/6 330/4/6 333/4/6
f 333/4/6 330/4/6 334/4/6
f 331/4/6 332/4/6 335/4/6
f 335/4/6 332/4/6 336/4/6
f 333/3/6 334/3/6 337/3/6
f 335/3/6 336/3/6 338/3/6
f 333/3/6 337/3/6 339/3/6
f 337/3/6 338/3/6 339/3/6
f 338/3/6 336/3/6 340/3/6
f 339/3/6 338/3/6 340/3/6
f 341/4/6 342/4/6 343/4/6
f 343/4/6 342/4/6 344/4/6
f 341/4/6 343/4/6 345/4/6
f 344/4/6 342/4/6 346/4/6
f 341/4/6 345/4/6 347/4/6
f 345/4/6 346/4/6 347/4/6
f 346/4/6 342/4/6 348/4/6
f 347/4/6 346/4/6 348/4/6
f 349/5/6 350/5/6 351/5/6
f 351/5/6 350/5/6 352/5/6
f 354/4/6 355/4/6 361/4/6
f 355/2/6 356/2/6 361/2/6
f 361/2/6 356/2/6 362/2/6
f 357/2/6 358/2/6 363/2/6
f 358/4/6 359/4/6 364/4/6
f 363/2/6 358/2/6 364/2/6
f 361/4/6 362/4/6 365/4/6
f 354/4/6 361/4/6 365/4/6
f 365/4/6 362/4/6 366/4/6
f 363/4/6 364/4/6 367/4/6
f 364/4/6 359/4/6 368/4/6
f 367/4/6 364/4/6 368/4/6
f 353/2/6 354/2/6 369/2/6
f 354/4/6 365/4/6 370/4/6
f 369/2/6 354/2/6 370/2/6
f 365/2/6 366/2/6 371/2/6
f 370/4/6 365/4/6 371/4/6
f 371/2/6 366/2/6 372/2/6
f 367/2/6 368/2/6 373/2/6
f 368/4/6 359/4/6 374/4/6
f 373/2/6 368/2/6 374/2/6
f 359/2/6 360/2/6 375/2/6
f 374/4/6 359/4/6 375/4/6
f 375/2/6 360/2/6 376/2/6
