# MagicaVoxel @ ephtracy

# material
mtllib Cover.mtl
usemtl palette

# normals
vn -1 0 0
vn 1 0 0
vn 0 0 1
vn 0 0 -1
vn 0 -1 0
vn 0 1 0

# texcoords
vt 0.478516 0.5
vt 0.482422 0.5
vt 0.490234 0.5
vt 0.544922 0.5

# verts
v -10.5 4 -11
v -10.5 4 -12
v -10.5 5 -2
v -10.5 5 -3
v -10.5 6 -3
v -10.5 6 -5
v -10.5 6 -6
v -10.5 6 -7
v -10.5 6 -8
v -10.5 6 -9
v -10.5 6 -10
v -10.5 6 -11
v -10.5 7 -2
v -10.5 7 -5
v -10.5 7 -6
v -10.5 7 -7
v -10.5 7 -8
v -10.5 7 -9
v -10.5 7 -10
v -10.5 7 -12
v -9.5 4 13
v -9.5 4 11
v -9.5 5 3
v -9.5 5 2
v -9.5 6 12
v -9.5 6 11
v -9.5 6 10
v -9.5 6 9
v -9.5 6 8
v -9.5 6 7
v -9.5 6 3
v -9.5 7 13
v -9.5 7 12
v -9.5 7 11
v -9.5 7 10
v -9.5 7 9
v -9.5 7 8
v -9.5 7 7
v -9.5 7 2
v -7.5 3 -12
v -7.5 3 -13
v -7.5 4 -12
v -7.5 6 2
v -7.5 6 -2
v -7.5 7 2
v -7.5 7 -2
v -7.5 7 -12
v -7.5 7 -13
v -2.5 0 13
v -2.5 0 12
v -2.5 4 13
v -2.5 4 12
v 7.5 4 12
v 7.5 4 11
v 7.5 4 -11
v 7.5 4 -12
v 7.5 5 3
v 7.5 5 2
v 7.5 5 -2
v 7.5 5 -3
v 7.5 6 12
v 7.5 6 11
v 7.5 6 3
v 7.5 6 2
v 7.5 6 -2
v 7.5 6 -3
v 7.5 6 -11
v 7.5 6 -12
v -7.5 4 12
v -7.5 4 11
v -7.5 4 -11
v -7.5 4 -12
v -7.5 5 3
v -7.5 5 2
v -7.5 5 -2
v -7.5 5 -3
v -7.5 6 12
v -7.5 6 11
v -7.5 6 3
v -7.5 6 2
v -7.5 6 -2
v -7.5 6 -3
v -7.5 6 -11
v -7.5 6 -12
v 2.5 0 13
v 2.5 0 12
v 2.5 4 13
v 2.5 4 12
v 7.5 3 -12
v 7.5 3 -13
v 7.5 4 -12
v 7.5 6 2
v 7.5 6 -2
v 7.5 7 2
v 7.5 7 -2
v 7.5 7 -12
v 7.5 7 -13
v 9.5 4 13
v 9.5 4 11
v 9.5 5 3
v 9.5 5 2
v 9.5 6 12
v 9.5 6 11
v 9.5 6 10
v 9.5 6 9
v 9.5 6 8
v 9.5 6 7
v 9.5 6 3
v 9.5 7 13
v 9.5 7 12
v 9.5 7 11
v 9.5 7 10
v 9.5 7 9
v 9.5 7 8
v 9.5 7 7
v 9.5 7 2
v 10.5 4 -11
v 10.5 4 -12
v 10.5 5 -2
v 10.5 5 -3
v 10.5 6 -3
v 10.5 6 -5
v 10.5 6 -6
v 10.5 6 -7
v 10.5 6 -8
v 10.5 6 -9
v 10.5 6 -10
v 10.5 6 -11
v 10.5 7 -2
v 10.5 7 -5
v 10.5 7 -6
v 10.5 7 -7
v 10.5 7 -8
v 10.5 7 -9
v 10.5 7 -10
v 10.5 7 -12
v -9.5 4 13
v -9.5 7 13
v -5.5 4 13
v -5.5 7 13
v -2.5 0 13
v -2.5 4 13
v -2.5 7 13
v -1.5 1 13
v -1.5 7 13
v 1.5 1 13
v 1.5 7 13
v 2.5 0 13
v 2.5 4 13
v 2.5 7 13
v 5.5 4 13
v 5.5 7 13
v 9.5 4 13
v 9.5 7 13
v -9.5 5 3
v -9.5 6 3
v -7.5 5 3
v -7.5 6 3
v 7.5 5 3
v 7.5 6 3
v 9.5 5 3
v 9.5 6 3
v -10.5 5 -2
v -10.5 7 -2
v -7.5 5 -2
v -7.5 6 -2
v -7.5 7 -2
v 7.5 5 -2
v 7.5 6 -2
v 7.5 7 -2
v 10.5 5 -2
v 10.5 7 -2
v -10.5 4 -11
v -10.5 6 -11
v -7.5 4 -11
v -7.5 6 -11
v 7.5 4 -11
v 7.5 6 -11
v 10.5 4 -11
v 10.5 6 -11
v -7.5 3 -12
v -7.5 4 -12
v -7.5 6 -12
v -5.5 3 -12
v -5.5 6 -12
v -2.5 3 -12
v -2.5 6 -12
v -1.5 4 -12
v -1.5 6 -12
v 1.5 4 -12
v 1.5 6 -12
v 2.5 3 -12
v 2.5 6 -12
v 5.5 3 -12
v 5.5 6 -12
v 7.5 3 -12
v 7.5 4 -12
v 7.5 6 -12
v -7.5 4 12
v -7.5 6 12
v -5.5 4 12
v -5.5 6 12
v -2.5 0 12
v -2.5 4 12
v -2.5 6 12
v -1.5 1 12
v -1.5 6 12
v 1.5 1 12
v 1.5 6 12
v 2.5 0 12
v 2.5 4 12
v 2.5 6 12
v 5.5 4 12
v 5.5 6 12
v 7.5 4 12
v 7.5 6 12
v -9.5 4 11
v -9.5 6 11
v -7.5 4 11
v -7.5 6 11
v 7.5 4 11
v 7.5 6 11
v 9.5 4 11
v 9.5 6 11
v -9.5 5 2
v -9.5 7 2
v -7.5 5 2
v -7.5 6 2
v -7.5 7 2
v 7.5 5 2
v 7.5 6 2
v 7.5 7 2
v 9.5 5 2
v 9.5 7 2
v -10.5 5 -3
v -10.5 6 -3
v -7.5 5 -3
v -7.5 6 -3
v 7.5 5 -3
v 7.5 6 -3
v 10.5 5 -3
v 10.5 6 -3
v -10.5 4 -12
v -10.5 7 -12
v -7.5 4 -12
v -7.5 7 -12
v 7.5 4 -12
v 7.5 7 -12
v 10.5 4 -12
v 10.5 7 -12
v -7.5 3 -13
v -7.5 7 -13
v -5.5 3 -13
v -5.5 7 -13
v -2.5 3 -13
v -2.5 7 -13
v -1.5 4 -13
v -1.5 7 -13
v 1.5 4 -13
v 1.5 7 -13
v 2.5 3 -13
v 2.5 7 -13
v 5.5 3 -13
v 5.5 7 -13
v 7.5 3 -13
v 7.5 7 -13
v -2.5 0 13
v 2.5 0 13
v -2.5 0 12
v 2.5 0 12
v -7.5 3 -12
v -5.5 3 -12
v -2.5 3 -12
v 2.5 3 -12
v 5.5 3 -12
v 7.5 3 -12
v -7.5 3 -13
v -5.5 3 -13
v -2.5 3 -13
v 2.5 3 -13
v 5.5 3 -13
v 7.5 3 -13
v -9.5 4 13
v -5.5 4 13
v -2.5 4 13
v 2.5 4 13
v 5.5 4 13
v 9.5 4 13
v -7.5 4 12
v -5.5 4 12
v -2.5 4 12
v 2.5 4 12
v 5.5 4 12
v 7.5 4 12
v -9.5 4 11
v -7.5 4 11
v 7.5 4 11
v 9.5 4 11
v -10.5 4 -11
v -7.5 4 -11
v 7.5 4 -11
v 10.5 4 -11
v -10.5 4 -12
v -7.5 4 -12
v 7.5 4 -12
v 10.5 4 -12
v -9.5 5 3
v -7.5 5 3
v 7.5 5 3
v 9.5 5 3
v -9.5 5 2
v -7.5 5 2
v 7.5 5 2
v 9.5 5 2
v -10.5 5 -2
v -7.5 5 -2
v 7.5 5 -2
v 10.5 5 -2
v -10.5 5 -3
v -7.5 5 -3
v 7.5 5 -3
v 10.5 5 -3
v -7.5 6 12
v -5.5 6 12
v -2.5 6 12
v -1.5 6 12
v 1.5 6 12
v 2.5 6 12
v 5.5 6 12
v 7.5 6 12
v -9.5 6 11
v -7.5 6 11
v -5.5 6 11
v -2.5 6 11
v -1.5 6 11
v 1.5 6 11
v 2.5 6 11
v 5.5 6 11
v 7.5 6 11
v 9.5 6 11
v -9.5 6 10
v -5.5 6 10
v -2.5 6 10
v -1.5 6 10
v 1.5 6 10
v 2.5 6 10
v 5.5 6 10
v 9.5 6 10
v -9.5 6 9
v -5.5 6 9
v -2.5 6 9
v -1.5 6 9
v 1.5 6 9
v 2.5 6 9
v 5.5 6 9
v 9.5 6 9
v -9.5 6 8
v -5.5 6 8
v -2.5 6 8
v -1.5 6 8
v 1.5 6 8
v 2.5 6 8
v 5.5 6 8
v 9.5 6 8
v -9.5 6 7
v -5.5 6 7
v -2.5 6 7
v -1.5 6 7
v 1.5 6 7
v 2.5 6 7
v 5.5 6 7
v 9.5 6 7
v -9.5 6 3
v -7.5 6 3
v 7.5 6 3
v 9.5 6 3
v -7.5 6 2
v 7.5 6 2
v -7.5 6 -2
v 7.5 6 -2
v -10.5 6 -3
v -7.5 6 -3
v 7.5 6 -3
v 10.5 6 -3
v -10.5 6 -5
v -5.5 6 -5
v -2.5 6 -5
v -1.5 6 -5
v 1.5 6 -5
v 2.5 6 -5
v 5.5 6 -5
v 10.5 6 -5
v -10.5 6 -6
v -5.5 6 -6
v -2.5 6 -6
v -1.5 6 -6
v 1.5 6 -6
v 2.5 6 -6
v 5.5 6 -6
v 10.5 6 -6
v -10.5 6 -7
v -5.5 6 -7
v -2.5 6 -7
v -1.5 6 -7
v 1.5 6 -7
v 2.5 6 -7
v 5.5 6 -7
v 10.5 6 -7
v -10.5 6 -8
v -5.5 6 -8
v -2.5 6 -8
v -1.5 6 -8
v 1.5 6 -8
v 2.5 6 -8
v 5.5 6 -8
v 10.5 6 -8
v -10.5 6 -9
v -5.5 6 -9
v -2.5 6 -9
v -1.5 6 -9
v 1.5 6 -9
v 2.5 6 -9
v 5.5 6 -9
v 10.5 6 -9
v -10.5 6 -10
v -5.5 6 -10
v -2.5 6 -10
v -1.5 6 -10
v 1.5 6 -10
v 2.5 6 -10
v 5.5 6 -10
v 10.5 6 -10
v -10.5 6 -11
v -7.5 6 -11
v 7.5 6 -11
v 10.5 6 -11
v -7.5 6 -12
v -5.5 6 -12
v -2.5 6 -12
v -1.5 6 -12
v 1.5 6 -12
v 2.5 6 -12
v 5.5 6 -12
v 7.5 6 -12
v -9.5 7 13
v -5.5 7 13
v -2.5 7 13
v -1.5 7 13
v 1.5 7 13
v 2.5 7 13
v 5.5 7 13
v 9.5 7 13
v -9.5 7 12
v -5.5 7 12
v -2.5 7 12
v -1.5 7 12
v 1.5 7 12
v 2.5 7 12
v 5.5 7 12
v 9.5 7 12
v -9.5 7 11
v -5.5 7 11
v -2.5 7 11
v -1.5 7 11
v 1.5 7 11
v 2.5 7 11
v 5.5 7 11
v 9.5 7 11
v -9.5 7 10
v -5.5 7 10
v -2.5 7 10
v -1.5 7 10
v 1.5 7 10
v 2.5 7 10
v 5.5 7 10
v 9.5 7 10
v -9.5 7 9
v -5.5 7 9
v -2.5 7 9
v -1.5 7 9
v 1.5 7 9
v 2.5 7 9
v 5.5 7 9
v 9.5 7 9
v -9.5 7 8
v -5.5 7 8
v -2.5 7 8
v -1.5 7 8
v 1.5 7 8
v 2.5 7 8
v 5.5 7 8
v 9.5 7 8
v -9.5 7 7
v -5.5 7 7
v -2.5 7 7
v -1.5 7 7
v 1.5 7 7
v 2.5 7 7
v 5.5 7 7
v 9.5 7 7
v -9.5 7 2
v -7.5 7 2
v 7.5 7 2
v 9.5 7 2
v -10.5 7 -2
v -7.5 7 -2
v 7.5 7 -2
v 10.5 7 -2
v -10.5 7 -5
v -5.5 7 -5
v -2.5 7 -5
v -1.5 7 -5
v 1.5 7 -5
v 2.5 7 -5
v 5.5 7 -5
v 10.5 7 -5
v -10.5 7 -6
v -5.5 7 -6
v -2.5 7 -6
v -1.5 7 -6
v 1.5 7 -6
v 2.5 7 -6
v 5.5 7 -6
v 10.5 7 -6
v -10.5 7 -7
v -5.5 7 -7
v -2.5 7 -7
v -1.5 7 -7
v 1.5 7 -7
v 2.5 7 -7
v 5.5 7 -7
v 10.5 7 -7
v -10.5 7 -8
v -5.5 7 -8
v -2.5 7 -8
v -1.5 7 -8
v 1.5 7 -8
v 2.5 7 -8
v 5.5 7 -8
v 10.5 7 -8
v -10.5 7 -9
v -5.5 7 -9
v -2.5 7 -9
v -1.5 7 -9
v 1.5 7 -9
v 2.5 7 -9
v 5.5 7 -9
v 10.5 7 -9
v -10.5 7 -10
v -5.5 7 -10
v -2.5 7 -10
v -1.5 7 -10
v 1.5 7 -10
v 2.5 7 -10
v 5.5 7 -10
v 10.5 7 -10
v -10.5 7 -12
v -7.5 7 -12
v 7.5 7 -12
v 10.5 7 -12
v -7.5 7 -13
v -5.5 7 -13
v -2.5 7 -13
v -1.5 7 -13
v 1.5 7 -13
v 2.5 7 -13
v 5.5 7 -13
v 7.5 7 -13

# faces
f 5/2/1 4/2/1 3/2/1
f 12/2/1 2/2/1 1/2/1
f 13/2/1 5/2/1 3/2/1
f 13/2/1 6/2/1 5/2/1
f 14/3/1 7/3/1 6/3/1
f 14/2/1 6/2/1 13/2/1
f 15/2/1 8/2/1 7/2/1
f 15/3/1 7/3/1 14/3/1
f 16/3/1 9/3/1 8/3/1
f 16/2/1 8/2/1 15/2/1
f 17/2/1 10/2/1 9/2/1
f 17/3/1 9/3/1 16/3/1
f 18/3/1 11/3/1 10/3/1
f 18/2/1 10/2/1 17/2/1
f 19/2/1 12/2/1 11/2/1
f 19/3/1 11/3/1 18/3/1
f 20/2/1 2/2/1 12/2/1
f 20/2/1 12/2/1 19/2/1
f 25/2/1 22/2/1 21/2/1
f 26/2/1 22/2/1 25/2/1
f 31/2/1 24/2/1 23/2/1
f 32/2/1 25/2/1 21/2/1
f 33/3/1 26/3/1 25/3/1
f 33/2/1 25/2/1 32/2/1
f 34/2/1 27/2/1 26/2/1
f 34/3/1 26/3/1 33/3/1
f 35/3/1 28/3/1 27/3/1
f 35/2/1 27/2/1 34/2/1
f 36/2/1 29/2/1 28/2/1
f 36/3/1 28/3/1 35/3/1
f 37/3/1 30/3/1 29/3/1
f 37/2/1 29/2/1 36/2/1
f 38/2/1 31/2/1 30/2/1
f 38/3/1 30/3/1 37/3/1
f 39/2/1 24/2/1 31/2/1
f 39/2/1 31/2/1 38/2/1
f 42/2/1 41/2/1 40/2/1
f 45/2/1 44/2/1 43/2/1
f 46/2/1 44/2/1 45/2/1
f 47/2/1 41/2/1 42/2/1
f 48/2/1 41/2/1 47/2/1
f 51/4/1 50/4/1 49/4/1
f 52/4/1 50/4/1 51/4/1
f 61/2/1 54/2/1 53/2/1
f 62/2/1 54/2/1 61/2/1
f 63/2/1 58/2/1 57/2/1
f 64/2/1 58/2/1 63/2/1
f 65/2/1 60/2/1 59/2/1
f 66/2/1 60/2/1 65/2/1
f 67/2/1 56/2/1 55/2/1
f 68/2/1 56/2/1 67/2/1
f 69/2/2 70/2/2 77/2/2
f 77/2/2 70/2/2 78/2/2
f 73/2/2 74/2/2 79/2/2
f 79/2/2 74/2/2 80/2/2
f 75/2/2 76/2/2 81/2/2
f 81/2/2 76/2/2 82/2/2
f 71/2/2 72/2/2 83/2/2
f 83/2/2 72/2/2 84/2/2
f 85/4/2 86/4/2 87/4/2
f 87/4/2 86/4/2 88/4/2
f 89/2/2 90/2/2 91/2/2
f 92/2/2 93/2/2 94/2/2
f 94/2/2 93/2/2 95/2/2
f 91/2/2 90/2/2 96/2/2
f 96/2/2 90/2/2 97/2/2
f 98/2/2 99/2/2 102/2/2
f 102/2/2 99/2/2 103/2/2
f 100/2/2 101/2/2 108/2/2
f 98/2/2 102/2/2 109/2/2
f 102/3/2 103/3/2 110/3/2
f 109/2/2 102/2/2 110/2/2
f 103/2/2 104/2/2 111/2/2
f 110/3/2 103/3/2 111/3/2
f 104/3/2 105/3/2 112/3/2
f 111/2/2 104/2/2 112/2/2
f 105/2/2 106/2/2 113/2/2
f 112/3/2 105/3/2 113/3/2
f 106/3/2 107/3/2 114/3/2
f 113/2/2 106/2/2 114/2/2
f 107/2/2 108/2/2 115/2/2
f 114/3/2 107/3/2 115/3/2
f 108/2/2 101/2/2 116/2/2
f 115/2/2 108/2/2 116/2/2
f 119/2/2 120/2/2 121/2/2
f 117/2/2 118/2/2 128/2/2
f 119/2/2 121/2/2 129/2/2
f 121/2/2 122/2/2 129/2/2
f 122/3/2 123/3/2 130/3/2
f 129/2/2 122/2/2 130/2/2
f 123/2/2 124/2/2 131/2/2
f 130/3/2 123/3/2 131/3/2
f 124/3/2 125/3/2 132/3/2
f 131/2/2 124/2/2 132/2/2
f 125/2/2 126/2/2 133/2/2
f 132/3/2 125/3/2 133/3/2
f 126/3/2 127/3/2 134/3/2
f 133/2/2 126/2/2 134/2/2
f 127/2/2 128/2/2 135/2/2
f 134/3/2 127/3/2 135/3/2
f 128/2/2 118/2/2 136/2/2
f 135/2/2 128/2/2 136/2/2
f 139/2/3 138/2/3 137/2/3
f 140/2/3 138/2/3 139/2/3
f 142/1/3 140/1/3 139/1/3
f 143/1/3 140/1/3 142/1/3
f 144/4/3 142/4/3 141/4/3
f 144/4/3 143/4/3 142/4/3
f 145/4/3 143/4/3 144/4/3
f 146/4/3 144/4/3 141/4/3
f 146/2/3 145/2/3 144/2/3
f 147/2/3 145/2/3 146/2/3
f 148/4/3 146/4/3 141/4/3
f 148/4/3 147/4/3 146/4/3
f 149/4/3 147/4/3 148/4/3
f 150/4/3 147/4/3 149/4/3
f 151/1/3 150/1/3 149/1/3
f 152/1/3 150/1/3 151/1/3
f 153/2/3 152/2/3 151/2/3
f 154/2/3 152/2/3 153/2/3
f 157/2/3 156/2/3 155/2/3
f 158/2/3 156/2/3 157/2/3
f 161/2/3 160/2/3 159/2/3
f 162/2/3 160/2/3 161/2/3
f 165/2/3 164/2/3 163/2/3
f 166/2/3 164/2/3 165/2/3
f 167/2/3 164/2/3 166/2/3
f 171/2/3 169/2/3 168/2/3
f 171/2/3 170/2/3 169/2/3
f 172/2/3 170/2/3 171/2/3
f 175/2/3 174/2/3 173/2/3
f 176/2/3 174/2/3 175/2/3
f 179/2/3 178/2/3 177/2/3
f 180/2/3 178/2/3 179/2/3
f 184/2/3 182/2/3 181/2/3
f 184/2/3 183/2/3 182/2/3
f 185/2/3 183/2/3 184/2/3
f 186/1/3 185/1/3 184/1/3
f 187/1/3 185/1/3 186/1/3
f 188/4/3 187/4/3 186/4/3
f 189/4/3 187/4/3 188/4/3
f 190/4/3 188/4/3 186/4/3
f 190/2/3 189/2/3 188/2/3
f 191/2/3 189/2/3 190/2/3
f 192/4/3 190/4/3 186/4/3
f 192/4/3 191/4/3 190/4/3
f 193/4/3 191/4/3 192/4/3
f 194/1/3 193/1/3 192/1/3
f 195/1/3 193/1/3 194/1/3
f 196/2/3 195/2/3 194/2/3
f 197/2/3 195/2/3 196/2/3
f 198/2/3 195/2/3 197/2/3
f 199/2/4 200/2/4 201/2/4
f 201/2/4 200/2/4 202/2/4
f 201/1/4 202/1/4 204/1/4
f 204/1/4 202/1/4 205/1/4
f 203/4/4 204/4/4 206/4/4
f 204/4/4 205/4/4 206/4/4
f 206/4/4 205/4/4 207/4/4
f 203/4/4 206/4/4 208/4/4
f 206/2/4 207/2/4 208/2/4
f 208/2/4 207/2/4 209/2/4
f 203/4/4 208/4/4 210/4/4
f 208/4/4 209/4/4 210/4/4
f 210/4/4 209/4/4 211/4/4
f 211/4/4 209/4/4 212/4/4
f 211/1/4 212/1/4 213/1/4
f 213/1/4 212/1/4 214/1/4
f 213/2/4 214/2/4 215/2/4
f 215/2/4 214/2/4 216/2/4
f 217/2/4 218/2/4 219/2/4
f 219/2/4 218/2/4 220/2/4
f 221/2/4 222/2/4 223/2/4
f 223/2/4 222/2/4 224/2/4
f 225/2/4 226/2/4 227/2/4
f 227/2/4 226/2/4 228/2/4
f 228/2/4 226/2/4 229/2/4
f 230/2/4 231/2/4 233/2/4
f 231/2/4 232/2/4 233/2/4
f 233/2/4 232/2/4 234/2/4
f 235/2/4 236/2/4 237/2/4
f 237/2/4 236/2/4 238/2/4
f 239/2/4 240/2/4 241/2/4
f 241/2/4 240/2/4 242/2/4
f 243/2/4 244/2/4 245/2/4
f 245/2/4 244/2/4 246/2/4
f 247/2/4 248/2/4 249/2/4
f 249/2/4 248/2/4 250/2/4
f 251/2/4 252/2/4 253/2/4
f 253/2/4 252/2/4 254/2/4
f 253/1/4 254/1/4 255/1/4
f 255/1/4 254/1/4 256/1/4
f 255/4/4 256/4/4 257/4/4
f 257/4/4 256/4/4 258/4/4
f 255/4/4 257/4/4 259/4/4
f 257/2/4 258/2/4 259/2/4
f 259/2/4 258/2/4 260/2/4
f 255/4/4 259/4/4 261/4/4
f 259/4/4 260/4/4 261/4/4
f 261/4/4 260/4/4 262/4/4
f 261/1/4 262/1/4 263/1/4
f 263/1/4 262/1/4 264/1/4
f 263/2/4 264/2/4 265/2/4
f 265/2/4 264/2/4 266/2/4
f 269/4/5 268/4/5 267/4/5
f 270/4/5 268/4/5 269/4/5
f 277/2/5 272/2/5 271/2/5
f 278/1/5 273/1/5 272/1/5
f 278/2/5 272/2/5 277/2/5
f 279/4/5 274/4/5 273/4/5
f 279/1/5 273/1/5 278/1/5
f 280/1/5 275/1/5 274/1/5
f 280/4/5 274/4/5 279/4/5
f 281/2/5 276/2/5 275/2/5
f 281/1/5 275/1/5 280/1/5
f 282/2/5 276/2/5 281/2/5
f 289/2/5 284/2/5 283/2/5
f 290/1/5 285/1/5 284/1/5
f 290/2/5 284/2/5 289/2/5
f 291/1/5 285/1/5 290/1/5
f 292/1/5 287/1/5 286/1/5
f 293/2/5 288/2/5 287/2/5
f 293/1/5 287/1/5 292/1/5
f 294/2/5 288/2/5 293/2/5
f 295/2/5 289/2/5 283/2/5
f 296/2/5 289/2/5 295/2/5
f 297/2/5 288/2/5 294/2/5
f 298/2/5 288/2/5 297/2/5
f 303/2/5 300/2/5 299/2/5
f 304/2/5 300/2/5 303/2/5
f 305/2/5 302/2/5 301/2/5
f 306/2/5 302/2/5 305/2/5
f 311/2/5 308/2/5 307/2/5
f 312/2/5 308/2/5 311/2/5
f 313/2/5 310/2/5 309/2/5
f 314/2/5 310/2/5 313/2/5
f 319/2/5 316/2/5 315/2/5
f 320/2/5 316/2/5 319/2/5
f 321/2/5 318/2/5 317/2/5
f 322/2/5 318/2/5 321/2/5
f 332/3/5 324/3/5 323/3/5
f 332/3/5 325/3/5 324/3/5
f 333/3/5 325/3/5 332/3/5
f 334/4/5 326/4/5 325/4/5
f 334/3/5 325/3/5 333/3/5
f 335/3/5 327/3/5 326/3/5
f 335/4/5 326/4/5 334/4/5
f 336/4/5 328/4/5 327/4/5
f 336/3/5 327/3/5 335/3/5
f 337/3/5 330/3/5 329/3/5
f 337/4/5 328/4/5 336/4/5
f 337/3/5 329/3/5 328/3/5
f 338/3/5 330/3/5 337/3/5
f 339/3/5 330/3/5 338/3/5
f 341/2/5 332/2/5 331/2/5
f 341/2/5 333/2/5 332/2/5
f 342/1/5 334/1/5 333/1/5
f 342/2/5 333/2/5 341/2/5
f 343/4/5 335/4/5 334/4/5
f 343/1/5 334/1/5 342/1/5
f 344/2/5 336/2/5 335/2/5
f 344/4/5 335/4/5 343/4/5
f 345/4/5 337/4/5 336/4/5
f 345/2/5 336/2/5 344/2/5
f 346/1/5 338/1/5 337/1/5
f 346/4/5 337/4/5 345/4/5
f 347/2/5 340/2/5 339/2/5
f 347/1/5 338/1/5 346/1/5
f 347/2/5 339/2/5 338/2/5
f 348/2/5 340/2/5 347/2/5
f 349/3/5 343/3/5 342/3/5
f 349/3/5 342/3/5 341/3/5
f 350/3/5 343/3/5 349/3/5
f 351/4/5 344/4/5 343/4/5
f 351/3/5 343/3/5 350/3/5
f 352/3/5 345/3/5 344/3/5
f 352/4/5 344/4/5 351/4/5
f 353/4/5 346/4/5 345/4/5
f 353/3/5 345/3/5 352/3/5
f 354/3/5 348/3/5 347/3/5
f 354/4/5 346/4/5 353/4/5
f 354/3/5 347/3/5 346/3/5
f 355/3/5 348/3/5 354/3/5
f 356/3/5 348/3/5 355/3/5
f 357/2/5 350/2/5 349/2/5
f 358/1/5 351/1/5 350/1/5
f 358/2/5 350/2/5 357/2/5
f 359/4/5 352/4/5 351/4/5
f 359/1/5 351/1/5 358/1/5
f 360/2/5 353/2/5 352/2/5
f 360/4/5 352/4/5 359/4/5
f 361/4/5 354/4/5 353/4/5
f 361/2/5 353/2/5 360/2/5
f 362/1/5 355/1/5 354/1/5
f 362/4/5 354/4/5 361/4/5
f 363/2/5 356/2/5 355/2/5
f 363/1/5 355/1/5 362/1/5
f 364/2/5 356/2/5 363/2/5
f 365/3/5 358/3/5 357/3/5
f 365/3/5 359/3/5 358/3/5
f 366/3/5 359/3/5 365/3/5
f 367/4/5 360/4/5 359/4/5
f 367/3/5 359/3/5 366/3/5
f 368/3/5 361/3/5 360/3/5
f 368/4/5 360/4/5 367/4/5
f 369/4/5 362/4/5 361/4/5
f 369/3/5 361/3/5 368/3/5
f 370/3/5 364/3/5 363/3/5
f 370/4/5 362/4/5 369/4/5
f 370/3/5 363/3/5 362/3/5
f 371/3/5 364/3/5 370/3/5
f 372/3/5 364/3/5 371/3/5
f 373/2/5 366/2/5 365/2/5
f 374/2/5 366/2/5 373/2/5
f 375/2/5 372/2/5 371/2/5
f 376/2/5 372/2/5 375/2/5
f 377/2/5 366/2/5 374/2/5
f 378/2/5 375/2/5 371/2/5
f 379/2/5 366/2/5 377/2/5
f 380/2/5 378/2/5 371/2/5
f 382/2/5 366/2/5 379/2/5
f 383/2/5 380/2/5 371/2/5
f 385/2/5 382/2/5 381/2/5
f 386/2/5 366/2/5 382/2/5
f 386/2/5 382/2/5 385/2/5
f 386/1/5 367/1/5 366/1/5
f 387/4/5 368/4/5 367/4/5
f 387/1/5 367/1/5 386/1/5
f 388/2/5 369/2/5 368/2/5
f 388/4/5 368/4/5 387/4/5
f 389/4/5 370/4/5 369/4/5
f 389/2/5 369/2/5 388/2/5
f 390/1/5 371/1/5 370/1/5
f 390/4/5 370/4/5 389/4/5
f 391/2/5 383/2/5 371/2/5
f 391/1/5 371/1/5 390/1/5
f 391/2/5 384/2/5 383/2/5
f 392/2/5 384/2/5 391/2/5
f 393/3/5 387/3/5 386/3/5
f 393/3/5 386/3/5 385/3/5
f 394/3/5 387/3/5 393/3/5
f 395/4/5 388/4/5 387/4/5
f 395/3/5 387/3/5 394/3/5
f 396/3/5 389/3/5 388/3/5
f 396/4/5 388/4/5 395/4/5
f 397/4/5 390/4/5 389/4/5
f 397/3/5 389/3/5 396/3/5
f 398/3/5 392/3/5 391/3/5
f 398/4/5 390/4/5 397/4/5
f 398/3/5 391/3/5 390/3/5
f 399/3/5 392/3/5 398/3/5
f 400/3/5 392/3/5 399/3/5
f 401/2/5 394/2/5 393/2/5
f 402/1/5 395/1/5 394/1/5
f 402/2/5 394/2/5 401/2/5
f 403/4/5 396/4/5 395/4/5
f 403/1/5 395/1/5 402/1/5
f 404/2/5 397/2/5 396/2/5
f 404/4/5 396/4/5 403/4/5
f 405/4/5 398/4/5 397/4/5
f 405/2/5 397/2/5 404/2/5
f 406/1/5 399/1/5 398/1/5
f 406/4/5 398/4/5 405/4/5
f 407/2/5 400/2/5 399/2/5
f 407/1/5 399/1/5 406/1/5
f 408/2/5 400/2/5 407/2/5
f 409/3/5 402/3/5 401/3/5
f 409/3/5 403/3/5 402/3/5
f 410/3/5 403/3/5 409/3/5
f 411/4/5 404/4/5 403/4/5
f 411/3/5 403/3/5 410/3/5
f 412/3/5 405/3/5 404/3/5
f 412/4/5 404/4/5 411/4/5
f 413/4/5 406/4/5 405/4/5
f 413/3/5 405/3/5 412/3/5
f 414/3/5 408/3/5 407/3/5
f 414/4/5 406/4/5 413/4/5
f 414/3/5 407/3/5 406/3/5
f 415/3/5 408/3/5 414/3/5
f 416/3/5 408/3/5 415/3/5
f 417/2/5 410/2/5 409/2/5
f 418/1/5 411/1/5 410/1/5
f 418/2/5 410/2/5 417/2/5
f 419/4/5 412/4/5 411/4/5
f 419/1/5 411/1/5 418/1/5
f 420/2/5 413/2/5 412/2/5
f 420/4/5 412/4/5 419/4/5
f 421/4/5 414/4/5 413/4/5
f 421/2/5 413/2/5 420/2/5
f 422/1/5 415/1/5 414/1/5
f 422/4/5 414/4/5 421/4/5
f 423/2/5 416/2/5 415/2/5
f 423/1/5 415/1/5 422/1/5
f 424/2/5 416/2/5 423/2/5
f 425/3/5 419/3/5 418/3/5
f 425/3/5 418/3/5 417/3/5
f 426/3/5 419/3/5 425/3/5
f 427/4/5 420/4/5 419/4/5
f 427/3/5 419/3/5 426/3/5
f 428/3/5 421/3/5 420/3/5
f 428/4/5 420/4/5 427/4/5
f 429/4/5 422/4/5 421/4/5
f 429/3/5 421/3/5 428/3/5
f 430/3/5 424/3/5 423/3/5
f 430/4/5 422/4/5 429/4/5
f 430/3/5 423/3/5 422/3/5
f 431/3/5 424/3/5 430/3/5
f 432/3/5 424/3/5 431/3/5
f 433/2/5 426/2/5 425/2/5
f 434/2/5 426/2/5 433/2/5
f 435/2/5 432/2/5 431/2/5
f 436/2/5 432/2/5 435/2/5
f 437/2/5 426/2/5 434/2/5
f 438/1/5 427/1/5 426/1/5
f 438/2/5 426/2/5 437/2/5
f 439/4/5 428/4/5 427/4/5
f 439/1/5 427/1/5 438/1/5
f 440/2/5 429/2/5 428/2/5
f 440/4/5 428/4/5 439/4/5
f 441/4/5 430/4/5 429/4/5
f 441/2/5 429/2/5 440/2/5
f 442/1/5 431/1/5 430/1/5
f 442/4/5 430/4/5 441/4/5
f 443/2/5 435/2/5 431/2/5
f 443/1/5 431/1/5 442/1/5
f 444/2/5 435/2/5 443/2/5
f 445/2/6 446/2/6 453/2/6
f 446/1/6 447/1/6 454/1/6
f 453/2/6 446/2/6 454/2/6
f 447/4/6 448/4/6 455/4/6
f 454/1/6 447/1/6 455/1/6
f 448/2/6 449/2/6 456/2/6
f 455/4/6 448/4/6 456/4/6
f 449/4/6 450/4/6 457/4/6
f 456/2/6 449/2/6 457/2/6
f 450/1/6 451/1/6 458/1/6
f 457/4/6 450/4/6 458/4/6
f 451/2/6 452/2/6 459/2/6
f 458/1/6 451/1/6 459/1/6
f 459/2/6 452/2/6 460/2/6
f 453/3/6 454/3/6 461/3/6
f 454/3/6 455/3/6 461/3/6
f 461/3/6 455/3/6 462/3/6
f 455/4/6 456/4/6 463/4/6
f 462/3/6 455/3/6 463/3/6
f 456/3/6 457/3/6 464/3/6
f 463/4/6 456/4/6 464/4/6
f 457/4/6 458/4/6 465/4/6
f 464/3/6 457/3/6 465/3/6
f 459/3/6 460/3/6 466/3/6
f 465/4/6 458/4/6 466/4/6
f 458/3/6 459/3/6 466/3/6
f 466/3/6 460/3/6 467/3/6
f 467/3/6 460/3/6 468/3/6
f 461/2/6 462/2/6 469/2/6
f 462/1/6 463/1/6 470/1/6
f 469/2/6 462/2/6 470/2/6
f 463/4/6 464/4/6 471/4/6
f 470/1/6 463/1/6 471/1/6
f 464/2/6 465/2/6 472/2/6
f 471/4/6 464/4/6 472/4/6
f 465/4/6 466/4/6 473/4/6
f 472/2/6 465/2/6 473/2/6
f 466/1/6 467/1/6 474/1/6
f 473/4/6 466/4/6 474/4/6
f 467/2/6 468/2/6 475/2/6
f 474/1/6 467/1/6 475/1/6
f 475/2/6 468/2/6 476/2/6
f 469/3/6 470/3/6 477/3/6
f 470/3/6 471/3/6 477/3/6
f 477/3/6 471/3/6 478/3/6
f 471/4/6 472/4/6 479/4/6
f 478/3/6 471/3/6 479/3/6
f 472/3/6 473/3/6 480/3/6
f 479/4/6 472/4/6 480/4/6
f 473/4/6 474/4/6 481/4/6
f 480/3/6 473/3/6 481/3/6
f 475/3/6 476/3/6 482/3/6
f 481/4/6 474/4/6 482/4/6
f 474/3/6 475/3/6 482/3/6
f 482/3/6 476/3/6 483/3/6
f 483/3/6 476/3/6 484/3/6
f 477/2/6 478/2/6 485/2/6
f 478/1/6 479/1/6 486/1/6
f 485/2/6 478/2/6 486/2/6
f 479/4/6 480/4/6 487/4/6
f 486/1/6 479/1/6 487/1/6
f 480/2/6 481/2/6 488/2/6
f 487/4/6 480/4/6 488/4/6
f 481/4/6 482/4/6 489/4/6
f 488/2/6 481/2/6 489/2/6
f 482/1/6 483/1/6 490/1/6
f 489/4/6 482/4/6 490/4/6
f 483/2/6 484/2/6 491/2/6
f 490/1/6 483/1/6 491/1/6
f 491/2/6 484/2/6 492/2/6
f 486/3/6 487/3/6 493/3/6
f 485/3/6 486/3/6 493/3/6
f 493/3/6 487/3/6 494/3/6
f 487/4/6 488/4/6 495/4/6
f 494/3/6 487/3/6 495/3/6
f 488/3/6 489/3/6 496/3/6
f 495/4/6 488/4/6 496/4/6
f 489/4/6 490/4/6 497/4/6
f 496/3/6 489/3/6 497/3/6
f 491/3/6 492/3/6 498/3/6
f 497/4/6 490/4/6 498/4/6
f 490/3/6 491/3/6 498/3/6
f 498/3/6 492/3/6 499/3/6
f 499/3/6 492/3/6 500/3/6
f 493/2/6 494/2/6 501/2/6
f 501/2/6 494/2/6 502/2/6
f 499/2/6 500/2/6 503/2/6
f 503/2/6 500/2/6 504/2/6
f 502/2/6 494/2/6 506/2/6
f 499/2/6 503/2/6 507/2/6
f 505/2/6 506/2/6 509/2/6
f 506/2/6 494/2/6 510/2/6
f 509/2/6 506/2/6 510/2/6
f 494/1/6 495/1/6 510/1/6
f 495/4/6 496/4/6 511/4/6
f 510/1/6 495/1/6 511/1/6
f 496/2/6 497/2/6 512/2/6
f 511/4/6 496/4/6 512/4/6
f 497/4/6 498/4/6 513/4/6
f 512/2/6 497/2/6 513/2/6
f 498/1/6 499/1/6 514/1/6
f 513/4/6 498/4/6 514/4/6
f 499/2/6 507/2/6 515/2/6
f 514/1/6 499/1/6 515/1/6
f 507/2/6 508/2/6 515/2/6
f 515/2/6 508/2/6 516/2/6
f 510/3/6 511/3/6 517/3/6
f 509/3/6 510/3/6 517/3/6
f 517/3/6 511/3/6 518/3/6
f 511/4/6 512/4/6 519/4/6
f 518/3/6 511/3/6 519/3/6
f 512/3/6 513/3/6 520/3/6
f 519/4/6 512/4/6 520/4/6
f 513/4/6 514/4/6 521/4/6
f 520/3/6 513/3/6 521/3/6
f 515/3/6 516/3/6 522/3/6
f 521/4/6 514/4/6 522/4/6
f 514/3/6 515/3/6 522/3/6
f 522/3/6 516/3/6 523/3/6
f 523/3/6 516/3/6 524/3/6
f 517/2/6 518/2/6 525/2/6
f 518/1/6 519/1/6 526/1/6
f 525/2/6 518/2/6 526/2/6
f 519/4/6 520/4/6 527/4/6
f 526/1/6 519/1/6 527/1/6
f 520/2/6 521/2/6 528/2/6
f 527/4/6 520/4/6 528/4/6
f 521/4/6 522/4/6 529/4/6
f 528/2/6 521/2/6 529/2/6
f 522/1/6 523/1/6 530/1/6
f 529/4/6 522/4/6 530/4/6
f 523/2/6 524/2/6 531/2/6
f 530/1/6 523/1/6 531/1/6
f 531/2/6 524/2/6 532/2/6
f 525/3/6 526/3/6 533/3/6
f 526/3/6 527/3/6 533/3/6
f 533/3/6 527/3/6 534/3/6
f 527/4/6 528/4/6 535/4/6
f 534/3/6 527/3/6 535/3/6
f 528/3/6 529/3/6 536/3/6
f 535/4/6 528/4/6 536/4/6
f 529/4/6 530/4/6 537/4/6
f 536/3/6 529/3/6 537/3/6
f 531/3/6 532/3/6 538/3/6
f 537/4/6 530/4/6 538/4/6
f 530/3/6 531/3/6 538/3/6
f 538/3/6 532/3/6 539/3/6
f 539/3/6 532/3/6 540/3/6
f 533/2/6 534/2/6 541/2/6
f 534/1/6 535/1/6 542/1/6
f 541/2/6 534/2/6 542/2/6
f 535/4/6 536/4/6 543/4/6
f 542/1/6 535/1/6 543/1/6
f 536/2/6 537/2/6 544/2/6
f 543/4/6 536/4/6 544/4/6
f 537/4/6 538/4/6 545/4/6
f 544/2/6 537/2/6 545/2/6
f 538/1/6 539/1/6 546/1/6
f 545/4/6 538/4/6 546/4/6
f 539/2/6 540/2/6 547/2/6
f 546/1/6 539/1/6 547/1/6
f 547/2/6 540/2/6 548/2/6
f 542/3/6 543/3/6 549/3/6
f 541/3/6 542/3/6 549/3/6
f 549/3/6 543/3/6 550/3/6
f 543/4/6 544/4/6 551/4/6
f 550/3/6 543/3/6 551/3/6
f 544/3/6 545/3/6 552/3/6
f 551/4/6 544/4/6 552/4/6
f 545/4/6 546/4/6 553/4/6
f 552/3/6 545/3/6 553/3/6
f 547/3/6 548/3/6 554/3/6
f 553/4/6 546/4/6 554/4/6
f 546/3/6 547/3/6 554/3/6
f 554/3/6 548/3/6 555/3/6
f 555/3/6 548/3/6 556/3/6
f 549/2/6 550/2/6 557/2/6
f 557/2/6 550/2/6 558/2/6
f 555/2/6 556/2/6 559/2/6
f 559/2/6 556/2/6 560/2/6
f 558/2/6 550/2/6 561/2/6
f 550/1/6 551/1/6 562/1/6
f 561/2/6 550/2/6 562/2/6
f 551/4/6 552/4/6 563/4/6
f 562/1/6 551/1/6 563/1/6
f 552/2/6 553/2/6 564/2/6
f 563/4/6 552/4/6 564/4/6
f 553/4/6 554/4/6 565/4/6
f 564/2/6 553/2/6 565/2/6
f 554/1/6 555/1/6 566/1/6
f 565/4/6 554/4/6 566/4/6
f 555/2/6 559/2/6 567/2/6
f 566/1/6 555/1/6 567/1/6
f 567/2/6 559/2/6 568/2/6
