# MagicaVoxel @ ephtracy

# material
mtllib Base.mtl
usemtl palette

# normals
vn -1 0 0
vn 1 0 0
vn 0 0 1
vn 0 0 -1
vn 0 -1 0
vn 0 1 0

# texcoords
vt 0.478516 0.5
vt 0.482422 0.5

# verts
v -6.5 0 11
v -6.5 0 -11
v -6.5 5 11
v -6.5 5 -11
v 6.5 0 11
v 6.5 0 -11
v 6.5 5 11
v 6.5 5 -11
v -6.5 0 11
v -6.5 5 11
v 6.5 0 11
v 6.5 5 11
v -6.5 0 -11
v -6.5 5 -11
v -4.5 2 -11
v -4.5 5 -11
v -3.5 2 -11
v -3.5 5 -11
v -2.5 2 -11
v -2.5 5 -11
v -1.5 2 -11
v -1.5 5 -11
v -0.5 2 -11
v -0.5 5 -11
v 0.5 2 -11
v 0.5 5 -11
v 1.5 2 -11
v 1.5 5 -11
v 2.5 2 -11
v 2.5 5 -11
v 3.5 2 -11
v 3.5 5 -11
v 4.5 2 -11
v 4.5 5 -11
v 6.5 0 -11
v 6.5 5 -11
v -6.5 0 11
v 6.5 0 11
v -6.5 0 -11
v 6.5 0 -11
v -6.5 5 11
v 6.5 5 11
v -4.5 5 -6
v 4.5 5 -6
v -3.5 5 -7
v -2.5 5 -7
v -1.5 5 -7
v -0.5 5 -7
v 0.5 5 -7
v 1.5 5 -7
v 2.5 5 -7
v 3.5 5 -7
v -6.5 5 -11
v -4.5 5 -11
v -3.5 5 -11
v -2.5 5 -11
v -1.5 5 -11
v -0.5 5 -11
v 0.5 5 -11
v 1.5 5 -11
v 2.5 5 -11
v 3.5 5 -11
v 4.5 5 -11
v 6.5 5 -11

# faces
f 3/1/1 2/1/1 1/1/1
f 4/1/1 2/1/1 3/1/1
f 5/1/2 6/1/2 7/1/2
f 7/1/2 6/1/2 8/1/2
f 11/1/3 10/1/3 9/1/3
f 12/1/3 10/1/3 11/1/3
f 13/1/4 14/1/4 15/1/4
f 15/1/4 14/1/4 16/1/4
f 13/1/4 15/1/4 17/1/4
f 15/2/4 16/2/4 17/2/4
f 17/2/4 16/2/4 18/2/4
f 13/1/4 17/1/4 19/1/4
f 17/1/4 18/1/4 19/1/4
f 19/1/4 18/1/4 20/1/4
f 13/1/4 19/1/4 21/1/4
f 19/2/4 20/2/4 21/2/4
f 21/2/4 20/2/4 22/2/4
f 13/1/4 21/1/4 23/1/4
f 21/1/4 22/1/4 23/1/4
f 23/1/4 22/1/4 24/1/4
f 13/1/4 23/1/4 25/1/4
f 23/2/4 24/2/4 25/2/4
f 25/2/4 24/2/4 26/2/4
f 13/1/4 25/1/4 27/1/4
f 25/1/4 26/1/4 27/1/4
f 27/1/4 26/1/4 28/1/4
f 13/1/4 27/1/4 29/1/4
f 27/2/4 28/2/4 29/2/4
f 29/2/4 28/2/4 30/2/4
f 13/1/4 29/1/4 31/1/4
f 29/1/4 30/1/4 31/1/4
f 31/1/4 30/1/4 32/1/4
f 13/1/4 31/1/4 33/1/4
f 31/2/4 32/2/4 33/2/4
f 33/2/4 32/2/4 34/2/4
f 13/1/4 33/1/4 35/1/4
f 33/1/4 34/1/4 35/1/4
f 35/1/4 34/1/4 36/1/4
f 39/1/5 38/1/5 37/1/5
f 40/1/5 38/1/5 39/1/5
f 41/1/6 42/1/6 43/1/6
f 43/1/6 42/1/6 44/1/6
f 43/2/6 44/2/6 45/2/6
f 45/2/6 44/2/6 46/2/6
f 46/2/6 44/2/6 47/2/6
f 47/2/6 44/2/6 48/2/6
f 48/2/6 44/2/6 49/2/6
f 49/2/6 44/2/6 50/2/6
f 50/2/6 44/2/6 51/2/6
f 51/2/6 44/2/6 52/2/6
f 41/1/6 43/1/6 53/1/6
f 43/2/6 45/2/6 54/2/6
f 53/1/6 43/1/6 54/1/6
f 45/1/6 46/1/6 55/1/6
f 54/2/6 45/2/6 55/2/6
f 46/2/6 47/2/6 56/2/6
f 55/1/6 46/1/6 56/1/6
f 47/1/6 48/1/6 57/1/6
f 56/2/6 47/2/6 57/2/6
f 48/2/6 49/2/6 58/2/6
f 57/1/6 48/1/6 58/1/6
f 49/1/6 50/1/6 59/1/6
f 58/2/6 49/2/6 59/2/6
f 50/2/6 51/2/6 60/2/6
f 59/1/6 50/1/6 60/1/6
f 51/1/6 52/1/6 61/1/6
f 60/2/6 51/2/6 61/2/6
f 52/2/6 44/2/6 62/2/6
f 61/1/6 52/1/6 62/1/6
f 44/1/6 42/1/6 63/1/6
f 62/2/6 44/2/6 63/2/6
f 63/1/6 42/1/6 64/1/6
