# MagicaVoxel @ ephtracy

# material
mtllib Turret.mtl
usemtl palette

# normals
vn -1 0 0
vn 1 0 0
vn 0 0 1
vn 0 0 -1
vn 0 -1 0
vn 0 1 0

# texcoords
vt 0.482422 0.5
vt 0.490234 0.5
vt 0.544922 0.5

# verts
v -6.5 7 1.5
v -6.5 7 0.5
v -6.5 7 -0.5
v -6.5 7 -1.5
v -6.5 10 1.5
v -6.5 10 0.5
v -6.5 10 -0.5
v -6.5 10 -1.5
v -5.5 4 1.5
v -5.5 4 -1.5
v -5.5 5 1.5
v -5.5 5 -1.5
v -5.5 6 1.5
v -5.5 6 0.5
v -5.5 6 -0.5
v -5.5 6 -1.5
v -5.5 7 1.5
v -5.5 7 0.5
v -5.5 7 -0.5
v -5.5 7 -1.5
v -5.5 10 1.5
v -5.5 10 0.5
v -5.5 10 -0.5
v -5.5 10 -1.5
v -5.5 11 1.5
v -5.5 11 0.5
v -5.5 11 -0.5
v -5.5 11 -1.5
v -3.5 4 4.5
v -3.5 4 1.5
v -3.5 4 -1.5
v -3.5 4 -4.5
v -3.5 5 4.5
v -3.5 5 1.5
v -3.5 5 -1.5
v -3.5 5 -4.5
v -3.5 6 4.5
v -3.5 6 1.5
v -3.5 6 -1.5
v -3.5 6 -4.5
v -3.5 7 4.5
v -3.5 7 1.5
v -3.5 7 -1.5
v -3.5 7 -4.5
v -2.5 1 3.5
v -2.5 1 -3.5
v -2.5 4 3.5
v -2.5 4 0.5
v -2.5 4 -0.5
v -2.5 4 -3.5
v -2.5 7 3.5
v -2.5 7 1.5
v -2.5 7 -1.5
v -2.5 7 -3.5
v -2.5 9 3.5
v -2.5 9 1.5
v -2.5 9 -1.5
v -2.5 9 -3.5
v -1.5 0 1.5
v -1.5 0 -1.5
v -1.5 1 1.5
v -1.5 1 -1.5
v -1.5 1 -3.5
v -1.5 1 -4.5
v -1.5 4 -3.5
v -1.5 4 -4.5
v -1.5 7 4.5
v -1.5 7 3.5
v -1.5 7 -3.5
v -1.5 7 -4.5
v -1.5 9 3.5
v -1.5 9 1.5
v -1.5 9 -1.5
v -1.5 9 -3.5
v -1.5 10 4.5
v -1.5 10 1.5
v -1.5 10 -1.5
v -1.5 10 -4.5
v 2.5 10 1.5
v 2.5 10 0.5
v 2.5 10 -0.5
v 2.5 10 -1.5
v 2.5 11 1.5
v 2.5 11 0.5
v 2.5 11 -0.5
v 2.5 11 -1.5
v -2.5 10 1.5
v -2.5 10 0.5
v -2.5 10 -0.5
v -2.5 10 -1.5
v -2.5 11 1.5
v -2.5 11 0.5
v -2.5 11 -0.5
v -2.5 11 -1.5
v 1.5 0 1.5
v 1.5 0 -1.5
v 1.5 1 1.5
v 1.5 1 -1.5
v 1.5 1 -3.5
v 1.5 1 -4.5
v 1.5 4 -3.5
v 1.5 4 -4.5
v 1.5 7 4.5
v 1.5 7 3.5
v 1.5 7 -3.5
v 1.5 7 -4.5
v 1.5 9 3.5
v 1.5 9 1.5
v 1.5 9 -1.5
v 1.5 9 -3.5
v 1.5 10 4.5
v 1.5 10 1.5
v 1.5 10 -1.5
v 1.5 10 -4.5
v 2.5 1 3.5
v 2.5 1 -3.5
v 2.5 4 3.5
v 2.5 4 0.5
v 2.5 4 -0.5
v 2.5 4 -3.5
v 2.5 7 3.5
v 2.5 7 1.5
v 2.5 7 -1.5
v 2.5 7 -3.5
v 2.5 9 3.5
v 2.5 9 1.5
v 2.5 9 -1.5
v 2.5 9 -3.5
v 3.5 4 4.5
v 3.5 4 1.5
v 3.5 4 -1.5
v 3.5 4 -4.5
v 3.5 5 4.5
v 3.5 5 1.5
v 3.5 5 -1.5
v 3.5 5 -4.5
v 3.5 6 4.5
v 3.5 6 1.5
v 3.5 6 -1.5
v 3.5 6 -4.5
v 3.5 7 4.5
v 3.5 7 1.5
v 3.5 7 -1.5
v 3.5 7 -4.5
v 5.5 4 1.5
v 5.5 4 -1.5
v 5.5 5 1.5
v 5.5 5 -1.5
v 5.5 6 1.5
v 5.5 6 0.5
v 5.5 6 -0.5
v 5.5 6 -1.5
v 5.5 7 1.5
v 5.5 7 0.5
v 5.5 7 -0.5
v 5.5 7 -1.5
v 5.5 10 1.5
v 5.5 10 0.5
v 5.5 10 -0.5
v 5.5 10 -1.5
v 5.5 11 1.5
v 5.5 11 0.5
v 5.5 11 -0.5
v 5.5 11 -1.5
v 6.5 7 1.5
v 6.5 7 0.5
v 6.5 7 -0.5
v 6.5 7 -1.5
v 6.5 10 1.5
v 6.5 10 0.5
v 6.5 10 -0.5
v 6.5 10 -1.5
v -3.5 4 4.5
v -3.5 5 4.5
v -3.5 6 4.5
v -3.5 7 4.5
v -1.5 7 4.5
v -1.5 10 4.5
v -0.5 6 4.5
v -0.5 10 4.5
v 0.5 6 4.5
v 0.5 10 4.5
v 1.5 7 4.5
v 1.5 10 4.5
v 3.5 4 4.5
v 3.5 5 4.5
v 3.5 6 4.5
v 3.5 7 4.5
v -2.5 1 3.5
v -2.5 4 3.5
v -2.5 7 3.5
v -2.5 9 3.5
v -1.5 7 3.5
v -1.5 9 3.5
v 1.5 7 3.5
v 1.5 9 3.5
v 2.5 1 3.5
v 2.5 4 3.5
v 2.5 7 3.5
v 2.5 9 3.5
v -6.5 7 1.5
v -6.5 10 1.5
v -5.5 4 1.5
v -5.5 5 1.5
v -5.5 6 1.5
v -5.5 7 1.5
v -5.5 10 1.5
v -5.5 11 1.5
v -3.5 4 1.5
v -3.5 5 1.5
v -3.5 6 1.5
v -3.5 7 1.5
v -2.5 7 1.5
v -2.5 9 1.5
v -2.5 10 1.5
v -2.5 11 1.5
v -1.5 0 1.5
v -1.5 1 1.5
v -1.5 9 1.5
v -1.5 10 1.5
v 1.5 0 1.5
v 1.5 1 1.5
v 1.5 9 1.5
v 1.5 10 1.5
v 2.5 7 1.5
v 2.5 9 1.5
v 2.5 10 1.5
v 2.5 11 1.5
v 3.5 4 1.5
v 3.5 5 1.5
v 3.5 6 1.5
v 3.5 7 1.5
v 5.5 4 1.5
v 5.5 5 1.5
v 5.5 6 1.5
v 5.5 7 1.5
v 5.5 10 1.5
v 5.5 11 1.5
v 6.5 7 1.5
v 6.5 10 1.5
v -6.5 7 -1.5
v -6.5 10 -1.5
v -5.5 4 -1.5
v -5.5 5 -1.5
v -5.5 6 -1.5
v -5.5 7 -1.5
v -5.5 10 -1.5
v -5.5 11 -1.5
v -3.5 4 -1.5
v -3.5 5 -1.5
v -3.5 6 -1.5
v -3.5 7 -1.5
v -2.5 7 -1.5
v -2.5 9 -1.5
v -2.5 10 -1.5
v -2.5 11 -1.5
v -1.5 0 -1.5
v -1.5 1 -1.5
v -1.5 9 -1.5
v -1.5 10 -1.5
v -0.5 1 -1.5
v 0.5 1 -1.5
v 1.5 0 -1.5
v 1.5 1 -1.5
v 1.5 9 -1.5
v 1.5 10 -1.5
v 2.5 7 -1.5
v 2.5 9 -1.5
v 2.5 10 -1.5
v 2.5 11 -1.5
v 3.5 4 -1.5
v 3.5 5 -1.5
v 3.5 6 -1.5
v 3.5 7 -1.5
v 5.5 4 -1.5
v 5.5 5 -1.5
v 5.5 6 -1.5
v 5.5 7 -1.5
v 5.5 10 -1.5
v 5.5 11 -1.5
v 6.5 7 -1.5
v 6.5 10 -1.5
v -2.5 1 -3.5
v -2.5 4 -3.5
v -2.5 7 -3.5
v -2.5 9 -3.5
v -1.5 1 -3.5
v -1.5 4 -3.5
v -1.5 7 -3.5
v -1.5 9 -3.5
v 1.5 1 -3.5
v 1.5 4 -3.5
v 1.5 7 -3.5
v 1.5 9 -3.5
v 2.5 1 -3.5
v 2.5 4 -3.5
v 2.5 7 -3.5
v 2.5 9 -3.5
v -3.5 4 -4.5
v -3.5 5 -4.5
v -3.5 6 -4.5
v -3.5 7 -4.5
v -1.5 1 -4.5
v -1.5 4 -4.5
v -1.5 7 -4.5
v -1.5 10 -4.5
v -0.5 1 -4.5
v -0.5 5 -4.5
v -0.5 6 -4.5
v -0.5 10 -4.5
v 0.5 1 -4.5
v 0.5 5 -4.5
v 0.5 6 -4.5
v 0.5 10 -4.5
v 1.5 1 -4.5
v 1.5 4 -4.5
v 1.5 7 -4.5
v 1.5 10 -4.5
v 3.5 4 -4.5
v 3.5 5 -4.5
v 3.5 6 -4.5
v 3.5 7 -4.5
v -1.5 0 1.5
v 1.5 0 1.5
v -1.5 0 -1.5
v 1.5 0 -1.5
v -2.5 1 3.5
v 2.5 1 3.5
v -1.5 1 1.5
v 1.5 1 1.5
v -1.5 1 -1.5
v -0.5 1 -1.5
v 0.5 1 -1.5
v 1.5 1 -1.5
v -2.5 1 -3.5
v -1.5 1 -3.5
v 1.5 1 -3.5
v 2.5 1 -3.5
v -1.5 1 -4.5
v -0.5 1 -4.5
v 0.5 1 -4.5
v 1.5 1 -4.5
v -3.5 4 4.5
v 3.5 4 4.5
v -2.5 4 3.5
v 2.5 4 3.5
v -5.5 4 1.5
v -3.5 4 1.5
v 3.5 4 1.5
v 5.5 4 1.5
v -4.5 4 0.5
v -2.5 4 0.5
v 2.5 4 0.5
v 4.5 4 0.5
v -4.5 4 -0.5
v -2.5 4 -0.5
v 2.5 4 -0.5
v 4.5 4 -0.5
v -5.5 4 -1.5
v -3.5 4 -1.5
v 3.5 4 -1.5
v 5.5 4 -1.5
v -2.5 4 -3.5
v -1.5 4 -3.5
v 1.5 4 -3.5
v 2.5 4 -3.5
v -3.5 4 -4.5
v -1.5 4 -4.5
v 1.5 4 -4.5
v 3.5 4 -4.5
v -6.5 7 1.5
v -5.5 7 1.5
v 5.5 7 1.5
v 6.5 7 1.5
v -6.5 7 0.5
v -5.5 7 0.5
v 5.5 7 0.5
v 6.5 7 0.5
v -6.5 7 -0.5
v -5.5 7 -0.5
v 5.5 7 -0.5
v 6.5 7 -0.5
v -6.5 7 -1.5
v -5.5 7 -1.5
v 5.5 7 -1.5
v 6.5 7 -1.5
v -3.5 7 4.5
v -1.5 7 4.5
v 1.5 7 4.5
v 3.5 7 4.5
v -2.5 7 3.5
v -1.5 7 3.5
v 1.5 7 3.5
v 2.5 7 3.5
v -3.5 7 1.5
v -2.5 7 1.5
v 2.5 7 1.5
v 3.5 7 1.5
v -3.5 7 -1.5
v -2.5 7 -1.5
v 2.5 7 -1.5
v 3.5 7 -1.5
v -2.5 7 -3.5
v -1.5 7 -3.5
v 1.5 7 -3.5
v 2.5 7 -3.5
v -3.5 7 -4.5
v -1.5 7 -4.5
v 1.5 7 -4.5
v 3.5 7 -4.5
v -2.5 9 3.5
v -1.5 9 3.5
v 1.5 9 3.5
v 2.5 9 3.5
v -2.5 9 1.5
v -1.5 9 1.5
v 1.5 9 1.5
v 2.5 9 1.5
v -2.5 9 -1.5
v -1.5 9 -1.5
v 1.5 9 -1.5
v 2.5 9 -1.5
v -2.5 9 -3.5
v -1.5 9 -3.5
v 1.5 9 -3.5
v 2.5 9 -3.5
v -1.5 10 4.5
v -0.5 10 4.5
v 0.5 10 4.5
v 1.5 10 4.5
v -6.5 10 1.5
v -5.5 10 1.5
v -2.5 10 1.5
v -1.5 10 1.5
v 1.5 10 1.5
v 2.5 10 1.5
v 5.5 10 1.5
v 6.5 10 1.5
v -6.5 10 0.5
v -5.5 10 0.5
v -2.5 10 0.5
v -0.5 10 0.5
v 0.5 10 0.5
v 2.5 10 0.5
v 5.5 10 0.5
v 6.5 10 0.5
v -6.5 10 -0.5
v -5.5 10 -0.5
v -2.5 10 -0.5
v -0.5 10 -0.5
v 0.5 10 -0.5
v 2.5 10 -0.5
v 5.5 10 -0.5
v 6.5 10 -0.5
v -6.5 10 -1.5
v -5.5 10 -1.5
v -2.5 10 -1.5
v -1.5 10 -1.5
v 1.5 10 -1.5
v 2.5 10 -1.5
v 5.5 10 -1.5
v 6.5 10 -1.5
v -1.5 10 -4.5
v -0.5 10 -4.5
v 0.5 10 -4.5
v 1.5 10 -4.5
v -5.5 11 1.5
v -2.5 11 1.5
v 2.5 11 1.5
v 5.5 11 1.5
v -5.5 11 0.5
v -2.5 11 0.5
v 2.5 11 0.5
v 5.5 11 0.5
v -5.5 11 -0.5
v -2.5 11 -0.5
v 2.5 11 -0.5
v 5.5 11 -0.5
v -5.5 11 -1.5
v -2.5 11 -1.5
v 2.5 11 -1.5
v 5.5 11 -1.5

# faces
f 5/3/1 2/3/1 1/3/1
f 6/2/1 3/2/1 2/2/1
f 6/3/1 2/3/1 5/3/1
f 7/3/1 4/3/1 3/3/1
f 7/2/1 3/2/1 6/2/1
f 8/3/1 4/3/1 7/3/1
f 11/3/1 10/3/1 9/3/1
f 12/3/1 10/3/1 11/3/1
f 13/2/1 12/2/1 11/2/1
f 14/2/1 12/2/1 13/2/1
f 15/2/1 12/2/1 14/2/1
f 16/2/1 12/2/1 15/2/1
f 17/3/1 14/3/1 13/3/1
f 18/2/1 15/2/1 14/2/1
f 18/3/1 14/3/1 17/3/1
f 19/3/1 16/3/1 15/3/1
f 19/2/1 15/2/1 18/2/1
f 20/3/1 16/3/1 19/3/1
f 25/3/1 22/3/1 21/3/1
f 26/2/1 23/2/1 22/2/1
f 26/3/1 22/3/1 25/3/1
f 27/3/1 24/3/1 23/3/1
f 27/2/1 23/2/1 26/2/1
f 28/3/1 24/3/1 27/3/1
f 33/3/1 30/3/1 29/3/1
f 34/3/1 30/3/1 33/3/1
f 35/3/1 32/3/1 31/3/1
f 36/3/1 32/3/1 35/3/1
f 37/2/1 34/2/1 33/2/1
f 38/2/1 34/2/1 37/2/1
f 39/2/1 36/2/1 35/2/1
f 40/2/1 36/2/1 39/2/1
f 41/3/1 38/3/1 37/3/1
f 42/3/1 38/3/1 41/3/1
f 43/3/1 40/3/1 39/3/1
f 44/3/1 40/3/1 43/3/1
f 47/1/1 46/1/1 45/1/1
f 48/1/1 46/1/1 47/1/1
f 49/1/1 46/1/1 48/1/1
f 50/1/1 46/1/1 49/1/1
f 55/1/1 52/1/1 51/1/1
f 56/1/1 52/1/1 55/1/1
f 57/1/1 54/1/1 53/1/1
f 58/1/1 54/1/1 57/1/1
f 61/3/1 60/3/1 59/3/1
f 62/3/1 60/3/1 61/3/1
f 65/3/1 64/3/1 63/3/1
f 66/3/1 64/3/1 65/3/1
f 71/3/1 68/3/1 67/3/1
f 74/3/1 70/3/1 69/3/1
f 75/3/1 72/3/1 71/3/1
f 75/3/1 71/3/1 67/3/1
f 76/3/1 72/3/1 75/3/1
f 77/3/1 74/3/1 73/3/1
f 78/3/1 70/3/1 74/3/1
f 78/3/1 74/3/1 77/3/1
f 83/3/1 80/3/1 79/3/1
f 84/2/1 81/2/1 80/2/1
f 84/3/1 80/3/1 83/3/1
f 85/3/1 82/3/1 81/3/1
f 85/2/1 81/2/1 84/2/1
f 86/3/1 82/3/1 85/3/1
f 87/3/2 88/3/2 91/3/2
f 88/2/2 89/2/2 92/2/2
f 91/3/2 88/3/2 92/3/2
f 89/3/2 90/3/2 93/3/2
f 92/2/2 89/2/2 93/2/2
f 93/3/2 90/3/2 94/3/2
f 95/3/2 96/3/2 97/3/2
f 97/3/2 96/3/2 98/3/2
f 99/3/2 100/3/2 101/3/2
f 101/3/2 100/3/2 102/3/2
f 103/3/2 104/3/2 107/3/2
f 105/3/2 106/3/2 110/3/2
f 107/3/2 108/3/2 111/3/2
f 103/3/2 107/3/2 111/3/2
f 111/3/2 108/3/2 112/3/2
f 109/3/2 110/3/2 113/3/2
f 110/3/2 106/3/2 114/3/2
f 113/3/2 110/3/2 114/3/2
f 115/1/2 116/1/2 117/1/2
f 117/1/2 116/1/2 118/1/2
f 118/1/2 116/1/2 119/1/2
f 119/1/2 116/1/2 120/1/2
f 121/1/2 122/1/2 125/1/2
f 125/1/2 122/1/2 126/1/2
f 123/1/2 124/1/2 127/1/2
f 127/1/2 124/1/2 128/1/2
f 129/3/2 130/3/2 133/3/2
f 133/3/2 130/3/2 134/3/2
f 131/3/2 132/3/2 135/3/2
f 135/3/2 132/3/2 136/3/2
f 133/2/2 134/2/2 137/2/2
f 137/2/2 134/2/2 138/2/2
f 135/2/2 136/2/2 139/2/2
f 139/2/2 136/2/2 140/2/2
f 137/3/2 138/3/2 141/3/2
f 141/3/2 138/3/2 142/3/2
f 139/3/2 140/3/2 143/3/2
f 143/3/2 140/3/2 144/3/2
f 145/3/2 146/3/2 147/3/2
f 147/3/2 146/3/2 148/3/2
f 147/2/2 148/2/2 149/2/2
f 149/2/2 148/2/2 150/2/2
f 150/2/2 148/2/2 151/2/2
f 151/2/2 148/2/2 152/2/2
f 149/3/2 150/3/2 153/3/2
f 150/2/2 151/2/2 154/2/2
f 153/3/2 150/3/2 154/3/2
f 151/3/2 152/3/2 155/3/2
f 154/2/2 151/2/2 155/2/2
f 155/3/2 152/3/2 156/3/2
f 157/3/2 158/3/2 161/3/2
f 158/2/2 159/2/2 162/2/2
f 161/3/2 158/3/2 162/3/2
f 159/3/2 160/3/2 163/3/2
f 162/2/2 159/2/2 163/2/2
f 163/3/2 160/3/2 164/3/2
f 165/3/2 166/3/2 169/3/2
f 166/2/2 167/2/2 170/2/2
f 169/3/2 166/3/2 170/3/2
f 167/3/2 168/3/2 171/3/2
f 170/2/2 167/2/2 171/2/2
f 171/3/2 168/3/2 172/3/2
f 177/3/3 176/3/3 175/3/3
f 179/2/3 175/2/3 174/2/3
f 179/3/3 178/3/3 177/3/3
f 179/3/3 177/3/3 175/3/3
f 180/3/3 178/3/3 179/3/3
f 181/2/3 179/2/3 174/2/3
f 181/2/3 180/2/3 179/2/3
f 182/2/3 180/2/3 181/2/3
f 183/3/3 182/3/3 181/3/3
f 184/3/3 182/3/3 183/3/3
f 185/3/3 174/3/3 173/3/3
f 186/2/3 181/2/3 174/2/3
f 186/3/3 174/3/3 185/3/3
f 187/3/3 183/3/3 181/3/3
f 187/2/3 181/2/3 186/2/3
f 188/3/3 183/3/3 187/3/3
f 193/1/3 192/1/3 191/1/3
f 194/1/3 192/1/3 193/1/3
f 197/1/3 190/1/3 189/1/3
f 198/1/3 190/1/3 197/1/3
f 199/1/3 196/1/3 195/1/3
f 200/1/3 196/1/3 199/1/3
f 206/3/3 202/3/3 201/3/3
f 207/3/3 202/3/3 206/3/3
f 209/3/3 204/3/3 203/3/3
f 210/2/3 205/2/3 204/2/3
f 210/3/3 204/3/3 209/3/3
f 211/3/3 208/3/3 207/3/3
f 211/2/3 205/2/3 210/2/3
f 211/3/3 206/3/3 205/3/3
f 211/3/3 207/3/3 206/3/3
f 212/3/3 208/3/3 211/3/3
f 213/3/3 208/3/3 212/3/3
f 214/3/3 208/3/3 213/3/3
f 215/3/3 208/3/3 214/3/3
f 216/3/3 208/3/3 215/3/3
f 219/3/3 215/3/3 214/3/3
f 220/3/3 215/3/3 219/3/3
f 221/3/3 218/3/3 217/3/3
f 222/3/3 218/3/3 221/3/3
f 226/3/3 224/3/3 223/3/3
f 227/3/3 224/3/3 226/3/3
f 232/3/3 227/3/3 226/3/3
f 232/3/3 226/3/3 225/3/3
f 232/3/3 228/3/3 227/3/3
f 233/3/3 230/3/3 229/3/3
f 234/2/3 231/2/3 230/2/3
f 234/3/3 230/3/3 233/3/3
f 235/3/3 232/3/3 231/3/3
f 235/2/3 231/2/3 234/2/3
f 236/3/3 228/3/3 232/3/3
f 236/3/3 232/3/3 235/3/3
f 237/3/3 228/3/3 236/3/3
f 238/3/3 228/3/3 237/3/3
f 239/3/3 237/3/3 236/3/3
f 240/3/3 237/3/3 239/3/3
f 241/3/4 242/3/4 246/3/4
f 246/3/4 242/3/4 247/3/4
f 243/3/4 244/3/4 249/3/4
f 244/2/4 245/2/4 250/2/4
f 249/3/4 244/3/4 250/3/4
f 247/3/4 248/3/4 251/3/4
f 250/2/4 245/2/4 251/2/4
f 245/3/4 246/3/4 251/3/4
f 246/3/4 247/3/4 251/3/4
f 251/3/4 248/3/4 252/3/4
f 252/3/4 248/3/4 253/3/4
f 253/3/4 248/3/4 254/3/4
f 254/3/4 248/3/4 255/3/4
f 255/3/4 248/3/4 256/3/4
f 254/3/4 255/3/4 259/3/4
f 259/3/4 255/3/4 260/3/4
f 257/3/4 258/3/4 261/3/4
f 257/3/4 261/3/4 262/3/4
f 257/3/4 262/3/4 263/3/4
f 263/3/4 262/3/4 264/3/4
f 265/3/4 266/3/4 268/3/4
f 268/3/4 266/3/4 269/3/4
f 268/3/4 269/3/4 274/3/4
f 267/3/4 268/3/4 274/3/4
f 269/3/4 270/3/4 274/3/4
f 271/3/4 272/3/4 275/3/4
f 272/2/4 273/2/4 276/2/4
f 275/3/4 272/3/4 276/3/4
f 273/3/4 274/3/4 277/3/4
f 276/2/4 273/2/4 277/2/4
f 274/3/4 270/3/4 278/3/4
f 277/3/4 274/3/4 278/3/4
f 278/3/4 270/3/4 279/3/4
f 279/3/4 270/3/4 280/3/4
f 278/3/4 279/3/4 281/3/4
f 281/3/4 279/3/4 282/3/4
f 283/1/4 284/1/4 287/1/4
f 287/1/4 284/1/4 288/1/4
f 285/1/4 286/1/4 289/1/4
f 289/1/4 286/1/4 290/1/4
f 291/1/4 292/1/4 295/1/4
f 295/1/4 292/1/4 296/1/4
f 293/1/4 294/1/4 297/1/4
f 297/1/4 294/1/4 298/1/4
f 299/3/4 300/3/4 304/3/4
f 301/3/4 302/3/4 305/3/4
f 303/3/4 304/3/4 307/3/4
f 300/2/4 301/2/4 308/2/4
f 307/3/4 304/3/4 308/3/4
f 304/3/4 300/3/4 308/3/4
f 305/3/4 306/3/4 309/3/4
f 308/2/4 301/2/4 309/2/4
f 301/3/4 305/3/4 309/3/4
f 309/3/4 306/3/4 310/3/4
f 307/2/4 308/2/4 311/2/4
f 308/2/4 309/2/4 311/2/4
f 309/2/4 310/2/4 311/2/4
f 311/2/4 310/2/4 312/2/4
f 312/2/4 310/2/4 313/2/4
f 313/2/4 310/2/4 314/2/4
f 311/3/4 312/3/4 315/3/4
f 315/3/4 312/3/4 316/3/4
f 313/3/4 314/3/4 317/3/4
f 317/3/4 314/3/4 318/3/4
f 316/3/4 312/3/4 319/3/4
f 312/2/4 313/2/4 320/2/4
f 319/3/4 312/3/4 320/3/4
f 313/3/4 317/3/4 321/3/4
f 320/2/4 313/2/4 321/2/4
f 321/3/4 317/3/4 322/3/4
f 325/3/5 324/3/5 323/3/5
f 326/3/5 324/3/5 325/3/5
f 329/1/5 328/1/5 327/1/5
f 330/1/5 328/1/5 329/1/5
f 331/1/5 329/1/5 327/1/5
f 334/1/5 328/1/5 330/1/5
f 335/1/5 331/1/5 327/1/5
f 336/3/5 332/3/5 331/3/5
f 336/1/5 331/1/5 335/1/5
f 337/3/5 334/3/5 333/3/5
f 337/1/5 328/1/5 334/1/5
f 338/1/5 328/1/5 337/1/5
f 339/3/5 332/3/5 336/3/5
f 340/2/5 333/2/5 332/2/5
f 340/3/5 332/3/5 339/3/5
f 341/3/5 337/3/5 333/3/5
f 341/2/5 333/2/5 340/2/5
f 342/3/5 337/3/5 341/3/5
f 345/3/5 344/3/5 343/3/5
f 346/3/5 344/3/5 345/3/5
f 348/3/5 345/3/5 343/3/5
f 349/3/5 344/3/5 346/3/5
f 351/3/5 348/3/5 347/3/5
f 352/3/5 345/3/5 348/3/5
f 352/3/5 348/3/5 351/3/5
f 353/3/5 350/3/5 349/3/5
f 353/3/5 349/3/5 346/3/5
f 354/3/5 350/3/5 353/3/5
f 355/1/5 352/1/5 351/1/5
f 355/3/5 351/3/5 347/3/5
f 356/1/5 352/1/5 355/1/5
f 357/1/5 354/1/5 353/1/5
f 358/3/5 350/3/5 354/3/5
f 358/1/5 354/1/5 357/1/5
f 359/3/5 356/3/5 355/3/5
f 359/3/5 355/3/5 347/3/5
f 360/3/5 356/3/5 359/3/5
f 361/3/5 358/3/5 357/3/5
f 362/3/5 350/3/5 358/3/5
f 362/3/5 358/3/5 361/3/5
f 363/3/5 356/3/5 360/3/5
f 366/3/5 361/3/5 357/3/5
f 367/3/5 364/3/5 363/3/5
f 367/3/5 363/3/5 360/3/5
f 368/3/5 364/3/5 367/3/5
f 369/3/5 366/3/5 365/3/5
f 370/3/5 361/3/5 366/3/5
f 370/3/5 366/3/5 369/3/5
f 375/3/5 372/3/5 371/3/5
f 376/3/5 372/3/5 375/3/5
f 377/3/5 374/3/5 373/3/5
f 378/3/5 374/3/5 377/3/5
f 379/2/5 376/2/5 375/2/5
f 380/2/5 376/2/5 379/2/5
f 381/2/5 378/2/5 377/2/5
f 382/2/5 378/2/5 381/2/5
f 383/3/5 380/3/5 379/3/5
f 384/3/5 380/3/5 383/3/5
f 385/3/5 382/3/5 381/3/5
f 386/3/5 382/3/5 385/3/5
f 387/3/6 388/3/6 391/3/6
f 391/3/6 388/3/6 392/3/6
f 389/3/6 390/3/6 393/3/6
f 393/3/6 390/3/6 394/3/6
f 387/3/6 391/3/6 395/3/6
f 395/3/6 391/3/6 396/3/6
f 394/3/6 390/3/6 397/3/6
f 397/3/6 390/3/6 398/3/6
f 399/3/6 400/3/6 403/3/6
f 401/3/6 402/3/6 406/3/6
f 403/3/6 404/3/6 407/3/6
f 399/3/6 403/3/6 407/3/6
f 407/3/6 404/3/6 408/3/6
f 405/3/6 406/3/6 409/3/6
f 406/3/6 402/3/6 410/3/6
f 409/3/6 406/3/6 410/3/6
f 411/1/6 412/1/6 415/1/6
f 415/1/6 412/1/6 416/1/6
f 413/1/6 414/1/6 417/1/6
f 417/1/6 414/1/6 418/1/6
f 419/1/6 420/1/6 423/1/6
f 423/1/6 420/1/6 424/1/6
f 421/1/6 422/1/6 425/1/6
f 425/1/6 422/1/6 426/1/6
f 427/3/6 428/3/6 434/3/6
f 429/3/6 430/3/6 435/3/6
f 431/3/6 432/3/6 439/3/6
f 439/3/6 432/3/6 440/3/6
f 433/3/6 434/3/6 441/3/6
f 428/2/6 429/2/6 442/2/6
f 441/3/6 434/3/6 442/3/6
f 434/3/6 428/3/6 442/3/6
f 429/3/6 435/3/6 443/3/6
f 442/2/6 429/2/6 443/2/6
f 435/3/6 436/3/6 443/3/6
f 443/3/6 436/3/6 444/3/6
f 437/3/6 438/3/6 445/3/6
f 445/3/6 438/3/6 446/3/6
f 439/2/6 440/2/6 447/2/6
f 447/2/6 440/2/6 448/2/6
f 443/2/6 444/2/6 449/2/6
f 441/2/6 442/2/6 449/2/6
f 442/2/6 443/2/6 449/2/6
f 449/2/6 444/2/6 450/2/6
f 450/2/6 444/2/6 451/2/6
f 451/2/6 444/2/6 452/2/6
f 445/2/6 446/2/6 453/2/6
f 453/2/6 446/2/6 454/2/6
f 447/3/6 448/3/6 455/3/6
f 455/3/6 448/3/6 456/3/6
f 449/3/6 450/3/6 457/3/6
f 457/3/6 450/3/6 458/3/6
f 451/3/6 452/3/6 459/3/6
f 459/3/6 452/3/6 460/3/6
f 453/3/6 454/3/6 461/3/6
f 461/3/6 454/3/6 462/3/6
f 458/3/6 450/3/6 463/3/6
f 450/2/6 451/2/6 464/2/6
f 463/3/6 450/3/6 464/3/6
f 451/3/6 459/3/6 465/3/6
f 464/2/6 451/2/6 465/2/6
f 465/3/6 459/3/6 466/3/6
f 467/3/6 468/3/6 471/3/6
f 471/3/6 468/3/6 472/3/6
f 469/3/6 470/3/6 473/3/6
f 473/3/6 470/3/6 474/3/6
f 471/2/6 472/2/6 475/2/6
f 475/2/6 472/2/6 476/2/6
f 473/2/6 474/2/6 477/2/6
f 477/2/6 474/2/6 478/2/6
f 475/3/6 476/3/6 479/3/6
f 479/3/6 476/3/6 480/3/6
f 477/3/6 478/3/6 481/3/6
f 481/3/6 478/3/6 482/3/6
