# MagicaVoxel @ ephtracy

# material
mtllib Cover.mtl
usemtl palette

# normals
vn -1 0 0
vn 1 0 0
vn 0 0 1
vn 0 0 -1
vn 0 -1 0
vn 0 1 0

# texcoords
vt 0.478516 0.5
vt 0.482422 0.5
vt 0.490234 0.5
vt 0.544922 0.5

# verts
v -9.5 1 14
v -9.5 1 13
v -9.5 1 -0
v -9.5 1 -2
v -9.5 1 -4
v -9.5 1 -6
v -9.5 1 -8
v -9.5 1 -10
v -9.5 1 -11
v -9.5 1 -14
v -9.5 2 13
v -9.5 2 12
v -9.5 2 10
v -9.5 2 8
v -9.5 2 6
v -9.5 2 4
v -9.5 2 2
v -9.5 2 -0
v -9.5 4 14
v -9.5 4 13
v -9.5 4 12
v -9.5 4 10
v -9.5 4 8
v -9.5 4 6
v -9.5 4 4
v -9.5 4 2
v -9.5 4 -0
v -9.5 4 -2
v -9.5 4 -4
v -9.5 4 -6
v -9.5 4 -8
v -9.5 4 -10
v -9.5 4 -11
v -9.5 4 -14
v -8.5 0 14
v -8.5 0 13
v -8.5 0 -13
v -8.5 0 -14
v -8.5 1 14
v -8.5 1 13
v -8.5 1 -13
v -8.5 1 -14
v -5.5 0 13
v -5.5 0 12
v -5.5 3 13
v -5.5 3 12
v 4.5 0 14
v 4.5 0 13
v 4.5 3 13
v 4.5 4 14
v 4.5 4 13
v 8.5 1 -0
v 8.5 1 -2
v 8.5 1 -4
v 8.5 1 -6
v 8.5 1 -8
v 8.5 1 -10
v 8.5 1 -11
v 8.5 1 -13
v 8.5 2 13
v 8.5 2 12
v 8.5 2 10
v 8.5 2 8
v 8.5 2 6
v 8.5 2 4
v 8.5 2 2
v 8.5 2 -0
v 8.5 3 13
v 8.5 3 12
v 8.5 3 10
v 8.5 3 8
v 8.5 3 6
v 8.5 3 4
v 8.5 3 2
v 8.5 3 -0
v 8.5 3 -2
v 8.5 3 -4
v 8.5 3 -6
v 8.5 3 -8
v 8.5 3 -10
v 8.5 3 -11
v 8.5 3 -13
v -8.5 1 -0
v -8.5 1 -2
v -8.5 1 -4
v -8.5 1 -6
v -8.5 1 -8
v -8.5 1 -10
v -8.5 1 -11
v -8.5 1 -13
v -8.5 2 13
v -8.5 2 12
v -8.5 2 10
v -8.5 2 8
v -8.5 2 6
v -8.5 2 4
v -8.5 2 2
v -8.5 2 -0
v -8.5 3 13
v -8.5 3 12
v -8.5 3 10
v -8.5 3 8
v -8.5 3 6
v -8.5 3 4
v -8.5 3 2
v -8.5 3 -0
v -8.5 3 -2
v -8.5 3 -4
v -8.5 3 -6
v -8.5 3 -8
v -8.5 3 -10
v -8.5 3 -11
v -8.5 3 -13
v -4.5 0 14
v -4.5 0 13
v -4.5 3 13
v -4.5 4 14
v -4.5 4 13
v 5.5 0 13
v 5.5 0 12
v 5.5 3 13
v 5.5 3 12
v 8.5 0 14
v 8.5 0 13
v 8.5 0 -13
v 8.5 0 -14
v 8.5 1 14
v 8.5 1 13
v 8.5 1 -13
v 8.5 1 -14
v 9.5 1 14
v 9.5 1 13
v 9.5 1 -0
v 9.5 1 -2
v 9.5 1 -4
v 9.5 1 -6
v 9.5 1 -8
v 9.5 1 -10
v 9.5 1 -11
v 9.5 1 -14
v 9.5 2 13
v 9.5 2 12
v 9.5 2 10
v 9.5 2 8
v 9.5 2 6
v 9.5 2 4
v 9.5 2 2
v 9.5 2 -0
v 9.5 4 14
v 9.5 4 13
v 9.5 4 12
v 9.5 4 10
v 9.5 4 8
v 9.5 4 6
v 9.5 4 4
v 9.5 4 2
v 9.5 4 -0
v 9.5 4 -2
v 9.5 4 -4
v 9.5 4 -6
v 9.5 4 -8
v 9.5 4 -10
v 9.5 4 -11
v 9.5 4 -14
v -9.5 1 14
v -9.5 4 14
v -8.5 0 14
v -8.5 1 14
v -4.5 0 14
v -4.5 4 14
v 4.5 0 14
v 4.5 4 14
v 8.5 0 14
v 8.5 1 14
v 9.5 1 14
v 9.5 4 14
v -4.5 0 13
v -4.5 3 13
v -4.5 4 13
v -3.5 3 13
v -3.5 4 13
v 3.5 3 13
v 3.5 4 13
v 4.5 0 13
v 4.5 3 13
v 4.5 4 13
v -9.5 1 -0
v -9.5 2 -0
v -8.5 1 -0
v -8.5 2 -0
v 8.5 1 -0
v 8.5 2 -0
v 9.5 1 -0
v 9.5 2 -0
v -8.5 0 -13
v -8.5 1 -13
v -8.5 3 -13
v -3.5 0 -13
v -3.5 3 -13
v 3.5 0 -13
v 3.5 3 -13
v 8.5 0 -13
v 8.5 1 -13
v 8.5 3 -13
v -9.5 1 13
v -9.5 2 13
v -8.5 0 13
v -8.5 1 13
v -8.5 2 13
v -8.5 3 13
v -5.5 0 13
v -5.5 3 13
v 5.5 0 13
v 5.5 3 13
v 8.5 0 13
v 8.5 1 13
v 8.5 2 13
v 8.5 3 13
v 9.5 1 13
v 9.5 2 13
v -5.5 0 12
v -5.5 3 12
v -4.5 3 12
v -3.5 3 12
v 3.5 3 12
v 4.5 3 12
v 5.5 0 12
v 5.5 3 12
v -9.5 1 -14
v -9.5 4 -14
v -8.5 0 -14
v -8.5 1 -14
v -3.5 0 -14
v -3.5 4 -14
v 3.5 0 -14
v 3.5 4 -14
v 8.5 0 -14
v 8.5 1 -14
v 9.5 1 -14
v 9.5 4 -14
v -8.5 0 14
v -4.5 0 14
v 4.5 0 14
v 8.5 0 14
v -8.5 0 13
v -5.5 0 13
v -4.5 0 13
v 4.5 0 13
v 5.5 0 13
v 8.5 0 13
v -5.5 0 12
v 5.5 0 12
v -8.5 0 -13
v -3.5 0 -13
v 3.5 0 -13
v 8.5 0 -13
v -8.5 0 -14
v -3.5 0 -14
v 3.5 0 -14
v 8.5 0 -14
v -9.5 1 14
v -8.5 1 14
v 8.5 1 14
v 9.5 1 14
v -9.5 1 13
v -8.5 1 13
v 8.5 1 13
v 9.5 1 13
v -9.5 1 -0
v -8.5 1 -0
v 8.5 1 -0
v 9.5 1 -0
v -9.5 1 -2
v -8.5 1 -2
v 8.5 1 -2
v 9.5 1 -2
v -9.5 1 -4
v -8.5 1 -4
v 8.5 1 -4
v 9.5 1 -4
v -9.5 1 -6
v -8.5 1 -6
v 8.5 1 -6
v 9.5 1 -6
v -9.5 1 -8
v -8.5 1 -8
v 8.5 1 -8
v 9.5 1 -8
v -9.5 1 -10
v -8.5 1 -10
v 8.5 1 -10
v 9.5 1 -10
v -9.5 1 -11
v -8.5 1 -11
v 8.5 1 -11
v 9.5 1 -11
v -8.5 1 -13
v 8.5 1 -13
v -9.5 1 -14
v -8.5 1 -14
v 8.5 1 -14
v 9.5 1 -14
v -9.5 2 13
v -8.5 2 13
v 8.5 2 13
v 9.5 2 13
v -9.5 2 12
v -8.5 2 12
v 8.5 2 12
v 9.5 2 12
v -9.5 2 10
v -8.5 2 10
v 8.5 2 10
v 9.5 2 10
v -9.5 2 8
v -8.5 2 8
v 8.5 2 8
v 9.5 2 8
v -9.5 2 6
v -8.5 2 6
v 8.5 2 6
v 9.5 2 6
v -9.5 2 4
v -8.5 2 4
v 8.5 2 4
v 9.5 2 4
v -9.5 2 2
v -8.5 2 2
v 8.5 2 2
v 9.5 2 2
v -9.5 2 -0
v -8.5 2 -0
v 8.5 2 -0
v 9.5 2 -0
v -8.5 3 13
v -5.5 3 13
v 5.5 3 13
v 8.5 3 13
v -8.5 3 12
v -5.5 3 12
v -4.5 3 12
v -3.5 3 12
v 3.5 3 12
v 4.5 3 12
v 5.5 3 12
v 8.5 3 12
v -8.5 3 10
v -4.5 3 10
v -3.5 3 10
v 3.5 3 10
v 4.5 3 10
v 8.5 3 10
v -4.5 3 9
v -0.5 3 9
v 0.5 3 9
v 4.5 3 9
v -8.5 3 8
v -4.5 3 8
v 4.5 3 8
v 8.5 3 8
v -8.5 3 6
v -4.5 3 6
v 4.5 3 6
v 8.5 3 6
v -8.5 3 4
v -4.5 3 4
v 4.5 3 4
v 8.5 3 4
v -8.5 3 2
v -4.5 3 2
v 4.5 3 2
v 8.5 3 2
v -2.5 3 1
v -0.5 3 1
v 0.5 3 1
v 2.5 3 1
v -8.5 3 -0
v -4.5 3 -0
v 4.5 3 -0
v 8.5 3 -0
v -8.5 3 -2
v -4.5 3 -2
v 4.5 3 -2
v 8.5 3 -2
v -2.5 3 -3
v -0.5 3 -3
v 0.5 3 -3
v 2.5 3 -3
v -8.5 3 -4
v -4.5 3 -4
v 4.5 3 -4
v 8.5 3 -4
v -8.5 3 -6
v -4.5 3 -6
v 4.5 3 -6
v 8.5 3 -6
v -4.5 3 -7
v -0.5 3 -7
v 0.5 3 -7
v 4.5 3 -7
v -8.5 3 -8
v -4.5 3 -8
v -3.5 3 -8
v 3.5 3 -8
v 4.5 3 -8
v 8.5 3 -8
v -8.5 3 -10
v -4.5 3 -10
v 4.5 3 -10
v 8.5 3 -10
v -8.5 3 -11
v -3.5 3 -11
v 3.5 3 -11
v 8.5 3 -11
v -8.5 3 -13
v -3.5 3 -13
v 3.5 3 -13
v 8.5 3 -13
v -9.5 4 14
v -4.5 4 14
v 4.5 4 14
v 9.5 4 14
v -9.5 4 13
v -4.5 4 13
v -3.5 4 13
v 3.5 4 13
v 4.5 4 13
v 9.5 4 13
v -9.5 4 12
v -4.5 4 12
v 4.5 4 12
v 9.5 4 12
v -9.5 4 10
v -4.5 4 10
v -3.5 4 10
v 3.5 4 10
v 4.5 4 10
v 9.5 4 10
v -4.5 4 9
v -0.5 4 9
v 0.5 4 9
v 4.5 4 9
v -9.5 4 8
v -4.5 4 8
v 4.5 4 8
v 9.5 4 8
v -9.5 4 6
v -4.5 4 6
v 4.5 4 6
v 9.5 4 6
v -9.5 4 4
v -4.5 4 4
v 4.5 4 4
v 9.5 4 4
v -9.5 4 2
v -4.5 4 2
v 4.5 4 2
v 9.5 4 2
v -2.5 4 1
v -0.5 4 1
v 0.5 4 1
v 2.5 4 1
v -9.5 4 -0
v -4.5 4 -0
v 4.5 4 -0
v 9.5 4 -0
v -9.5 4 -2
v -4.5 4 -2
v 4.5 4 -2
v 9.5 4 -2
v -2.5 4 -3
v -0.5 4 -3
v 0.5 4 -3
v 2.5 4 -3
v -9.5 4 -4
v -4.5 4 -4
v 4.5 4 -4
v 9.5 4 -4
v -9.5 4 -6
v -4.5 4 -6
v 4.5 4 -6
v 9.5 4 -6
v -4.5 4 -7
v -0.5 4 -7
v 0.5 4 -7
v 4.5 4 -7
v -9.5 4 -8
v -4.5 4 -8
v -3.5 4 -8
v 3.5 4 -8
v 4.5 4 -8
v 9.5 4 -8
v -9.5 4 -10
v -4.5 4 -10
v 4.5 4 -10
v 9.5 4 -10
v -9.5 4 -11
v -3.5 4 -11
v 3.5 4 -11
v 9.5 4 -11
v -9.5 4 -14
v -3.5 4 -14
v 3.5 4 -14
v 9.5 4 -14

# faces
f 11/2/1 2/2/1 1/2/1
f 18/3/1 4/3/1 3/3/1
f 19/2/1 11/2/1 1/2/1
f 20/4/1 12/4/1 11/4/1
f 20/2/1 11/2/1 19/2/1
f 21/3/1 13/3/1 12/3/1
f 21/4/1 12/4/1 20/4/1
f 22/2/1 14/2/1 13/2/1
f 22/3/1 13/3/1 21/3/1
f 23/3/1 15/3/1 14/3/1
f 23/2/1 14/2/1 22/2/1
f 24/2/1 16/2/1 15/2/1
f 24/3/1 15/3/1 23/3/1
f 25/3/1 17/3/1 16/3/1
f 25/2/1 16/2/1 24/2/1
f 26/2/1 18/2/1 17/2/1
f 26/3/1 17/3/1 25/3/1
f 27/3/1 4/3/1 18/3/1
f 27/2/1 18/2/1 26/2/1
f 28/2/1 5/2/1 4/2/1
f 28/3/1 4/3/1 27/3/1
f 29/3/1 6/3/1 5/3/1
f 29/2/1 5/2/1 28/2/1
f 30/2/1 7/2/1 6/2/1
f 30/3/1 6/3/1 29/3/1
f 31/3/1 8/3/1 7/3/1
f 31/2/1 7/2/1 30/2/1
f 32/4/1 9/4/1 8/4/1
f 32/3/1 8/3/1 31/3/1
f 33/2/1 10/2/1 9/2/1
f 33/4/1 9/4/1 32/4/1
f 34/2/1 10/2/1 33/2/1
f 39/2/1 36/2/1 35/2/1
f 40/2/1 36/2/1 39/2/1
f 41/2/1 38/2/1 37/2/1
f 42/2/1 38/2/1 41/2/1
f 45/2/1 44/2/1 43/2/1
f 46/2/1 44/2/1 45/2/1
f 49/2/1 48/2/1 47/2/1
f 50/2/1 49/2/1 47/2/1
f 51/2/1 49/2/1 50/2/1
f 67/3/1 53/3/1 52/3/1
f 68/4/1 61/4/1 60/4/1
f 69/3/1 62/3/1 61/3/1
f 69/4/1 61/4/1 68/4/1
f 70/2/1 63/2/1 62/2/1
f 70/3/1 62/3/1 69/3/1
f 71/3/1 64/3/1 63/3/1
f 71/2/1 63/2/1 70/2/1
f 72/2/1 65/2/1 64/2/1
f 72/3/1 64/3/1 71/3/1
f 73/3/1 66/3/1 65/3/1
f 73/2/1 65/2/1 72/2/1
f 74/2/1 67/2/1 66/2/1
f 74/3/1 66/3/1 73/3/1
f 75/3/1 53/3/1 67/3/1
f 75/2/1 67/2/1 74/2/1
f 76/2/1 54/2/1 53/2/1
f 76/3/1 53/3/1 75/3/1
f 77/3/1 55/3/1 54/3/1
f 77/2/1 54/2/1 76/2/1
f 78/2/1 56/2/1 55/2/1
f 78/3/1 55/3/1 77/3/1
f 79/3/1 57/3/1 56/3/1
f 79/2/1 56/2/1 78/2/1
f 80/4/1 58/4/1 57/4/1
f 80/3/1 57/3/1 79/3/1
f 81/2/1 59/2/1 58/2/1
f 81/4/1 58/4/1 80/4/1
f 82/2/1 59/2/1 81/2/1
f 83/3/2 84/3/2 98/3/2
f 91/4/2 92/4/2 99/4/2
f 92/3/2 93/3/2 100/3/2
f 99/4/2 92/4/2 100/4/2
f 93/2/2 94/2/2 101/2/2
f 100/3/2 93/3/2 101/3/2
f 94/3/2 95/3/2 102/3/2
f 101/2/2 94/2/2 102/2/2
f 95/2/2 96/2/2 103/2/2
f 102/3/2 95/3/2 103/3/2
f 96/3/2 97/3/2 104/3/2
f 103/2/2 96/2/2 104/2/2
f 97/2/2 98/2/2 105/2/2
f 104/3/2 97/3/2 105/3/2
f 98/3/2 84/3/2 106/3/2
f 105/2/2 98/2/2 106/2/2
f 84/2/2 85/2/2 107/2/2
f 106/3/2 84/3/2 107/3/2
f 85/3/2 86/3/2 108/3/2
f 107/2/2 85/2/2 108/2/2
f 86/2/2 87/2/2 109/2/2
f 108/3/2 86/3/2 109/3/2
f 87/3/2 88/3/2 110/3/2
f 109/2/2 87/2/2 110/2/2
f 88/4/2 89/4/2 111/4/2
f 110/3/2 88/3/2 111/3/2
f 89/2/2 90/2/2 112/2/2
f 111/4/2 89/4/2 112/4/2
f 112/2/2 90/2/2 113/2/2
f 114/2/2 115/2/2 116/2/2
f 114/2/2 116/2/2 117/2/2
f 117/2/2 116/2/2 118/2/2
f 119/2/2 120/2/2 121/2/2
f 121/2/2 120/2/2 122/2/2
f 123/2/2 124/2/2 127/2/2
f 127/2/2 124/2/2 128/2/2
f 125/2/2 126/2/2 129/2/2
f 129/2/2 126/2/2 130/2/2
f 131/2/2 132/2/2 141/2/2
f 133/3/2 134/3/2 148/3/2
f 131/2/2 141/2/2 149/2/2
f 141/4/2 142/4/2 150/4/2
f 149/2/2 141/2/2 150/2/2
f 142/3/2 143/3/2 151/3/2
f 150/4/2 142/4/2 151/4/2
f 143/2/2 144/2/2 152/2/2
f 151/3/2 143/3/2 152/3/2
f 144/3/2 145/3/2 153/3/2
f 152/2/2 144/2/2 153/2/2
f 145/2/2 146/2/2 154/2/2
f 153/3/2 145/3/2 154/3/2
f 146/3/2 147/3/2 155/3/2
f 154/2/2 146/2/2 155/2/2
f 147/2/2 148/2/2 156/2/2
f 155/3/2 147/3/2 156/3/2
f 148/3/2 134/3/2 157/3/2
f 156/2/2 148/2/2 157/2/2
f 134/2/2 135/2/2 158/2/2
f 157/3/2 134/3/2 158/3/2
f 135/3/2 136/3/2 159/3/2
f 158/2/2 135/2/2 159/2/2
f 136/2/2 137/2/2 160/2/2
f 159/3/2 136/3/2 160/3/2
f 137/3/2 138/3/2 161/3/2
f 160/2/2 137/2/2 161/2/2
f 138/4/2 139/4/2 162/4/2
f 161/3/2 138/3/2 162/3/2
f 139/2/2 140/2/2 163/2/2
f 162/4/2 139/4/2 163/4/2
f 163/2/2 140/2/2 164/2/2
f 168/2/3 166/2/3 165/2/3
f 169/2/3 168/2/3 167/2/3
f 170/2/3 166/2/3 168/2/3
f 170/2/3 168/2/3 169/2/3
f 173/2/3 172/2/3 171/2/3
f 174/2/3 172/2/3 173/2/3
f 175/2/3 172/2/3 174/2/3
f 176/2/3 172/2/3 175/2/3
f 180/2/3 178/2/3 177/2/3
f 180/4/3 179/4/3 178/4/3
f 181/4/3 179/4/3 180/4/3
f 182/2/3 180/2/3 177/2/3
f 182/2/3 181/2/3 180/2/3
f 183/2/3 181/2/3 182/2/3
f 184/2/3 182/2/3 177/2/3
f 185/4/3 183/4/3 182/4/3
f 185/2/3 182/2/3 184/2/3
f 186/4/3 183/4/3 185/4/3
f 189/3/3 188/3/3 187/3/3
f 190/3/3 188/3/3 189/3/3
f 193/3/3 192/3/3 191/3/3
f 194/3/3 192/3/3 193/3/3
f 198/2/3 196/2/3 195/2/3
f 198/2/3 197/2/3 196/2/3
f 199/2/3 197/2/3 198/2/3
f 200/1/3 199/1/3 198/1/3
f 201/1/3 199/1/3 200/1/3
f 202/2/3 201/2/3 200/2/3
f 203/2/3 201/2/3 202/2/3
f 204/2/3 201/2/3 203/2/3
f 205/2/4 206/2/4 208/2/4
f 208/2/4 206/2/4 209/2/4
f 207/2/4 208/2/4 211/2/4
f 209/2/4 210/2/4 211/2/4
f 208/2/4 209/2/4 211/2/4
f 211/2/4 210/2/4 212/2/4
f 213/2/4 214/2/4 215/2/4
f 215/2/4 214/2/4 216/2/4
f 216/2/4 214/2/4 217/2/4
f 217/2/4 214/2/4 218/2/4
f 216/2/4 217/2/4 219/2/4
f 219/2/4 217/2/4 220/2/4
f 221/2/4 222/2/4 223/2/4
f 221/2/4 223/2/4 224/2/4
f 221/2/4 224/2/4 225/2/4
f 221/2/4 225/2/4 226/2/4
f 221/2/4 226/2/4 227/2/4
f 227/2/4 226/2/4 228/2/4
f 229/2/4 230/2/4 232/2/4
f 231/2/4 232/2/4 233/2/4
f 232/2/4 230/2/4 234/2/4
f 233/2/4 232/2/4 234/2/4
f 233/1/4 234/1/4 235/1/4
f 235/1/4 234/1/4 236/1/4
f 235/2/4 236/2/4 237/2/4
f 237/2/4 236/2/4 238/2/4
f 238/2/4 236/2/4 239/2/4
f 239/2/4 236/2/4 240/2/4
f 245/2/5 242/2/5 241/2/5
f 246/2/5 242/2/5 245/2/5
f 247/2/5 242/2/5 246/2/5
f 248/2/5 244/2/5 243/2/5
f 249/2/5 244/2/5 248/2/5
f 250/2/5 244/2/5 249/2/5
f 251/2/5 247/2/5 246/2/5
f 251/2/5 249/2/5 248/2/5
f 251/2/5 248/2/5 247/2/5
f 252/2/5 249/2/5 251/2/5
f 257/2/5 254/2/5 253/2/5
f 258/1/5 255/1/5 254/1/5
f 258/2/5 254/2/5 257/2/5
f 259/2/5 256/2/5 255/2/5
f 259/1/5 255/1/5 258/1/5
f 260/2/5 256/2/5 259/2/5
f 265/2/5 262/2/5 261/2/5
f 266/2/5 262/2/5 265/2/5
f 267/2/5 264/2/5 263/2/5
f 268/2/5 264/2/5 267/2/5
f 273/3/5 270/3/5 269/3/5
f 274/3/5 270/3/5 273/3/5
f 275/3/5 272/3/5 271/3/5
f 276/3/5 272/3/5 275/3/5
f 277/2/5 274/2/5 273/2/5
f 278/2/5 274/2/5 277/2/5
f 279/2/5 276/2/5 275/2/5
f 280/2/5 276/2/5 279/2/5
f 281/3/5 278/3/5 277/3/5
f 282/3/5 278/3/5 281/3/5
f 283/3/5 280/3/5 279/3/5
f 284/3/5 280/3/5 283/3/5
f 285/2/5 282/2/5 281/2/5
f 286/2/5 282/2/5 285/2/5
f 287/2/5 284/2/5 283/2/5
f 288/2/5 284/2/5 287/2/5
f 289/3/5 286/3/5 285/3/5
f 290/3/5 286/3/5 289/3/5
f 291/3/5 288/3/5 287/3/5
f 292/3/5 288/3/5 291/3/5
f 293/4/5 290/4/5 289/4/5
f 294/4/5 290/4/5 293/4/5
f 295/4/5 292/4/5 291/4/5
f 296/4/5 292/4/5 295/4/5
f 297/2/5 294/2/5 293/2/5
f 298/2/5 296/2/5 295/2/5
f 299/2/5 297/2/5 293/2/5
f 300/2/5 297/2/5 299/2/5
f 301/2/5 296/2/5 298/2/5
f 302/2/5 296/2/5 301/2/5
f 307/4/5 304/4/5 303/4/5
f 308/4/5 304/4/5 307/4/5
f 309/4/5 306/4/5 305/4/5
f 310/4/5 306/4/5 309/4/5
f 311/3/5 308/3/5 307/3/5
f 312/3/5 308/3/5 311/3/5
f 313/3/5 310/3/5 309/3/5
f 314/3/5 310/3/5 313/3/5
f 315/2/5 312/2/5 311/2/5
f 316/2/5 312/2/5 315/2/5
f 317/2/5 314/2/5 313/2/5
f 318/2/5 314/2/5 317/2/5
f 319/3/5 316/3/5 315/3/5
f 320/3/5 316/3/5 319/3/5
f 321/3/5 318/3/5 317/3/5
f 322/3/5 318/3/5 321/3/5
f 323/2/5 320/2/5 319/2/5
f 324/2/5 320/2/5 323/2/5
f 325/2/5 322/2/5 321/2/5
f 326/2/5 322/2/5 325/2/5
f 327/3/5 324/3/5 323/3/5
f 328/3/5 324/3/5 327/3/5
f 329/3/5 326/3/5 325/3/5
f 330/3/5 326/3/5 329/3/5
f 331/2/5 328/2/5 327/2/5
f 332/2/5 328/2/5 331/2/5
f 333/2/5 330/2/5 329/2/5
f 334/2/5 330/2/5 333/2/5
f 339/4/5 336/4/5 335/4/5
f 340/4/5 336/4/5 339/4/5
f 345/4/5 338/4/5 337/4/5
f 346/4/5 338/4/5 345/4/5
f 347/3/5 340/3/5 339/3/5
f 347/3/5 341/3/5 340/3/5
f 348/4/5 342/4/5 341/4/5
f 348/3/5 341/3/5 347/3/5
f 349/2/5 343/2/5 342/2/5
f 349/4/5 342/4/5 348/4/5
f 350/4/5 344/4/5 343/4/5
f 350/2/5 343/2/5 349/2/5
f 351/3/5 346/3/5 345/3/5
f 351/4/5 344/4/5 350/4/5
f 351/3/5 345/3/5 344/3/5
f 352/3/5 346/3/5 351/3/5
f 353/4/5 349/4/5 348/4/5
f 353/4/5 350/4/5 349/4/5
f 353/2/5 348/2/5 347/2/5
f 353/4/5 351/4/5 350/4/5
f 354/4/5 351/4/5 353/4/5
f 355/4/5 351/4/5 354/4/5
f 356/2/5 352/2/5 351/2/5
f 356/4/5 351/4/5 355/4/5
f 357/2/5 353/2/5 347/2/5
f 358/1/5 354/1/5 353/1/5
f 358/2/5 353/2/5 357/2/5
f 359/2/5 352/2/5 356/2/5
f 359/1/5 356/1/5 355/1/5
f 360/2/5 352/2/5 359/2/5
f 361/3/5 358/3/5 357/3/5
f 362/1/5 354/1/5 358/1/5
f 362/3/5 358/3/5 361/3/5
f 363/1/5 359/1/5 355/1/5
f 363/3/5 360/3/5 359/3/5
f 364/3/5 360/3/5 363/3/5
f 365/2/5 362/2/5 361/2/5
f 366/1/5 354/1/5 362/1/5
f 366/2/5 362/2/5 365/2/5
f 367/1/5 363/1/5 355/1/5
f 367/2/5 364/2/5 363/2/5
f 368/2/5 364/2/5 367/2/5
f 369/3/5 366/3/5 365/3/5
f 370/1/5 354/1/5 366/1/5
f 370/3/5 366/3/5 369/3/5
f 371/1/5 367/1/5 355/1/5
f 371/3/5 368/3/5 367/3/5
f 372/3/5 368/3/5 371/3/5
f 373/1/5 354/1/5 370/1/5
f 374/4/5 355/4/5 354/4/5
f 374/1/5 354/1/5 373/1/5
f 375/1/5 371/1/5 355/1/5
f 375/4/5 355/4/5 374/4/5
f 376/1/5 371/1/5 375/1/5
f 377/2/5 370/2/5 369/2/5
f 378/1/5 373/1/5 370/1/5
f 378/2/5 370/2/5 377/2/5
f 379/1/5 371/1/5 376/1/5
f 379/2/5 372/2/5 371/2/5
f 380/2/5 372/2/5 379/2/5
f 381/3/5 378/3/5 377/3/5
f 382/1/5 373/1/5 378/1/5
f 382/3/5 378/3/5 381/3/5
f 383/1/5 379/1/5 376/1/5
f 383/3/5 380/3/5 379/3/5
f 384/3/5 380/3/5 383/3/5
f 385/4/5 374/4/5 373/4/5
f 385/4/5 375/4/5 374/4/5
f 385/4/5 376/4/5 375/4/5
f 385/1/5 373/1/5 382/1/5
f 386/4/5 376/4/5 385/4/5
f 387/4/5 376/4/5 386/4/5
f 388/1/5 383/1/5 376/1/5
f 388/4/5 376/4/5 387/4/5
f 389/2/5 382/2/5 381/2/5
f 390/1/5 385/1/5 382/1/5
f 390/2/5 382/2/5 389/2/5
f 390/1/5 386/1/5 385/1/5
f 391/2/5 384/2/5 383/2/5
f 391/1/5 383/1/5 388/1/5
f 391/1/5 388/1/5 387/1/5
f 392/2/5 384/2/5 391/2/5
f 393/3/5 390/3/5 389/3/5
f 394/1/5 386/1/5 390/1/5
f 394/3/5 390/3/5 393/3/5
f 395/1/5 391/1/5 387/1/5
f 395/3/5 392/3/5 391/3/5
f 396/3/5 392/3/5 395/3/5
f 397/1/5 386/1/5 394/1/5
f 397/2/5 394/2/5 393/2/5
f 398/4/5 387/4/5 386/4/5
f 398/1/5 386/1/5 397/1/5
f 399/1/5 395/1/5 387/1/5
f 399/4/5 387/4/5 398/4/5
f 400/2/5 396/2/5 395/2/5
f 400/1/5 395/1/5 399/1/5
f 401/2/5 397/2/5 393/2/5
f 402/4/5 399/4/5 398/4/5
f 402/2/5 397/2/5 401/2/5
f 402/4/5 398/4/5 397/4/5
f 402/4/5 400/4/5 399/4/5
f 403/4/5 400/4/5 402/4/5
f 404/4/5 400/4/5 403/4/5
f 405/2/5 396/2/5 400/2/5
f 405/4/5 400/4/5 404/4/5
f 406/2/5 396/2/5 405/2/5
f 407/3/5 402/3/5 401/3/5
f 408/4/5 403/4/5 402/4/5
f 408/3/5 402/3/5 407/3/5
f 409/4/5 405/4/5 404/4/5
f 409/3/5 406/3/5 405/3/5
f 410/3/5 406/3/5 409/3/5
f 411/4/5 408/4/5 407/4/5
f 412/1/5 404/1/5 403/1/5
f 412/4/5 408/4/5 411/4/5
f 412/4/5 403/4/5 408/4/5
f 413/4/5 410/4/5 409/4/5
f 413/1/5 404/1/5 412/1/5
f 413/4/5 409/4/5 404/4/5
f 414/4/5 410/4/5 413/4/5
f 415/2/5 412/2/5 411/2/5
f 416/1/5 413/1/5 412/1/5
f 416/2/5 412/2/5 415/2/5
f 417/2/5 414/2/5 413/2/5
f 417/1/5 413/1/5 416/1/5
f 418/2/5 414/2/5 417/2/5
f 419/2/6 420/2/6 423/2/6
f 423/2/6 420/2/6 424/2/6
f 421/2/6 422/2/6 427/2/6
f 427/2/6 422/2/6 428/2/6
f 423/4/6 424/4/6 429/4/6
f 424/4/6 425/4/6 429/4/6
f 429/4/6 425/4/6 430/4/6
f 427/4/6 428/4/6 431/4/6
f 426/4/6 427/4/6 431/4/6
f 431/4/6 428/4/6 432/4/6
f 429/3/6 430/3/6 433/3/6
f 430/4/6 425/4/6 434/4/6
f 433/3/6 430/3/6 434/3/6
f 425/2/6 426/2/6 435/2/6
f 434/4/6 425/4/6 435/4/6
f 426/4/6 431/4/6 436/4/6
f 435/2/6 426/2/6 436/2/6
f 431/3/6 432/3/6 437/3/6
f 436/4/6 431/4/6 437/4/6
f 437/3/6 432/3/6 438/3/6
f 433/2/6 434/2/6 439/2/6
f 434/4/6 435/4/6 439/4/6
f 435/4/6 436/4/6 439/4/6
f 436/4/6 437/4/6 439/4/6
f 439/4/6 437/4/6 440/4/6
f 440/4/6 437/4/6 441/4/6
f 437/2/6 438/2/6 442/2/6
f 441/4/6 437/4/6 442/4/6
f 433/2/6 439/2/6 443/2/6
f 439/1/6 440/1/6 444/1/6
f 443/2/6 439/2/6 444/2/6
f 442/2/6 438/2/6 445/2/6
f 441/1/6 442/1/6 445/1/6
f 445/2/6 438/2/6 446/2/6
f 443/3/6 444/3/6 447/3/6
f 444/1/6 440/1/6 448/1/6
f 447/3/6 444/3/6 448/3/6
f 441/1/6 445/1/6 449/1/6
f 445/3/6 446/3/6 449/3/6
f 449/3/6 446/3/6 450/3/6
f 447/2/6 448/2/6 451/2/6
f 448/1/6 440/1/6 452/1/6
f 451/2/6 448/2/6 452/2/6
f 441/1/6 449/1/6 453/1/6
f 449/2/6 450/2/6 453/2/6
f 453/2/6 450/2/6 454/2/6
f 451/3/6 452/3/6 455/3/6
f 452/1/6 440/1/6 456/1/6
f 455/3/6 452/3/6 456/3/6
f 441/1/6 453/1/6 457/1/6
f 453/3/6 454/3/6 457/3/6
f 457/3/6 454/3/6 458/3/6
f 456/1/6 440/1/6 459/1/6
f 440/4/6 441/4/6 460/4/6
f 459/1/6 440/1/6 460/1/6
f 441/1/6 457/1/6 461/1/6
f 460/4/6 441/4/6 461/4/6
f 461/1/6 457/1/6 462/1/6
f 455/2/6 456/2/6 463/2/6
f 456/1/6 459/1/6 464/1/6
f 463/2/6 456/2/6 464/2/6
f 462/1/6 457/1/6 465/1/6
f 457/2/6 458/2/6 465/2/6
f 465/2/6 458/2/6 466/2/6
f 463/3/6 464/3/6 467/3/6
f 464/1/6 459/1/6 468/1/6
f 467/3/6 464/3/6 468/3/6
f 462/1/6 465/1/6 469/1/6
f 465/3/6 466/3/6 469/3/6
f 469/3/6 466/3/6 470/3/6
f 459/4/6 460/4/6 471/4/6
f 460/4/6 461/4/6 471/4/6
f 461/4/6 462/4/6 471/4/6
f 468/1/6 459/1/6 471/1/6
f 471/4/6 462/4/6 472/4/6
f 472/4/6 462/4/6 473/4/6
f 462/1/6 469/1/6 474/1/6
f 473/4/6 462/4/6 474/4/6
f 467/2/6 468/2/6 475/2/6
f 468/1/6 471/1/6 476/1/6
f 475/2/6 468/2/6 476/2/6
f 471/1/6 472/1/6 476/1/6
f 469/2/6 470/2/6 477/2/6
f 474/1/6 469/1/6 477/1/6
f 473/1/6 474/1/6 477/1/6
f 477/2/6 470/2/6 478/2/6
f 475/3/6 476/3/6 479/3/6
f 476/1/6 472/1/6 480/1/6
f 479/3/6 476/3/6 480/3/6
f 473/1/6 477/1/6 481/1/6
f 477/3/6 478/3/6 481/3/6
f 481/3/6 478/3/6 482/3/6
f 480/1/6 472/1/6 483/1/6
f 479/2/6 480/2/6 483/2/6
f 472/4/6 473/4/6 484/4/6
f 483/1/6 472/1/6 484/1/6
f 473/1/6 481/1/6 485/1/6
f 484/4/6 473/4/6 485/4/6
f 481/2/6 482/2/6 486/2/6
f 485/1/6 481/1/6 486/1/6
f 479/2/6 483/2/6 487/2/6
f 484/4/6 485/4/6 488/4/6
f 487/2/6 483/2/6 488/2/6
f 483/4/6 484/4/6 488/4/6
f 485/4/6 486/4/6 488/4/6
f 488/4/6 486/4/6 489/4/6
f 489/4/6 486/4/6 490/4/6
f 486/2/6 482/2/6 491/2/6
f 490/4/6 486/4/6 491/4/6
f 491/2/6 482/2/6 492/2/6
f 487/3/6 488/3/6 493/3/6
f 488/4/6 489/4/6 494/4/6
f 493/3/6 488/3/6 494/3/6
f 490/4/6 491/4/6 495/4/6
f 491/3/6 492/3/6 495/3/6
f 495/3/6 492/3/6 496/3/6
f 493/4/6 494/4/6 497/4/6
f 489/1/6 490/1/6 498/1/6
f 497/4/6 494/4/6 498/4/6
f 494/4/6 489/4/6 498/4/6
f 495/4/6 496/4/6 499/4/6
f 498/1/6 490/1/6 499/1/6
f 490/4/6 495/4/6 499/4/6
f 499/4/6 496/4/6 500/4/6
f 497/2/6 498/2/6 501/2/6
f 498/1/6 499/1/6 502/1/6
f 501/2/6 498/2/6 502/2/6
f 499/2/6 500/2/6 503/2/6
f 502/1/6 499/1/6 503/1/6
f 503/2/6 500/2/6 504/2/6
