# MagicaVoxel @ ephtracy

# material
mtllib Cover.mtl
usemtl palette

# normals
vn -1 0 0
vn 1 0 0
vn 0 0 1
vn 0 0 -1
vn 0 -1 0
vn 0 1 0

# texcoords
vt 0.294922 0.5
vt 0.439453 0.5
vt 0.447266 0.5
vt 0.478516 0.5
vt 0.482422 0.5
vt 0.486328 0.5
vt 0.490234 0.5
vt 0.494141 0.5
vt 0.498047 0.5
vt 0.544922 0.5
vt 0.787109 0.5

# verts
v -8.5 2 -4.5
v -8.5 2 -5.5
v -8.5 2 -11.5
v -8.5 2 -12.5
v -8.5 4 -5.5
v -8.5 4 -11.5
v -8.5 4 -12.5
v -8.5 5 -4.5
v -8.5 5 -12.5
v -7.5 0 12.5
v -7.5 0 11.5
v -7.5 2 12.5
v -7.5 2 11.5
v -7.5 3 12.5
v -7.5 3 11.5
v -6.5 3 11.5
v -6.5 3 6.5
v -6.5 3 -4.5
v -6.5 5 2.5
v -6.5 5 -4.5
v -6.5 6 11.5
v -6.5 6 6.5
v -6.5 7 11.5
v -6.5 7 6.5
v -6.5 10 11.5
v -6.5 10 6.5
v -6.5 11 11.5
v -6.5 11 6.5
v -6.5 11 2.5
v -5.5 0 -11.5
v -5.5 0 -12.5
v -5.5 1 -11.5
v -5.5 1 -12.5
v -5.5 2 -11.5
v -5.5 2 -12.5
v -5.5 3 12.5
v -5.5 3 11.5
v -5.5 4 12.5
v -5.5 4 11.5
v -3.5 1 12.5
v -3.5 1 11.5
v -3.5 3 12.5
v -3.5 3 11.5
v -1.5 1 12.5
v -1.5 1 11.5
v -1.5 3 12.5
v -1.5 3 11.5
v 0.5 1 12.5
v 0.5 1 11.5
v 0.5 3 12.5
v 0.5 3 11.5
v 2.5 1 12.5
v 2.5 1 11.5
v 2.5 3 12.5
v 2.5 3 11.5
v 4.5 1 12.5
v 4.5 1 11.5
v 4.5 3 12.5
v 4.5 3 11.5
v 5.5 2 -4.5
v 5.5 2 -5.5
v 5.5 3 11.5
v 5.5 3 6.5
v 5.5 3 -4.5
v 5.5 4 11.5
v 5.5 4 6.5
v 5.5 4 -5.5
v -5.5 2 -4.5
v -5.5 2 -5.5
v -5.5 3 11.5
v -5.5 3 6.5
v -5.5 3 -4.5
v -5.5 4 11.5
v -5.5 4 6.5
v -5.5 4 -5.5
v -4.5 1 12.5
v -4.5 1 11.5
v -4.5 3 12.5
v -4.5 3 11.5
v -2.5 1 12.5
v -2.5 1 11.5
v -2.5 3 12.5
v -2.5 3 11.5
v -0.5 1 12.5
v -0.5 1 11.5
v -0.5 3 12.5
v -0.5 3 11.5
v 1.5 1 12.5
v 1.5 1 11.5
v 1.5 3 12.5
v 1.5 3 11.5
v 3.5 1 12.5
v 3.5 1 11.5
v 3.5 3 12.5
v 3.5 3 11.5
v 5.5 0 -11.5
v 5.5 0 -12.5
v 5.5 1 -11.5
v 5.5 1 -12.5
v 5.5 2 -11.5
v 5.5 2 -12.5
v 5.5 3 12.5
v 5.5 3 11.5
v 5.5 4 12.5
v 5.5 4 11.5
v 6.5 3 11.5
v 6.5 3 6.5
v 6.5 3 -4.5
v 6.5 5 2.5
v 6.5 5 -4.5
v 6.5 6 11.5
v 6.5 6 6.5
v 6.5 7 11.5
v 6.5 7 6.5
v 6.5 10 11.5
v 6.5 10 6.5
v 6.5 11 11.5
v 6.5 11 6.5
v 6.5 11 2.5
v 7.5 0 12.5
v 7.5 0 11.5
v 7.5 2 12.5
v 7.5 2 11.5
v 7.5 3 12.5
v 7.5 3 11.5
v 8.5 2 -4.5
v 8.5 2 -5.5
v 8.5 2 -11.5
v 8.5 2 -12.5
v 8.5 4 -5.5
v 8.5 4 -11.5
v 8.5 4 -12.5
v 8.5 5 -4.5
v 8.5 5 -12.5
v -7.5 0 12.5
v -7.5 2 12.5
v -7.5 3 12.5
v -5.5 0 12.5
v -5.5 1 12.5
v -5.5 2 12.5
v -5.5 3 12.5
v -5.5 4 12.5
v -4.5 1 12.5
v -4.5 3 12.5
v -3.5 1 12.5
v -3.5 3 12.5
v -2.5 1 12.5
v -2.5 3 12.5
v -1.5 1 12.5
v -1.5 3 12.5
v -0.5 1 12.5
v -0.5 3 12.5
v 0.5 1 12.5
v 0.5 3 12.5
v 1.5 1 12.5
v 1.5 3 12.5
v 2.5 1 12.5
v 2.5 3 12.5
v 3.5 1 12.5
v 3.5 3 12.5
v 4.5 1 12.5
v 4.5 3 12.5
v 5.5 0 12.5
v 5.5 1 12.5
v 5.5 2 12.5
v 5.5 3 12.5
v 5.5 4 12.5
v 7.5 0 12.5
v 7.5 2 12.5
v 7.5 3 12.5
v -6.5 3 11.5
v -6.5 6 11.5
v -6.5 7 11.5
v -6.5 10 11.5
v -6.5 11 11.5
v -5.5 3 11.5
v -5.5 4 11.5
v -5.5 6 11.5
v -5.5 10 11.5
v -5.5 11 11.5
v -4.5 4 11.5
v -4.5 6 11.5
v -4.5 10 11.5
v -4.5 11 11.5
v -3.5 4 11.5
v -3.5 6 11.5
v -3.5 10 11.5
v -3.5 11 11.5
v -2.5 4 11.5
v -2.5 6 11.5
v -2.5 10 11.5
v -2.5 11 11.5
v -0.5 4 11.5
v -0.5 6 11.5
v -0.5 7 11.5
v -0.5 10 11.5
v -0.5 11 11.5
v 0.5 4 11.5
v 0.5 6 11.5
v 0.5 7 11.5
v 0.5 10 11.5
v 0.5 11 11.5
v 2.5 4 11.5
v 2.5 6 11.5
v 2.5 10 11.5
v 2.5 11 11.5
v 3.5 4 11.5
v 3.5 6 11.5
v 3.5 10 11.5
v 3.5 11 11.5
v 4.5 4 11.5
v 4.5 6 11.5
v 4.5 10 11.5
v 4.5 11 11.5
v 5.5 3 11.5
v 5.5 4 11.5
v 5.5 6 11.5
v 5.5 10 11.5
v 5.5 11 11.5
v 6.5 3 11.5
v 6.5 6 11.5
v 6.5 7 11.5
v 6.5 10 11.5
v 6.5 11 11.5
v -8.5 2 -4.5
v -8.5 5 -4.5
v -6.5 3 -4.5
v -6.5 5 -4.5
v -5.5 2 -4.5
v -5.5 3 -4.5
v 5.5 2 -4.5
v 5.5 3 -4.5
v 6.5 3 -4.5
v 6.5 5 -4.5
v 8.5 2 -4.5
v 8.5 5 -4.5
v -8.5 2 -11.5
v -8.5 4 -11.5
v -6.5 4 -11.5
v -5.5 0 -11.5
v -5.5 1 -11.5
v -5.5 2 -11.5
v -5.5 4 -11.5
v -4.5 2 -11.5
v -4.5 4 -11.5
v -3.5 2 -11.5
v -3.5 4 -11.5
v 3.5 2 -11.5
v 3.5 4 -11.5
v 4.5 2 -11.5
v 4.5 4 -11.5
v 5.5 0 -11.5
v 5.5 1 -11.5
v 5.5 2 -11.5
v 5.5 4 -11.5
v 6.5 4 -11.5
v 8.5 2 -11.5
v 8.5 4 -11.5
v -7.5 0 11.5
v -7.5 2 11.5
v -7.5 3 11.5
v -6.5 3 11.5
v -5.5 0 11.5
v -5.5 1 11.5
v -5.5 2 11.5
v -5.5 3 11.5
v -5.5 4 11.5
v -4.5 1 11.5
v -4.5 3 11.5
v -4.5 4 11.5
v -3.5 1 11.5
v -3.5 3 11.5
v -3.5 4 11.5
v -2.5 1 11.5
v -2.5 3 11.5
v -2.5 4 11.5
v -1.5 1 11.5
v -1.5 3 11.5
v -0.5 1 11.5
v -0.5 3 11.5
v -0.5 4 11.5
v 0.5 1 11.5
v 0.5 3 11.5
v 0.5 4 11.5
v 1.5 1 11.5
v 1.5 3 11.5
v 2.5 1 11.5
v 2.5 3 11.5
v 2.5 4 11.5
v 3.5 1 11.5
v 3.5 3 11.5
v 3.5 4 11.5
v 4.5 1 11.5
v 4.5 3 11.5
v 4.5 4 11.5
v 5.5 0 11.5
v 5.5 1 11.5
v 5.5 2 11.5
v 5.5 3 11.5
v 5.5 4 11.5
v 6.5 3 11.5
v 7.5 0 11.5
v 7.5 2 11.5
v 7.5 3 11.5
v -6.5 5 2.5
v -6.5 11 2.5
v -5.5 5 2.5
v -5.5 11 2.5
v -4.5 5 2.5
v -4.5 11 2.5
v -3.5 5 2.5
v -3.5 11 2.5
v -2.5 5 2.5
v -2.5 11 2.5
v 2.5 5 2.5
v 2.5 11 2.5
v 3.5 5 2.5
v 3.5 11 2.5
v 4.5 5 2.5
v 4.5 11 2.5
v 5.5 5 2.5
v 5.5 11 2.5
v 6.5 5 2.5
v 6.5 11 2.5
v -8.5 2 -5.5
v -8.5 4 -5.5
v -6.5 4 -5.5
v -5.5 2 -5.5
v -5.5 4 -5.5
v 5.5 2 -5.5
v 5.5 4 -5.5
v 6.5 4 -5.5
v 8.5 2 -5.5
v 8.5 4 -5.5
v -8.5 2 -12.5
v -8.5 4 -12.5
v -8.5 5 -12.5
v -6.5 4 -12.5
v -6.5 5 -12.5
v -5.5 0 -12.5
v -5.5 1 -12.5
v -5.5 2 -12.5
v -5.5 4 -12.5
v -5.5 5 -12.5
v -4.5 2 -12.5
v -4.5 5 -12.5
v -3.5 2 -12.5
v -3.5 5 -12.5
v 3.5 2 -12.5
v 3.5 5 -12.5
v 4.5 2 -12.5
v 4.5 5 -12.5
v 5.5 0 -12.5
v 5.5 1 -12.5
v 5.5 2 -12.5
v 5.5 4 -12.5
v 5.5 5 -12.5
v 6.5 4 -12.5
v 6.5 5 -12.5
v 8.5 2 -12.5
v 8.5 4 -12.5
v 8.5 5 -12.5
v -7.5 0 12.5
v -5.5 0 12.5
v 5.5 0 12.5
v 7.5 0 12.5
v -7.5 0 11.5
v -5.5 0 11.5
v 5.5 0 11.5
v 7.5 0 11.5
v -5.5 0 -11.5
v 5.5 0 -11.5
v -5.5 0 -12.5
v 5.5 0 -12.5
v -8.5 2 -4.5
v -5.5 2 -4.5
v 5.5 2 -4.5
v 8.5 2 -4.5
v -8.5 2 -5.5
v -5.5 2 -5.5
v 5.5 2 -5.5
v 8.5 2 -5.5
v -8.5 2 -11.5
v -5.5 2 -11.5
v 5.5 2 -11.5
v 8.5 2 -11.5
v -8.5 2 -12.5
v -5.5 2 -12.5
v 5.5 2 -12.5
v 8.5 2 -12.5
v -4.5 3 12.5
v -3.5 3 12.5
v -2.5 3 12.5
v -1.5 3 12.5
v -0.5 3 12.5
v 0.5 3 12.5
v 1.5 3 12.5
v 2.5 3 12.5
v 3.5 3 12.5
v 4.5 3 12.5
v -6.5 3 11.5
v -5.5 3 11.5
v -4.5 3 11.5
v -3.5 3 11.5
v -2.5 3 11.5
v -1.5 3 11.5
v -0.5 3 11.5
v 0.5 3 11.5
v 1.5 3 11.5
v 2.5 3 11.5
v 3.5 3 11.5
v 4.5 3 11.5
v 5.5 3 11.5
v 6.5 3 11.5
v -6.5 3 6.5
v -5.5 3 6.5
v 5.5 3 6.5
v 6.5 3 6.5
v -6.5 3 -4.5
v -5.5 3 -4.5
v 5.5 3 -4.5
v 6.5 3 -4.5
v -5.5 4 11.5
v -4.5 4 11.5
v -3.5 4 11.5
v -2.5 4 11.5
v -0.5 4 11.5
v 0.5 4 11.5
v 2.5 4 11.5
v 3.5 4 11.5
v 4.5 4 11.5
v 5.5 4 11.5
v -2.5 4 10.5
v -0.5 4 10.5
v 0.5 4 10.5
v 2.5 4 10.5
v -5.5 4 6.5
v 5.5 4 6.5
v -8.5 4 -5.5
v -6.5 4 -5.5
v -5.5 4 -5.5
v 5.5 4 -5.5
v 6.5 4 -5.5
v 8.5 4 -5.5
v -5.5 4 -6.5
v -4.5 4 -6.5
v 4.5 4 -6.5
v 5.5 4 -6.5
v -4.5 4 -7.5
v -3.5 4 -7.5
v 3.5 4 -7.5
v 4.5 4 -7.5
v -3.5 4 -8.5
v -2.5 4 -8.5
v 2.5 4 -8.5
v 3.5 4 -8.5
v -8.5 4 -11.5
v -6.5 4 -11.5
v -5.5 4 -11.5
v -4.5 4 -11.5
v -3.5 4 -11.5
v 3.5 4 -11.5
v 4.5 4 -11.5
v 5.5 4 -11.5
v 6.5 4 -11.5
v 8.5 4 -11.5
v -4.5 1 12.5
v -3.5 1 12.5
v -2.5 1 12.5
v -1.5 1 12.5
v -0.5 1 12.5
v 0.5 1 12.5
v 1.5 1 12.5
v 2.5 1 12.5
v 3.5 1 12.5
v 4.5 1 12.5
v -4.5 1 11.5
v -3.5 1 11.5
v -2.5 1 11.5
v -1.5 1 11.5
v -0.5 1 11.5
v 0.5 1 11.5
v 1.5 1 11.5
v 2.5 1 11.5
v 3.5 1 11.5
v 4.5 1 11.5
v -7.5 3 12.5
v -5.5 3 12.5
v 5.5 3 12.5
v 7.5 3 12.5
v -7.5 3 11.5
v -6.5 3 11.5
v -5.5 3 11.5
v 5.5 3 11.5
v 6.5 3 11.5
v 7.5 3 11.5
v -5.5 4 12.5
v 5.5 4 12.5
v -5.5 4 11.5
v -4.5 4 11.5
v -3.5 4 11.5
v -2.5 4 11.5
v -0.5 4 11.5
v 0.5 4 11.5
v 2.5 4 11.5
v 3.5 4 11.5
v 4.5 4 11.5
v 5.5 4 11.5
v -6.5 5 2.5
v -5.5 5 2.5
v -4.5 5 2.5
v -3.5 5 2.5
v -2.5 5 2.5
v 2.5 5 2.5
v 3.5 5 2.5
v 4.5 5 2.5
v 5.5 5 2.5
v 6.5 5 2.5
v -8.5 5 -4.5
v -6.5 5 -4.5
v 6.5 5 -4.5
v 8.5 5 -4.5
v -6.5 5 -5.5
v -5.5 5 -5.5
v 5.5 5 -5.5
v 6.5 5 -5.5
v -5.5 5 -6.5
v -4.5 5 -6.5
v 4.5 5 -6.5
v 5.5 5 -6.5
v -4.5 5 -7.5
v -3.5 5 -7.5
v 3.5 5 -7.5
v 4.5 5 -7.5
v -3.5 5 -8.5
v -2.5 5 -8.5
v 2.5 5 -8.5
v 3.5 5 -8.5
v -8.5 5 -12.5
v -6.5 5 -12.5
v -5.5 5 -12.5
v -4.5 5 -12.5
v -3.5 5 -12.5
v 3.5 5 -12.5
v 4.5 5 -12.5
v 5.5 5 -12.5
v 6.5 5 -12.5
v 8.5 5 -12.5
v -6.5 11 11.5
v -5.5 11 11.5
v -4.5 11 11.5
v -3.5 11 11.5
v -2.5 11 11.5
v -0.5 11 11.5
v 0.5 11 11.5
v 2.5 11 11.5
v 3.5 11 11.5
v 4.5 11 11.5
v 5.5 11 11.5
v 6.5 11 11.5
v -6.5 11 6.5
v -5.5 11 6.5
v -2.5 11 6.5
v -0.5 11 6.5
v 0.5 11 6.5
v 2.5 11 6.5
v 5.5 11 6.5
v 6.5 11 6.5
v -6.5 11 2.5
v -5.5 11 2.5
v -4.5 11 2.5
v -3.5 11 2.5
v -2.5 11 2.5
v 2.5 11 2.5
v 3.5 11 2.5
v 4.5 11 2.5
v 5.5 11 2.5
v 6.5 11 2.5

# faces
f 5/5/1 2/5/1 1/5/1
f 6/11/1 4/11/1 3/11/1
f 7/11/1 4/11/1 6/11/1
f 8/5/1 5/5/1 1/5/1
f 8/5/1 6/5/1 5/5/1
f 8/5/1 7/5/1 6/5/1
f 9/5/1 7/5/1 8/5/1
f 12/1/1 11/1/1 10/1/1
f 13/1/1 11/1/1 12/1/1
f 14/11/1 13/11/1 12/11/1
f 15/11/1 13/11/1 14/11/1
f 19/5/1 18/5/1 17/5/1
f 20/5/1 18/5/1 19/5/1
f 21/6/1 17/6/1 16/6/1
f 22/5/1 19/5/1 17/5/1
f 22/6/1 17/6/1 21/6/1
f 23/8/1 22/8/1 21/8/1
f 24/5/1 19/5/1 22/5/1
f 24/8/1 22/8/1 23/8/1
f 25/9/1 24/9/1 23/9/1
f 26/5/1 19/5/1 24/5/1
f 26/9/1 24/9/1 25/9/1
f 27/6/1 26/6/1 25/6/1
f 28/5/1 19/5/1 26/5/1
f 28/6/1 26/6/1 27/6/1
f 29/5/1 19/5/1 28/5/1
f 32/2/1 31/2/1 30/2/1
f 33/2/1 31/2/1 32/2/1
f 34/3/1 33/3/1 32/3/1
f 35/3/1 33/3/1 34/3/1
f 38/3/1 37/3/1 36/3/1
f 39/3/1 37/3/1 38/3/1
f 42/3/1 41/3/1 40/3/1
f 43/3/1 41/3/1 42/3/1
f 46/3/1 45/3/1 44/3/1
f 47/3/1 45/3/1 46/3/1
f 50/3/1 49/3/1 48/3/1
f 51/3/1 49/3/1 50/3/1
f 54/3/1 53/3/1 52/3/1
f 55/3/1 53/3/1 54/3/1
f 58/3/1 57/3/1 56/3/1
f 59/3/1 57/3/1 58/3/1
f 64/5/1 61/5/1 60/5/1
f 65/6/1 63/6/1 62/6/1
f 66/5/1 64/5/1 63/5/1
f 66/6/1 63/6/1 65/6/1
f 67/5/1 61/5/1 64/5/1
f 67/5/1 64/5/1 66/5/1
f 68/5/2 69/5/2 72/5/2
f 70/6/2 71/6/2 73/6/2
f 71/5/2 72/5/2 74/5/2
f 73/6/2 71/6/2 74/6/2
f 72/5/2 69/5/2 75/5/2
f 74/5/2 72/5/2 75/5/2
f 76/3/2 77/3/2 78/3/2
f 78/3/2 77/3/2 79/3/2
f 80/3/2 81/3/2 82/3/2
f 82/3/2 81/3/2 83/3/2
f 84/3/2 85/3/2 86/3/2
f 86/3/2 85/3/2 87/3/2
f 88/3/2 89/3/2 90/3/2
f 90/3/2 89/3/2 91/3/2
f 92/3/2 93/3/2 94/3/2
f 94/3/2 93/3/2 95/3/2
f 96/2/2 97/2/2 98/2/2
f 98/2/2 97/2/2 99/2/2
f 98/3/2 99/3/2 100/3/2
f 100/3/2 99/3/2 101/3/2
f 102/3/2 103/3/2 104/3/2
f 104/3/2 103/3/2 105/3/2
f 107/5/2 108/5/2 109/5/2
f 109/5/2 108/5/2 110/5/2
f 106/6/2 107/6/2 111/6/2
f 107/5/2 109/5/2 112/5/2
f 111/6/2 107/6/2 112/6/2
f 111/8/2 112/8/2 113/8/2
f 112/5/2 109/5/2 114/5/2
f 113/8/2 112/8/2 114/8/2
f 113/9/2 114/9/2 115/9/2
f 114/5/2 109/5/2 116/5/2
f 115/9/2 114/9/2 116/9/2
f 115/6/2 116/6/2 117/6/2
f 116/5/2 109/5/2 118/5/2
f 117/6/2 116/6/2 118/6/2
f 118/5/2 109/5/2 119/5/2
f 120/1/2 121/1/2 122/1/2
f 122/1/2 121/1/2 123/1/2
f 122/11/2 123/11/2 124/11/2
f 124/11/2 123/11/2 125/11/2
f 126/5/2 127/5/2 130/5/2
f 128/11/2 129/11/2 131/11/2
f 131/11/2 129/11/2 132/11/2
f 126/5/2 130/5/2 133/5/2
f 130/5/2 131/5/2 133/5/2
f 131/5/2 132/5/2 133/5/2
f 133/5/2 132/5/2 134/5/2
f 138/1/3 136/1/3 135/1/3
f 139/1/3 136/1/3 138/1/3
f 140/11/3 137/11/3 136/11/3
f 140/1/3 136/1/3 139/1/3
f 141/11/3 137/11/3 140/11/3
f 143/2/3 139/2/3 138/2/3
f 143/3/3 142/3/3 141/3/3
f 143/3/3 141/3/3 140/3/3
f 143/3/3 140/3/3 139/3/3
f 144/3/3 142/3/3 143/3/3
f 145/2/3 143/2/3 138/2/3
f 146/3/3 142/3/3 144/3/3
f 147/2/3 145/2/3 138/2/3
f 147/3/3 146/3/3 145/3/3
f 148/3/3 142/3/3 146/3/3
f 148/3/3 146/3/3 147/3/3
f 149/2/3 147/2/3 138/2/3
f 150/3/3 142/3/3 148/3/3
f 151/2/3 149/2/3 138/2/3
f 151/3/3 150/3/3 149/3/3
f 152/3/3 142/3/3 150/3/3
f 152/3/3 150/3/3 151/3/3
f 153/2/3 151/2/3 138/2/3
f 154/3/3 142/3/3 152/3/3
f 155/2/3 153/2/3 138/2/3
f 155/3/3 154/3/3 153/3/3
f 156/3/3 142/3/3 154/3/3
f 156/3/3 154/3/3 155/3/3
f 157/2/3 155/2/3 138/2/3
f 158/3/3 142/3/3 156/3/3
f 159/2/3 157/2/3 138/2/3
f 159/3/3 158/3/3 157/3/3
f 160/3/3 142/3/3 158/3/3
f 160/3/3 158/3/3 159/3/3
f 161/2/3 159/2/3 138/2/3
f 162/3/3 142/3/3 160/3/3
f 163/2/3 161/2/3 138/2/3
f 164/3/3 162/3/3 161/3/3
f 164/2/3 161/2/3 163/2/3
f 165/3/3 162/3/3 164/3/3
f 166/3/3 142/3/3 162/3/3
f 166/3/3 162/3/3 165/3/3
f 167/3/3 142/3/3 166/3/3
f 168/1/3 165/1/3 164/1/3
f 168/1/3 164/1/3 163/1/3
f 169/11/3 166/11/3 165/11/3
f 169/1/3 165/1/3 168/1/3
f 170/11/3 166/11/3 169/11/3
f 176/6/3 172/6/3 171/6/3
f 177/6/3 172/6/3 176/6/3
f 178/8/3 173/8/3 172/8/3
f 178/6/3 172/6/3 177/6/3
f 179/6/3 175/6/3 174/6/3
f 179/9/3 174/9/3 173/9/3
f 180/6/3 175/6/3 179/6/3
f 181/7/3 178/7/3 177/7/3
f 182/8/3 173/8/3 178/8/3
f 182/7/3 178/7/3 181/7/3
f 183/7/3 180/7/3 179/7/3
f 183/9/3 179/9/3 173/9/3
f 184/7/3 180/7/3 183/7/3
f 185/10/3 182/10/3 181/10/3
f 186/8/3 173/8/3 182/8/3
f 186/10/3 182/10/3 185/10/3
f 187/9/3 183/9/3 173/9/3
f 187/10/3 184/10/3 183/10/3
f 188/10/3 184/10/3 187/10/3
f 189/7/3 186/7/3 185/7/3
f 190/8/3 173/8/3 186/8/3
f 190/7/3 186/7/3 189/7/3
f 191/9/3 187/9/3 173/9/3
f 191/7/3 188/7/3 187/7/3
f 192/7/3 188/7/3 191/7/3
f 193/6/3 190/6/3 189/6/3
f 194/8/3 173/8/3 190/8/3
f 194/6/3 190/6/3 193/6/3
f 195/9/3 191/9/3 173/9/3
f 195/8/3 173/8/3 194/8/3
f 196/6/3 192/6/3 191/6/3
f 196/9/3 191/9/3 195/9/3
f 197/6/3 192/6/3 196/6/3
f 198/4/3 194/4/3 193/4/3
f 198/4/3 195/4/3 194/4/3
f 198/4/3 197/4/3 196/4/3
f 198/4/3 196/4/3 195/4/3
f 199/4/3 197/4/3 198/4/3
f 200/4/3 197/4/3 199/4/3
f 201/4/3 197/4/3 200/4/3
f 202/4/3 197/4/3 201/4/3
f 203/6/3 199/6/3 198/6/3
f 204/8/3 200/8/3 199/8/3
f 204/6/3 199/6/3 203/6/3
f 205/9/3 201/9/3 200/9/3
f 205/6/3 202/6/3 201/6/3
f 206/6/3 202/6/3 205/6/3
f 207/7/3 204/7/3 203/7/3
f 208/8/3 200/8/3 204/8/3
f 208/7/3 204/7/3 207/7/3
f 209/9/3 205/9/3 200/9/3
f 209/7/3 206/7/3 205/7/3
f 210/7/3 206/7/3 209/7/3
f 211/10/3 208/10/3 207/10/3
f 212/8/3 200/8/3 208/8/3
f 212/10/3 208/10/3 211/10/3
f 213/9/3 209/9/3 200/9/3
f 213/10/3 210/10/3 209/10/3
f 214/10/3 210/10/3 213/10/3
f 216/7/3 212/7/3 211/7/3
f 217/8/3 200/8/3 212/8/3
f 217/7/3 212/7/3 216/7/3
f 218/9/3 213/9/3 200/9/3
f 218/7/3 214/7/3 213/7/3
f 219/7/3 214/7/3 218/7/3
f 220/6/3 216/6/3 215/6/3
f 220/6/3 217/6/3 216/6/3
f 221/8/3 200/8/3 217/8/3
f 221/6/3 217/6/3 220/6/3
f 222/9/3 218/9/3 200/9/3
f 222/8/3 200/8/3 221/8/3
f 223/6/3 219/6/3 218/6/3
f 223/9/3 218/9/3 222/9/3
f 224/6/3 219/6/3 223/6/3
f 227/5/3 226/5/3 225/5/3
f 228/5/3 226/5/3 227/5/3
f 229/5/3 227/5/3 225/5/3
f 230/5/3 227/5/3 229/5/3
f 233/5/3 232/5/3 231/5/3
f 235/5/3 233/5/3 231/5/3
f 235/5/3 234/5/3 233/5/3
f 236/5/3 234/5/3 235/5/3
f 239/11/3 238/11/3 237/11/3
f 242/11/3 239/11/3 237/11/3
f 243/11/3 239/11/3 242/11/3
f 244/3/3 242/3/3 241/3/3
f 244/10/3 243/10/3 242/10/3
f 245/10/3 243/10/3 244/10/3
f 246/3/3 244/3/3 241/3/3
f 246/7/3 245/7/3 244/7/3
f 247/7/3 245/7/3 246/7/3
f 248/3/3 246/3/3 241/3/3
f 248/5/3 247/5/3 246/5/3
f 249/5/3 247/5/3 248/5/3
f 250/3/3 248/3/3 241/3/3
f 250/7/3 249/7/3 248/7/3
f 251/7/3 249/7/3 250/7/3
f 252/2/3 241/2/3 240/2/3
f 253/3/3 250/3/3 241/3/3
f 253/2/3 241/2/3 252/2/3
f 254/10/3 251/10/3 250/10/3
f 254/3/3 250/3/3 253/3/3
f 255/10/3 251/10/3 254/10/3
f 256/11/3 255/11/3 254/11/3
f 257/11/3 256/11/3 254/11/3
f 258/11/3 256/11/3 257/11/3
f 260/11/4 261/11/4 262/11/4
f 259/1/4 260/1/4 263/1/4
f 263/1/4 260/1/4 264/1/4
f 260/11/4 262/11/4 265/11/4
f 264/1/4 260/1/4 265/1/4
f 265/11/4 262/11/4 266/11/4
f 265/3/4 266/3/4 268/3/4
f 266/3/4 267/3/4 268/3/4
f 264/3/4 265/3/4 268/3/4
f 263/2/4 264/2/4 268/2/4
f 268/3/4 267/3/4 269/3/4
f 269/3/4 267/3/4 270/3/4
f 263/2/4 268/2/4 271/2/4
f 269/3/4 270/3/4 272/3/4
f 272/3/4 270/3/4 273/3/4
f 263/2/4 271/2/4 274/2/4
f 271/3/4 272/3/4 274/3/4
f 272/3/4 273/3/4 274/3/4
f 274/3/4 273/3/4 275/3/4
f 275/3/4 273/3/4 276/3/4
f 263/2/4 274/2/4 277/2/4
f 275/3/4 276/3/4 278/3/4
f 263/2/4 277/2/4 279/2/4
f 277/3/4 278/3/4 279/3/4
f 278/3/4 276/3/4 280/3/4
f 279/3/4 278/3/4 280/3/4
f 280/3/4 276/3/4 281/3/4
f 263/2/4 279/2/4 282/2/4
f 280/3/4 281/3/4 283/3/4
f 283/3/4 281/3/4 284/3/4
f 263/2/4 282/2/4 285/2/4
f 282/3/4 283/3/4 285/3/4
f 283/3/4 284/3/4 285/3/4
f 285/3/4 284/3/4 286/3/4
f 263/2/4 285/2/4 287/2/4
f 286/3/4 284/3/4 288/3/4
f 288/3/4 284/3/4 289/3/4
f 263/2/4 287/2/4 290/2/4
f 287/3/4 288/3/4 290/3/4
f 288/3/4 289/3/4 290/3/4
f 290/3/4 289/3/4 291/3/4
f 291/3/4 289/3/4 292/3/4
f 263/2/4 290/2/4 293/2/4
f 291/3/4 292/3/4 294/3/4
f 294/3/4 292/3/4 295/3/4
f 263/2/4 293/2/4 296/2/4
f 293/3/4 294/3/4 297/3/4
f 296/2/4 293/2/4 297/2/4
f 294/3/4 295/3/4 297/3/4
f 297/3/4 295/3/4 298/3/4
f 298/3/4 295/3/4 299/3/4
f 299/3/4 295/3/4 300/3/4
f 298/11/4 299/11/4 301/11/4
f 296/1/4 297/1/4 302/1/4
f 297/1/4 298/1/4 302/1/4
f 298/11/4 301/11/4 303/11/4
f 302/1/4 298/1/4 303/1/4
f 303/11/4 301/11/4 304/11/4
f 305/5/4 306/5/4 307/5/4
f 307/5/4 306/5/4 308/5/4
f 307/7/4 308/7/4 309/7/4
f 309/7/4 308/7/4 310/7/4
f 309/10/4 310/10/4 311/10/4
f 311/10/4 310/10/4 312/10/4
f 311/7/4 312/7/4 313/7/4
f 313/7/4 312/7/4 314/7/4
f 313/4/4 314/4/4 315/4/4
f 315/4/4 314/4/4 316/4/4
f 315/7/4 316/7/4 317/7/4
f 317/7/4 316/7/4 318/7/4
f 317/10/4 318/10/4 319/10/4
f 319/10/4 318/10/4 320/10/4
f 319/7/4 320/7/4 321/7/4
f 321/7/4 320/7/4 322/7/4
f 321/5/4 322/5/4 323/5/4
f 323/5/4 322/5/4 324/5/4
f 325/5/4 326/5/4 327/5/4
f 325/5/4 327/5/4 328/5/4
f 328/5/4 327/5/4 329/5/4
f 330/5/4 331/5/4 332/5/4
f 330/5/4 332/5/4 333/5/4
f 333/5/4 332/5/4 334/5/4
f 335/11/4 336/11/4 338/11/4
f 336/5/4 337/5/4 338/5/4
f 338/5/4 337/5/4 339/5/4
f 335/11/4 338/11/4 342/11/4
f 338/7/4 339/7/4 343/7/4
f 342/11/4 338/11/4 343/11/4
f 343/7/4 339/7/4 344/7/4
f 341/3/4 342/3/4 345/3/4
f 342/10/4 343/10/4 345/10/4
f 343/10/4 344/10/4 345/10/4
f 345/10/4 344/10/4 346/10/4
f 341/3/4 345/3/4 347/3/4
f 345/7/4 346/7/4 347/7/4
f 347/7/4 346/7/4 348/7/4
f 341/3/4 347/3/4 349/3/4
f 347/5/4 348/5/4 349/5/4
f 349/5/4 348/5/4 350/5/4
f 341/3/4 349/3/4 351/3/4
f 349/7/4 350/7/4 351/7/4
f 351/7/4 350/7/4 352/7/4
f 340/2/4 341/2/4 353/2/4
f 341/3/4 351/3/4 354/3/4
f 353/2/4 341/2/4 354/2/4
f 351/10/4 352/10/4 355/10/4
f 354/3/4 351/3/4 355/3/4
f 355/10/4 352/10/4 356/10/4
f 356/10/4 352/10/4 357/10/4
f 356/7/4 357/7/4 358/7/4
f 355/11/4 356/11/4 358/11/4
f 358/7/4 357/7/4 359/7/4
f 355/11/4 358/11/4 360/11/4
f 358/5/4 359/5/4 361/5/4
f 360/11/4 358/11/4 361/11/4
f 361/5/4 359/5/4 362/5/4
f 367/1/5 364/1/5 363/1/5
f 368/2/5 365/2/5 364/2/5
f 368/1/5 364/1/5 367/1/5
f 369/1/5 366/1/5 365/1/5
f 369/2/5 365/2/5 368/2/5
f 370/1/5 366/1/5 369/1/5
f 373/2/5 372/2/5 371/2/5
f 374/2/5 372/2/5 373/2/5
f 379/5/5 376/5/5 375/5/5
f 380/5/5 376/5/5 379/5/5
f 381/5/5 378/5/5 377/5/5
f 382/5/5 378/5/5 381/5/5
f 387/11/5 384/11/5 383/11/5
f 388/11/5 384/11/5 387/11/5
f 389/11/5 386/11/5 385/11/5
f 390/11/5 386/11/5 389/11/5
f 403/3/5 392/3/5 391/3/5
f 404/3/5 392/3/5 403/3/5
f 405/3/5 394/3/5 393/3/5
f 406/3/5 394/3/5 405/3/5
f 407/3/5 396/3/5 395/3/5
f 408/3/5 396/3/5 407/3/5
f 409/3/5 398/3/5 397/3/5
f 410/3/5 398/3/5 409/3/5
f 411/3/5 400/3/5 399/3/5
f 412/3/5 400/3/5 411/3/5
f 415/6/5 402/6/5 401/6/5
f 416/6/5 402/6/5 415/6/5
f 417/6/5 414/6/5 413/6/5
f 418/6/5 414/6/5 417/6/5
f 419/5/5 416/5/5 415/5/5
f 420/5/5 416/5/5 419/5/5
f 421/5/5 418/5/5 417/5/5
f 422/5/5 418/5/5 421/5/5
f 433/7/5 426/7/5 425/7/5
f 433/6/5 427/6/5 426/6/5
f 434/4/5 428/4/5 427/4/5
f 434/6/5 427/6/5 433/6/5
f 435/6/5 429/6/5 428/6/5
f 435/4/5 428/4/5 434/4/5
f 436/7/5 430/7/5 429/7/5
f 436/6/5 429/6/5 435/6/5
f 437/7/5 424/7/5 423/7/5
f 438/7/5 432/7/5 431/7/5
f 441/7/5 424/7/5 437/7/5
f 442/7/5 438/7/5 431/7/5
f 445/7/5 441/7/5 440/7/5
f 445/7/5 424/7/5 441/7/5
f 446/10/5 425/10/5 424/10/5
f 446/7/5 424/7/5 445/7/5
f 447/10/5 431/10/5 430/10/5
f 447/7/5 442/7/5 431/7/5
f 447/7/5 443/7/5 442/7/5
f 448/7/5 443/7/5 447/7/5
f 449/10/5 425/10/5 446/10/5
f 449/10/5 446/10/5 445/10/5
f 450/7/5 433/7/5 425/7/5
f 450/10/5 425/10/5 449/10/5
f 451/7/5 430/7/5 436/7/5
f 451/10/5 448/10/5 447/10/5
f 451/10/5 447/10/5 430/10/5
f 452/10/5 448/10/5 451/10/5
f 453/7/5 433/7/5 450/7/5
f 453/7/5 450/7/5 449/7/5
f 454/5/5 434/5/5 433/5/5
f 454/7/5 433/7/5 453/7/5
f 454/5/5 435/5/5 434/5/5
f 454/5/5 436/5/5 435/5/5
f 455/7/5 451/7/5 436/7/5
f 455/5/5 436/5/5 454/5/5
f 455/7/5 452/7/5 451/7/5
f 456/7/5 452/7/5 455/7/5
f 457/5/5 440/5/5 439/5/5
f 458/7/5 445/7/5 440/7/5
f 458/5/5 440/5/5 457/5/5
f 459/10/5 449/10/5 445/10/5
f 459/7/5 445/7/5 458/7/5
f 460/7/5 453/7/5 449/7/5
f 460/10/5 449/10/5 459/10/5
f 461/5/5 454/5/5 453/5/5
f 461/7/5 453/7/5 460/7/5
f 461/5/5 455/5/5 454/5/5
f 461/5/5 456/5/5 455/5/5
f 462/7/5 452/7/5 456/7/5
f 462/5/5 456/5/5 461/5/5
f 463/10/5 448/10/5 452/10/5
f 463/7/5 452/7/5 462/7/5
f 464/7/5 443/7/5 448/7/5
f 464/10/5 448/10/5 463/10/5
f 465/5/5 444/5/5 443/5/5
f 465/7/5 443/7/5 464/7/5
f 466/5/5 444/5/5 465/5/5
f 467/2/6 468/2/6 477/2/6
f 477/2/6 468/2/6 478/2/6
f 469/2/6 470/2/6 479/2/6
f 479/2/6 470/2/6 480/2/6
f 471/2/6 472/2/6 481/2/6
f 481/2/6 472/2/6 482/2/6
f 473/2/6 474/2/6 483/2/6
f 483/2/6 474/2/6 484/2/6
f 475/2/6 476/2/6 485/2/6
f 485/2/6 476/2/6 486/2/6
f 487/11/6 488/11/6 491/11/6
f 491/11/6 488/11/6 492/11/6
f 492/11/6 488/11/6 493/11/6
f 489/11/6 490/11/6 494/11/6
f 494/11/6 490/11/6 495/11/6
f 495/11/6 490/11/6 496/11/6
f 497/3/6 498/3/6 499/3/6
f 499/3/6 498/3/6 500/3/6
f 500/3/6 498/3/6 501/3/6
f 501/3/6 498/3/6 502/3/6
f 502/3/6 498/3/6 503/3/6
f 503/3/6 498/3/6 504/3/6
f 504/3/6 498/3/6 505/3/6
f 505/3/6 498/3/6 506/3/6
f 506/3/6 498/3/6 507/3/6
f 507/3/6 498/3/6 508/3/6
f 509/5/6 510/5/6 520/5/6
f 517/5/6 518/5/6 521/5/6
f 519/5/6 520/5/6 523/5/6
f 520/5/6 510/5/6 523/5/6
f 510/7/6 511/7/6 524/7/6
f 523/5/6 510/5/6 524/5/6
f 521/5/6 522/5/6 525/5/6
f 516/7/6 517/7/6 525/7/6
f 517/5/6 521/5/6 525/5/6
f 525/5/6 522/5/6 526/5/6
f 524/7/6 511/7/6 527/7/6
f 523/7/6 524/7/6 527/7/6
f 511/10/6 512/10/6 528/10/6
f 527/7/6 511/7/6 528/7/6
f 515/10/6 516/10/6 529/10/6
f 525/7/6 526/7/6 529/7/6
f 516/7/6 525/7/6 529/7/6
f 529/7/6 526/7/6 530/7/6
f 528/10/6 512/10/6 531/10/6
f 527/10/6 528/10/6 531/10/6
f 512/7/6 513/7/6 532/7/6
f 531/10/6 512/10/6 532/10/6
f 514/7/6 515/7/6 533/7/6
f 529/10/6 530/10/6 533/10/6
f 515/10/6 529/10/6 533/10/6
f 533/10/6 530/10/6 534/10/6
f 532/7/6 513/7/6 535/7/6
f 531/7/6 532/7/6 535/7/6
f 513/5/6 514/5/6 536/5/6
f 535/7/6 513/7/6 536/7/6
f 533/7/6 534/7/6 537/7/6
f 536/5/6 514/5/6 537/5/6
f 514/7/6 533/7/6 537/7/6
f 537/7/6 534/7/6 538/7/6
f 519/5/6 523/5/6 539/5/6
f 523/7/6 527/7/6 540/7/6
f 539/5/6 523/5/6 540/5/6
f 527/10/6 531/10/6 541/10/6
f 540/7/6 527/7/6 541/7/6
f 531/7/6 535/7/6 542/7/6
f 541/10/6 531/10/6 542/10/6
f 535/5/6 536/5/6 543/5/6
f 542/7/6 535/7/6 543/7/6
f 536/5/6 537/5/6 543/5/6
f 537/5/6 538/5/6 543/5/6
f 538/7/6 534/7/6 544/7/6
f 543/5/6 538/5/6 544/5/6
f 534/10/6 530/10/6 545/10/6
f 544/7/6 534/7/6 545/7/6
f 530/7/6 526/7/6 546/7/6
f 545/10/6 530/10/6 546/10/6
f 526/5/6 522/5/6 547/5/6
f 546/7/6 526/7/6 547/7/6
f 547/5/6 522/5/6 548/5/6
f 549/6/6 550/6/6 561/6/6
f 550/7/6 551/7/6 562/7/6
f 561/6/6 550/6/6 562/6/6
f 552/7/6 553/7/6 563/7/6
f 553/6/6 554/6/6 563/6/6
f 554/4/6 555/4/6 564/4/6
f 563/6/6 554/6/6 564/6/6
f 555/6/6 556/6/6 565/6/6
f 564/4/6 555/4/6 565/4/6
f 556/7/6 557/7/6 566/7/6
f 565/6/6 556/6/6 566/6/6
f 559/6/6 560/6/6 567/6/6
f 558/7/6 559/7/6 567/7/6
f 567/6/6 560/6/6 568/6/6
f 561/5/6 562/5/6 569/5/6
f 562/7/6 551/7/6 570/7/6
f 569/5/6 562/5/6 570/5/6
f 551/10/6 552/10/6 571/10/6
f 570/7/6 551/7/6 571/7/6
f 552/7/6 563/7/6 572/7/6
f 571/10/6 552/10/6 572/10/6
f 563/4/6 564/4/6 573/4/6
f 572/7/6 563/7/6 573/7/6
f 564/4/6 565/4/6 573/4/6
f 565/4/6 566/4/6 573/4/6
f 566/7/6 557/7/6 574/7/6
f 573/4/6 566/4/6 574/4/6
f 557/10/6 558/10/6 575/10/6
f 574/7/6 557/7/6 575/7/6
f 558/7/6 567/7/6 576/7/6
f 575/10/6 558/10/6 576/10/6
f 567/5/6 568/5/6 577/5/6
f 576/7/6 567/7/6 577/7/6
f 577/5/6 568/5/6 578/5/6
