# MagicaVoxel @ ephtracy

# material
mtllib Cannon_1.mtl
usemtl palette

# normals
vn -1 0 0
vn 1 0 0
vn 0 0 1
vn 0 0 -1
vn 0 -1 0
vn 0 1 0

# texcoords
vt 0.439453 0.5
vt 0.451172 0.5
vt 0.533203 0.5

# verts
v -1.5 1 5.5
v -1.5 1 3.5
v -1.5 1 -4.5
v -1.5 1 -5.5
v -1.5 2 5.5
v -1.5 2 3.5
v -1.5 2 -4.5
v -1.5 2 -5.5
v -0.5 0 5.5
v -0.5 0 1.5
v -0.5 0 -4.5
v -0.5 0 -5.5
v -0.5 1 5.5
v -0.5 1 3.5
v -0.5 1 1.5
v -0.5 1 -4.5
v -0.5 1 -5.5
v -0.5 2 5.5
v -0.5 2 3.5
v -0.5 2 1.5
v -0.5 2 -2.5
v -0.5 2 -4.5
v -0.5 2 -5.5
v -0.5 3 5.5
v -0.5 3 1.5
v -0.5 3 -2.5
v -0.5 3 -5.5
v 0.5 1 5.5
v 0.5 1 4.5
v 0.5 2 5.5
v 0.5 2 4.5
v -0.5 1 5.5
v -0.5 1 4.5
v -0.5 2 5.5
v -0.5 2 4.5
v 0.5 0 5.5
v 0.5 0 1.5
v 0.5 0 -4.5
v 0.5 0 -5.5
v 0.5 1 5.5
v 0.5 1 3.5
v 0.5 1 1.5
v 0.5 1 -4.5
v 0.5 1 -5.5
v 0.5 2 5.5
v 0.5 2 3.5
v 0.5 2 1.5
v 0.5 2 -2.5
v 0.5 2 -4.5
v 0.5 2 -5.5
v 0.5 3 5.5
v 0.5 3 1.5
v 0.5 3 -2.5
v 0.5 3 -5.5
v 1.5 1 5.5
v 1.5 1 3.5
v 1.5 1 -4.5
v 1.5 1 -5.5
v 1.5 2 5.5
v 1.5 2 3.5
v 1.5 2 -4.5
v 1.5 2 -5.5
v -1.5 1 5.5
v -1.5 2 5.5
v -0.5 0 5.5
v -0.5 1 5.5
v -0.5 2 5.5
v -0.5 3 5.5
v 0.5 0 5.5
v 0.5 1 5.5
v 0.5 2 5.5
v 0.5 3 5.5
v 1.5 1 5.5
v 1.5 2 5.5
v -0.5 1 4.5
v -0.5 2 4.5
v 0.5 1 4.5
v 0.5 2 4.5
v -1.5 1 -5.5
v -1.5 2 -5.5
v -0.5 0 -5.5
v -0.5 1 -5.5
v -0.5 2 -5.5
v -0.5 3 -5.5
v 0.5 0 -5.5
v 0.5 1 -5.5
v 0.5 2 -5.5
v 0.5 3 -5.5
v 1.5 1 -5.5
v 1.5 2 -5.5
v -0.5 0 5.5
v 0.5 0 5.5
v -0.5 0 1.5
v 0.5 0 1.5
v -0.5 0 -4.5
v 0.5 0 -4.5
v -0.5 0 -5.5
v 0.5 0 -5.5
v -1.5 1 5.5
v -0.5 1 5.5
v 0.5 1 5.5
v 1.5 1 5.5
v -1.5 1 3.5
v -0.5 1 3.5
v 0.5 1 3.5
v 1.5 1 3.5
v -0.5 1 1.5
v 0.5 1 1.5
v -1.5 1 -4.5
v -0.5 1 -4.5
v 0.5 1 -4.5
v 1.5 1 -4.5
v -1.5 1 -5.5
v -0.5 1 -5.5
v 0.5 1 -5.5
v 1.5 1 -5.5
v -0.5 2 5.5
v 0.5 2 5.5
v -0.5 2 4.5
v 0.5 2 4.5
v -0.5 1 5.5
v 0.5 1 5.5
v -0.5 1 4.5
v 0.5 1 4.5
v -1.5 2 5.5
v -0.5 2 5.5
v 0.5 2 5.5
v 1.5 2 5.5
v -1.5 2 3.5
v -0.5 2 3.5
v 0.5 2 3.5
v 1.5 2 3.5
v -0.5 2 1.5
v 0.5 2 1.5
v -0.5 2 -2.5
v 0.5 2 -2.5
v -1.5 2 -4.5
v -0.5 2 -4.5
v 0.5 2 -4.5
v 1.5 2 -4.5
v -1.5 2 -5.5
v -0.5 2 -5.5
v 0.5 2 -5.5
v 1.5 2 -5.5
v -0.5 3 5.5
v 0.5 3 5.5
v -0.5 3 1.5
v 0.5 3 1.5
v -0.5 3 -2.5
v 0.5 3 -2.5
v -0.5 3 -5.5
v 0.5 3 -5.5

# faces
f 5/1/1 2/1/1 1/1/1
f 6/2/1 3/2/1 2/2/1
f 6/1/1 2/1/1 5/1/1
f 7/1/1 4/1/1 3/1/1
f 7/2/1 3/2/1 6/2/1
f 8/1/1 4/1/1 7/1/1
f 13/1/1 10/1/1 9/1/1
f 14/1/1 10/1/1 13/1/1
f 15/2/1 11/2/1 10/2/1
f 15/1/1 10/1/1 14/1/1
f 16/1/1 12/1/1 11/1/1
f 16/2/1 11/2/1 15/2/1
f 17/1/1 12/1/1 16/1/1
f 24/1/1 19/1/1 18/1/1
f 24/1/1 20/1/1 19/1/1
f 25/2/1 21/2/1 20/2/1
f 25/1/1 20/1/1 24/1/1
f 26/1/1 23/1/1 22/1/1
f 26/2/1 21/2/1 25/2/1
f 26/1/1 22/1/1 21/1/1
f 27/1/1 23/1/1 26/1/1
f 30/1/1 29/1/1 28/1/1
f 31/1/1 29/1/1 30/1/1
f 32/1/2 33/1/2 34/1/2
f 34/1/2 33/1/2 35/1/2
f 36/1/2 37/1/2 40/1/2
f 40/1/2 37/1/2 41/1/2
f 37/2/2 38/2/2 42/2/2
f 41/1/2 37/1/2 42/1/2
f 38/1/2 39/1/2 43/1/2
f 42/2/2 38/2/2 43/2/2
f 43/1/2 39/1/2 44/1/2
f 45/1/2 46/1/2 51/1/2
f 46/1/2 47/1/2 51/1/2
f 47/2/2 48/2/2 52/2/2
f 51/1/2 47/1/2 52/1/2
f 49/1/2 50/1/2 53/1/2
f 52/2/2 48/2/2 53/2/2
f 48/1/2 49/1/2 53/1/2
f 53/1/2 50/1/2 54/1/2
f 55/1/2 56/1/2 59/1/2
f 56/2/2 57/2/2 60/2/2
f 59/1/2 56/1/2 60/1/2
f 57/1/2 58/1/2 61/1/2
f 60/2/2 57/2/2 61/2/2
f 61/1/2 58/1/2 62/1/2
f 66/1/3 64/1/3 63/1/3
f 67/1/3 64/1/3 66/1/3
f 69/1/3 66/1/3 65/1/3
f 70/1/3 66/1/3 69/1/3
f 71/1/3 68/1/3 67/1/3
f 72/1/3 68/1/3 71/1/3
f 73/1/3 71/1/3 70/1/3
f 74/1/3 71/1/3 73/1/3
f 77/3/3 76/3/3 75/3/3
f 78/3/3 76/3/3 77/3/3
f 79/1/4 80/1/4 82/1/4
f 82/1/4 80/1/4 83/1/4
f 81/1/4 82/1/4 85/1/4
f 82/2/4 83/2/4 86/2/4
f 85/1/4 82/1/4 86/1/4
f 83/1/4 84/1/4 87/1/4
f 86/2/4 83/2/4 87/2/4
f 87/1/4 84/1/4 88/1/4
f 86/1/4 87/1/4 89/1/4
f 89/1/4 87/1/4 90/1/4
f 93/1/5 92/1/5 91/1/5
f 94/1/5 92/1/5 93/1/5
f 95/2/5 94/2/5 93/2/5
f 96/2/5 94/2/5 95/2/5
f 97/1/5 96/1/5 95/1/5
f 98/1/5 96/1/5 97/1/5
f 103/1/5 100/1/5 99/1/5
f 104/1/5 100/1/5 103/1/5
f 105/1/5 102/1/5 101/1/5
f 106/1/5 102/1/5 105/1/5
f 107/2/5 104/2/5 103/2/5
f 108/2/5 106/2/5 105/2/5
f 109/2/5 107/2/5 103/2/5
f 110/2/5 107/2/5 109/2/5
f 111/2/5 106/2/5 108/2/5
f 112/2/5 106/2/5 111/2/5
f 113/1/5 110/1/5 109/1/5
f 114/1/5 110/1/5 113/1/5
f 115/1/5 112/1/5 111/1/5
f 116/1/5 112/1/5 115/1/5
f 119/1/5 118/1/5 117/1/5
f 120/1/5 118/1/5 119/1/5
f 121/1/6 122/1/6 123/1/6
f 123/1/6 122/1/6 124/1/6
f 125/1/6 126/1/6 129/1/6
f 129/1/6 126/1/6 130/1/6
f 127/1/6 128/1/6 131/1/6
f 131/1/6 128/1/6 132/1/6
f 129/2/6 130/2/6 133/2/6
f 131/2/6 132/2/6 134/2/6
f 129/2/6 133/2/6 135/2/6
f 134/2/6 132/2/6 136/2/6
f 129/2/6 135/2/6 137/2/6
f 137/2/6 135/2/6 138/2/6
f 136/2/6 132/2/6 139/2/6
f 139/2/6 132/2/6 140/2/6
f 137/1/6 138/1/6 141/1/6
f 141/1/6 138/1/6 142/1/6
f 139/1/6 140/1/6 143/1/6
f 143/1/6 140/1/6 144/1/6
f 145/1/6 146/1/6 147/1/6
f 147/1/6 146/1/6 148/1/6
f 147/2/6 148/2/6 149/2/6
f 149/2/6 148/2/6 150/2/6
f 149/1/6 150/1/6 151/1/6
f 151/1/6 150/1/6 152/1/6
